<svg width="40" height="40" viewBox="0 0 40 40" fill="none" xmlns="http://www.w3.org/2000/svg">
<rect width="40" height="40" rx="6" fill="#FEEDEF"/>
<path fill-rule="evenodd" clip-rule="evenodd" d="M17.2839 19.4217V19.8943H16.0699V19.6156C16.0699 18.7485 16.7794 18.0391 17.6465 18.0391H22.3528C23.2199 18.0391 23.9292 18.7486 23.9292 19.6156V19.8943H22.7153V19.4217H17.2839ZM27.5529 23.9058C27.5529 24.441 27.2773 24.8486 26.8795 25.1751C25.7718 26.0844 23.5014 26.3277 22.1264 26.4308C21.9994 25.3692 21.0956 24.5456 19.9996 24.5456C18.9032 24.5456 17.9991 25.3698 17.8726 26.432C16.4953 26.3292 14.229 26.0859 13.1196 25.175C12.7219 24.8486 12.4463 24.4409 12.4463 23.9059V21.2108C12.4463 20.8988 12.7008 20.6443 13.0127 20.6443H26.9864C27.2984 20.6443 27.5529 20.8988 27.5529 21.2108V23.9058ZM17.9165 27.1888C15.8988 27.0416 14.0913 26.6752 13.1196 26.0895V30.1445C13.1196 30.7525 13.617 31.25 14.2251 31.25H25.774C26.382 31.25 26.8795 30.7525 26.8795 30.1445V26.0896C25.908 26.675 24.1005 27.0414 22.0827 27.1888C21.857 28.13 21.0099 28.8299 19.9996 28.8299C18.9893 28.8299 18.1422 28.13 17.9165 27.1888ZM19.9996 25.2956C19.2282 25.2956 18.6074 25.9213 18.6074 26.6877C18.6074 27.4566 19.2306 28.0799 19.9996 28.0799C20.7685 28.0799 21.3918 27.4566 21.3918 26.6877C21.3918 25.9213 20.7709 25.2956 19.9996 25.2956Z" fill="#F64B60"/>
<path d="M16.647 12.1219C16.6747 11.9498 16.4922 11.822 16.3399 11.9067L14.0659 13.1717C13.9474 13.2376 13.9221 13.3953 14.014 13.4951L15.7773 15.4087C15.8955 15.5369 16.1088 15.4727 16.1364 15.3005L16.2216 14.7698C17.3472 15.2707 18.2173 16.1874 18.6837 17.2891H21.3156C21.782 16.1874 22.6521 15.2706 23.7777 14.7698L23.8629 15.3005C23.8906 15.4727 24.1038 15.5369 24.222 15.4087L25.9853 13.4951C26.0772 13.3954 26.0519 13.2376 25.9334 13.1717L23.6594 11.9067C23.5071 11.822 23.3246 11.9498 23.3522 12.1219L23.4728 12.8726C22.4959 13.2218 21.6361 13.7903 20.9409 14.5103V11.2114H21.6444C21.726 11.2114 21.7962 11.1676 21.8319 11.094C21.8676 11.0204 21.8587 10.9383 21.8081 10.874L20.1984 8.8295C20.1576 8.77756 20.1007 8.75 20.0346 8.75C19.9686 8.75 19.9117 8.77761 19.8708 8.8295L18.2611 10.874C18.1532 11.0111 18.2505 11.2114 18.4249 11.2114H19.0583V14.5103C18.3631 13.7903 17.5033 13.2218 16.5264 12.8726L16.647 12.1219Z" fill="#FA9C9C"/>
</svg>
