<svg width="40" height="40" viewBox="0 0 40 40" fill="none" xmlns="http://www.w3.org/2000/svg">
<rect width="40" height="40" rx="6" fill="#EDEBFD"/>
<g clip-path="url(#clip0_37_6446)">
<path d="M28.7578 28.1489C28.9039 28.0029 29.1421 28.0029 29.2882 28.1489L31.1557 30.0164C31.469 30.3298 31.469 30.8424 31.1557 31.1556C30.8424 31.469 30.3297 31.469 30.0165 31.1556L28.149 29.2881C28.0029 29.1421 28.0029 28.9039 28.149 28.7578L28.7578 28.1489Z" fill="#9CA4F9"/>
<path fill-rule="evenodd" clip-rule="evenodd" d="M24.4225 28.1744C25.1431 28.1744 25.8162 27.9711 26.3878 27.6189C26.575 27.5035 26.8097 27.531 26.9652 27.6865L27.6973 28.4187L28.4187 27.6973L27.6865 26.9652C27.531 26.8097 27.5035 26.5749 27.6189 26.3878C27.9711 25.8163 28.1744 25.1431 28.1744 24.4225C28.1744 22.3503 26.4946 20.6705 24.4224 20.6705C22.3503 20.6705 20.6705 22.3503 20.6705 24.4225C20.6705 26.4946 22.3503 28.1744 24.4225 28.1744ZM22.2311 26.614C23.4415 27.8243 25.4036 27.8243 26.614 26.614C27.8243 25.4037 27.8243 23.4415 26.614 22.2311C25.4036 21.0207 23.4415 21.0207 22.2311 22.2311C21.0207 23.4415 21.0207 25.4036 22.2311 26.614Z" fill="#9CA4F9"/>
<path d="M24.4225 26.9592C23.0215 26.9592 21.8858 25.8236 21.8858 24.4225C21.8858 23.0215 23.0215 21.8858 24.4225 21.8858C25.8236 21.8858 26.9592 23.0215 26.9592 24.4225C26.9592 25.8236 25.8236 26.9592 24.4225 26.9592Z" fill="#9CA4F9"/>
<path d="M11.7052 12.8179C11.219 12.8179 10.8248 13.212 10.8248 13.6982C10.8248 14.1845 11.219 14.5786 11.7052 14.5786C12.1914 14.5786 12.5855 14.1844 12.5855 13.6982C12.5855 13.212 12.1914 12.8179 11.7052 12.8179Z" fill="#9CA4F9"/>
<path d="M16.0971 9.81931C15.6109 9.81931 15.2167 10.2134 15.2167 10.6997C15.2167 11.1859 15.6109 11.58 16.0971 11.58C16.5833 11.58 16.9775 11.1859 16.9775 10.6997C16.9775 10.2135 16.5833 9.81931 16.0971 9.81931Z" fill="#9CA4F9"/>
<path d="M20.489 11.4852C20.0028 11.4852 19.6086 11.8793 19.6086 12.3655C19.6086 12.8517 20.0027 13.2459 20.489 13.2459C20.9752 13.2459 21.3693 12.8517 21.3693 12.3655C21.3693 11.8793 20.9752 11.4852 20.489 11.4852Z" fill="#9CA4F9"/>
<path d="M24.5009 9.67325L21.7859 11.7329C21.7028 11.5629 21.5872 11.4116 21.4472 11.2871L24.1813 9.21303L23.8844 9.16855C23.7309 9.14609 23.6247 9.00345 23.6471 8.84994C23.6696 8.69642 23.8122 8.5902 23.9657 8.61266L24.9215 8.75581C25.075 8.77827 25.1812 8.92091 25.1588 9.07442L25.0156 10.0302C24.9932 10.1837 24.8505 10.2899 24.697 10.2675C24.5435 10.245 24.4373 10.1024 24.4597 9.94887L24.5009 9.67325Z" fill="#9CA4F9"/>
<path d="M15.0866 11.7293L13.0325 13.1318C12.9577 12.9569 12.8494 12.7998 12.7156 12.6685L14.7697 11.2661C14.8445 11.441 14.9528 11.5981 15.0866 11.7293Z" fill="#9CA4F9"/>
<path fill-rule="evenodd" clip-rule="evenodd" d="M8.60938 26.7579C8.60938 26.9132 8.73528 27.0391 8.89062 27.0391L20.9923 27.0391C20.8568 26.8618 20.7346 26.6739 20.6276 26.4766H9.17188V8.89062C9.17188 8.73528 9.04597 8.60938 8.89062 8.60938C8.73528 8.60938 8.60938 8.73528 8.60938 8.89062V26.7579ZM21.4285 15.6534H19.5493C19.2912 15.6534 19.0806 15.8639 19.0806 16.1221V24.8829C19.0806 25.1411 19.2912 25.3516 19.5493 25.3516H20.2087C19.8324 23.6377 20.5264 21.9158 21.8972 20.9244V16.1221C21.8972 15.8639 21.6867 15.6534 21.4285 15.6534ZM10.2969 17.6259C10.2969 17.3677 10.5074 17.1571 10.7656 17.1571L12.6447 17.1571C12.9029 17.1571 13.1135 17.3676 13.1135 17.6258V24.8829C13.1135 25.1411 12.9029 25.3516 12.6447 25.3516H10.7656C10.5074 25.3516 10.2969 25.1411 10.2969 24.8829V17.6259ZM14.6887 14.2425C14.6887 13.9843 14.8993 13.7738 15.1575 13.7738H17.0366C17.2947 13.7738 17.5053 13.9843 17.5053 14.2425V24.8829C17.5053 25.1411 17.2947 25.3516 17.0366 25.3516H15.1575C14.8993 25.3516 14.6887 25.1411 14.6887 24.8829V14.2425ZM25.8203 11.8941H23.9412C23.683 11.8941 23.4725 12.1047 23.4725 12.3629V20.2132C24.4272 19.9985 25.4225 20.1152 26.2891 20.5317V12.3629C26.2891 12.1047 26.0785 11.8941 25.8203 11.8941Z" fill="#4B5CF6"/>
<path d="M19.066 12.1258L17.3208 11.4639C17.4192 11.3068 17.4881 11.1293 17.5199 10.9393L19.265 11.6013C19.1667 11.7584 19.0978 11.9358 19.066 12.1258Z" fill="#9CA4F9"/>
</g>
<defs>
<clipPath id="clip0_37_6446">
<rect width="24" height="24" fill="white" transform="translate(8 8)"/>
</clipPath>
</defs>
</svg>
