<svg width="40" height="40" viewBox="0 0 40 40" fill="none" xmlns="http://www.w3.org/2000/svg">
<rect width="40" height="40" rx="6" fill="#F0FBF3"/>
<g clip-path="url(#clip0_37_6453)">
<path d="M31.2727 26.1963V24.7418L30.0654 24.44C29.9454 23.8982 29.7309 23.3927 29.44 22.9382L30.08 21.8691L29.0509 20.84L27.9818 21.48C27.5273 21.1891 27.0218 20.9782 26.48 20.8545L26.1818 19.6509H24.7273L24.4254 20.8582C23.8836 20.9782 23.3782 21.1927 22.9236 21.4836L21.8545 20.8436L20.8254 21.8727L21.4654 22.9418C21.1745 23.3963 20.9636 23.9018 20.84 24.4436L19.6364 24.7418V26.1963L20.8436 26.4982C20.9636 27.04 21.1782 27.5454 21.4691 28L20.8291 29.0691L21.8582 30.0982L22.9236 29.4545C23.3782 29.7454 23.8836 29.9563 24.4254 30.08L24.7273 31.2872H26.1818L26.4836 30.08C27.0254 29.96 27.5309 29.7454 27.9854 29.4545L29.0545 30.0945L30.0836 29.0654L29.44 28C29.7309 27.5454 29.9418 27.04 30.0654 26.4982L31.2727 26.1963ZM25.4545 28.0145C24.0473 28.0145 22.9091 26.8763 22.9091 25.4691C22.9091 24.0618 24.0473 22.9236 25.4545 22.9236C26.8618 22.9236 28 24.0618 28 25.4691C28 26.8727 26.8582 28.0145 25.4545 28.0145Z" fill="#ACE8BC"/>
<path d="M12.7273 22.5599H15.6364V29.8327H12.7273V22.5599Z" fill="#68D585"/>
<path d="M14.5455 9.10535V13.469H18.9092C18.9092 11.0581 16.9564 9.10535 14.5455 9.10535Z" fill="#ACE8BC"/>
<path d="M13.0909 14.9236V10.5599C10.68 10.5599 8.72729 12.5127 8.72729 14.9236C8.72729 17.3345 10.68 19.2872 13.0909 19.2872C14.2946 19.2872 15.3855 18.7999 16.1746 18.0072C16.9637 17.2181 17.4546 16.1272 17.4546 14.9236H13.0909Z" fill="#ACE8BC"/>
<path d="M22.931 20.7563C23.2182 20.6072 23.5164 20.48 23.8255 20.3854L24.16 19.0436H24.3637V15.4072H21.4546V20.3309L21.7419 20.0436L22.931 20.7563Z" fill="#68D585"/>
<path d="M18.9091 24.1709L20 23.8981V18.9236H17.0909V29.8327H20V29.269L19.9091 29.1818L20 29.029V27.0363L18.9091 26.7636V24.1709Z" fill="#68D585"/>
<path d="M25.8182 18.9236H26.7491L27.0836 20.2654C27.3927 20.3636 27.6909 20.4872 27.9782 20.6363L28.7273 20.1854V12.0145H30.1818L27.2727 8.71631L24.3636 12.0145H25.8182V18.9236Z" fill="#68D585"/>
</g>
<defs>
<clipPath id="clip0_37_6453">
<rect width="24" height="24" fill="white" transform="translate(8 8)"/>
</clipPath>
</defs>
</svg>
