<svg width="430" height="448" viewBox="0 0 430 448" fill="none" xmlns="http://www.w3.org/2000/svg">
<rect width="430" height="448" fill="white"/>
<path d="M50.4609 38.8516H47.5312V37.1641H50.4609C50.9401 37.1641 51.3281 37.0859 51.625 36.9297C51.9271 36.7682 52.1484 36.5495 52.2891 36.2734C52.4297 35.9922 52.5 35.6719 52.5 35.3125C52.5 34.9635 52.4297 34.638 52.2891 34.3359C52.1484 34.0339 51.9271 33.7891 51.625 33.6016C51.3281 33.4141 50.9401 33.3203 50.4609 33.3203H48.2344V43H46.0859V31.625H50.4609C51.3464 31.625 52.1016 31.7839 52.7266 32.1016C53.3568 32.4141 53.8359 32.849 54.1641 33.4062C54.4974 33.9583 54.6641 34.5885 54.6641 35.2969C54.6641 36.0312 54.4974 36.6641 54.1641 37.1953C53.8359 37.7266 53.3568 38.1354 52.7266 38.4219C52.1016 38.7083 51.3464 38.8516 50.4609 38.8516ZM56.3516 31.625H60.4844C61.349 31.625 62.0911 31.7552 62.7109 32.0156C63.3307 32.276 63.8073 32.6615 64.1406 33.1719C64.474 33.6823 64.6406 34.3099 64.6406 35.0547C64.6406 35.6432 64.5365 36.1536 64.3281 36.5859C64.1198 37.0182 63.8255 37.3802 63.4453 37.6719C63.0703 37.9635 62.6276 38.1927 62.1172 38.3594L61.4453 38.7031H57.7969L57.7812 37.0078H60.5078C60.9505 37.0078 61.3177 36.9297 61.6094 36.7734C61.901 36.6172 62.1198 36.401 62.2656 36.125C62.4167 35.849 62.4922 35.5339 62.4922 35.1797C62.4922 34.7995 62.4193 34.4714 62.2734 34.1953C62.1276 33.9141 61.9062 33.6979 61.6094 33.5469C61.3125 33.3958 60.9375 33.3203 60.4844 33.3203H58.5V43H56.3516V31.625ZM62.7734 43L60.1406 37.9062L62.4141 37.8984L65.0781 42.8906V43H62.7734ZM68.8125 31.625V43H66.6641V31.625H68.8125ZM72.0703 31.625H73.9297L77.0391 40.1875L80.1406 31.625H82.0078L77.7812 43H76.2891L72.0703 31.625ZM71.1328 31.625H72.9531L73.2812 39.4922V43H71.1328V31.625ZM81.1172 31.625H82.9453V43H80.7969V39.4922L81.1172 31.625ZM89.7969 33.3516L86.5547 43H84.2812L88.5312 31.625H89.9844L89.7969 33.3516ZM92.5078 43L89.25 33.3516L89.0547 31.625H90.5156L94.7891 43H92.5078ZM92.3594 38.7734V40.4688H86.2578V38.7734H92.3594ZM95.9609 31.625H100.094C100.958 31.625 101.701 31.7552 102.32 32.0156C102.94 32.276 103.417 32.6615 103.75 33.1719C104.083 33.6823 104.25 34.3099 104.25 35.0547C104.25 35.6432 104.146 36.1536 103.938 36.5859C103.729 37.0182 103.435 37.3802 103.055 37.6719C102.68 37.9635 102.237 38.1927 101.727 38.3594L101.055 38.7031H97.4062L97.3906 37.0078H100.117C100.56 37.0078 100.927 36.9297 101.219 36.7734C101.51 36.6172 101.729 36.401 101.875 36.125C102.026 35.849 102.102 35.5339 102.102 35.1797C102.102 34.7995 102.029 34.4714 101.883 34.1953C101.737 33.9141 101.516 33.6979 101.219 33.5469C100.922 33.3958 100.547 33.3203 100.094 33.3203H98.1094V43H95.9609V31.625ZM102.383 43L99.75 37.9062L102.023 37.8984L104.688 42.8906V43H102.383ZM107.086 31.625L109.586 36.9297L112.102 31.625H114.461L110.68 38.8359V43H108.5V38.8359L104.711 31.625H107.086ZM124.078 31.625V43H121.938V31.625H124.078ZM127.609 31.625V33.3203H118.445V31.625H127.609ZM136.578 41.3125V43H130.531V41.3125H136.578ZM131.188 31.625V43H129.039V31.625H131.188ZM135.789 36.3203V37.9688H130.531V36.3203H135.789ZM136.555 31.625V33.3203H130.531V31.625H136.555ZM139.781 31.625L142.055 35.6797L144.336 31.625H146.805L143.43 37.2656L146.891 43H144.398L142.055 38.8672L139.719 43H137.219L140.68 37.2656L137.305 31.625H139.781ZM153.094 31.625V43H150.953V31.625H153.094ZM156.625 31.625V33.3203H147.461V31.625H156.625Z" fill="#828282"/>
<path d="M52.0898 74.7773L48.3398 73.8594L49.8828 59.5625H65.2148V63.5469H53.7891L53.0078 70.5195C53.4505 70.2591 54.0625 70.0052 54.8438 69.7578C55.625 69.4974 56.5169 69.3672 57.5195 69.3672C58.8607 69.3672 60.0586 69.5885 61.1133 70.0312C62.181 70.4609 63.0859 71.0924 63.8281 71.9258C64.5703 72.7461 65.1367 73.7487 65.5273 74.9336C65.918 76.1055 66.1133 77.4271 66.1133 78.8984C66.1133 80.2135 65.918 81.444 65.5273 82.5898C65.1497 83.7357 64.5768 84.7448 63.8086 85.6172C63.0404 86.4896 62.0703 87.1732 60.8984 87.668C59.7396 88.1497 58.3659 88.3906 56.7773 88.3906C55.5924 88.3906 54.4531 88.2214 53.3594 87.8828C52.2786 87.5312 51.3086 87.0169 50.4492 86.3398C49.5898 85.6497 48.8997 84.8034 48.3789 83.8008C47.8581 82.7852 47.5586 81.6198 47.4805 80.3047H52.0898C52.207 81.2292 52.4609 82.0169 52.8516 82.668C53.2552 83.306 53.7891 83.7943 54.4531 84.1328C55.1172 84.4714 55.8854 84.6406 56.7578 84.6406C57.5521 84.6406 58.2357 84.5039 58.8086 84.2305C59.3815 83.944 59.8568 83.5404 60.2344 83.0195C60.625 82.4857 60.9115 81.8607 61.0938 81.1445C61.2891 80.4284 61.3867 79.6341 61.3867 78.7617C61.3867 77.9284 61.276 77.1667 61.0547 76.4766C60.8464 75.7865 60.5273 75.1875 60.0977 74.6797C59.681 74.1719 59.1536 73.7812 58.5156 73.5078C57.8776 73.2214 57.1419 73.0781 56.3086 73.0781C55.1888 73.0781 54.3294 73.2409 53.7305 73.5664C53.1445 73.8919 52.5977 74.2956 52.0898 74.7773ZM68.8516 85.6562C68.8516 84.9271 69.099 84.3151 69.5938 83.8203C70.0885 83.3125 70.7591 83.0586 71.6055 83.0586C72.4648 83.0586 73.1354 83.3125 73.6172 83.8203C74.112 84.3151 74.3594 84.9271 74.3594 85.6562C74.3594 86.3854 74.112 86.9974 73.6172 87.4922C73.1354 87.987 72.4648 88.2344 71.6055 88.2344C70.7591 88.2344 70.0885 87.987 69.5938 87.4922C69.099 86.9974 68.8516 86.3854 68.8516 85.6562ZM81.8047 84.2891H82.1953C83.9922 84.2891 85.4896 84.0547 86.6875 83.5859C87.8984 83.1042 88.862 82.4401 89.5781 81.5938C90.2943 80.7474 90.8086 79.7513 91.1211 78.6055C91.4336 77.4596 91.5898 76.2161 91.5898 74.875V69.9727C91.5898 68.8138 91.4661 67.7982 91.2188 66.9258C90.9844 66.0404 90.6458 65.3047 90.2031 64.7188C89.7734 64.1198 89.2721 63.6706 88.6992 63.3711C88.1393 63.0716 87.5339 62.9219 86.8828 62.9219C86.1667 62.9219 85.5221 63.0846 84.9492 63.4102C84.3893 63.7227 83.9141 64.1589 83.5234 64.7188C83.1458 65.2656 82.8529 65.9102 82.6445 66.6523C82.4492 67.3815 82.3516 68.1628 82.3516 68.9961C82.3516 69.7773 82.4427 70.5326 82.625 71.2617C82.8203 71.9779 83.1068 72.6159 83.4844 73.1758C83.862 73.7357 84.3372 74.1784 84.9102 74.5039C85.4831 74.8294 86.1536 74.9922 86.9219 74.9922C87.651 74.9922 88.3216 74.8555 88.9336 74.582C89.5456 74.2956 90.0794 73.9115 90.5352 73.4297C90.9909 72.9479 91.349 72.4076 91.6094 71.8086C91.8698 71.2096 92.013 70.5977 92.0391 69.9727L93.8359 70.5195C93.8359 71.5091 93.6276 72.4857 93.2109 73.4492C92.8073 74.3997 92.2409 75.2721 91.5117 76.0664C90.7956 76.8477 89.9557 77.4727 88.9922 77.9414C88.0417 78.4102 87.0065 78.6445 85.8867 78.6445C84.5326 78.6445 83.3346 78.3906 82.293 77.8828C81.2643 77.362 80.4049 76.6589 79.7148 75.7734C79.0378 74.888 78.5299 73.8724 78.1914 72.7266C77.8529 71.5807 77.6836 70.3763 77.6836 69.1133C77.6836 67.7461 77.8919 66.4635 78.3086 65.2656C78.7253 64.0677 79.3307 63.013 80.125 62.1016C80.9193 61.1771 81.8828 60.4609 83.0156 59.9531C84.1615 59.4323 85.457 59.1719 86.9023 59.1719C88.4388 59.1719 89.7865 59.4714 90.9453 60.0703C92.1042 60.6693 93.0807 61.4961 93.875 62.5508C94.6693 63.6055 95.2682 64.8294 95.6719 66.2227C96.0755 67.6159 96.2773 69.1133 96.2773 70.7148V72.375C96.2773 74.0547 96.1276 75.6758 95.8281 77.2383C95.5286 78.7878 95.0404 80.2266 94.3633 81.5547C93.6992 82.8698 92.8203 84.0286 91.7266 85.0312C90.6458 86.0208 89.3177 86.7956 87.7422 87.3555C86.1797 87.9023 84.3438 88.1758 82.2344 88.1758H81.8047V84.2891ZM117.844 80.2461C117.844 82.0169 117.434 83.5078 116.613 84.7188C115.793 85.9297 114.673 86.8477 113.254 87.4727C111.848 88.0846 110.259 88.3906 108.488 88.3906C106.717 88.3906 105.122 88.0846 103.703 87.4727C102.284 86.8477 101.164 85.9297 100.344 84.7188C99.5234 83.5078 99.1133 82.0169 99.1133 80.2461C99.1133 79.0742 99.3411 78.013 99.7969 77.0625C100.253 76.099 100.897 75.2721 101.73 74.582C102.577 73.8789 103.566 73.3385 104.699 72.9609C105.845 72.5833 107.095 72.3945 108.449 72.3945C110.246 72.3945 111.854 72.7266 113.273 73.3906C114.693 74.0547 115.806 74.9727 116.613 76.1445C117.434 77.3164 117.844 78.6836 117.844 80.2461ZM113.117 80.0117C113.117 79.0612 112.922 78.2279 112.531 77.5117C112.141 76.7956 111.594 76.2422 110.891 75.8516C110.188 75.4609 109.374 75.2656 108.449 75.2656C107.512 75.2656 106.698 75.4609 106.008 75.8516C105.318 76.2422 104.777 76.7956 104.387 77.5117C104.009 78.2279 103.82 79.0612 103.82 80.0117C103.82 80.9753 104.009 81.8086 104.387 82.5117C104.764 83.2018 105.305 83.7292 106.008 84.0938C106.711 84.4583 107.538 84.6406 108.488 84.6406C109.439 84.6406 110.259 84.4583 110.949 84.0938C111.639 83.7292 112.173 83.2018 112.551 82.5117C112.928 81.8086 113.117 80.9753 113.117 80.0117ZM117.199 67.043C117.199 68.4622 116.822 69.7253 116.066 70.832C115.324 71.9388 114.296 72.8112 112.98 73.4492C111.665 74.0742 110.168 74.3867 108.488 74.3867C106.796 74.3867 105.285 74.0742 103.957 73.4492C102.642 72.8112 101.607 71.9388 100.852 70.832C100.109 69.7253 99.7383 68.4622 99.7383 67.043C99.7383 65.3503 100.109 63.9245 100.852 62.7656C101.607 61.5938 102.642 60.7018 103.957 60.0898C105.272 59.4779 106.776 59.1719 108.469 59.1719C110.161 59.1719 111.665 59.4779 112.98 60.0898C114.296 60.7018 115.324 61.5938 116.066 62.7656C116.822 63.9245 117.199 65.3503 117.199 67.043ZM112.492 67.1992C112.492 66.3529 112.323 65.6107 111.984 64.9727C111.659 64.3216 111.197 63.8138 110.598 63.4492C109.999 63.0846 109.289 62.9023 108.469 62.9023C107.648 62.9023 106.939 63.0781 106.34 63.4297C105.741 63.7812 105.279 64.276 104.953 64.9141C104.628 65.5521 104.465 66.3138 104.465 67.1992C104.465 68.0716 104.628 68.8333 104.953 69.4844C105.279 70.1224 105.741 70.6237 106.34 70.9883C106.952 71.3529 107.668 71.5352 108.488 71.5352C109.309 71.5352 110.018 71.3529 110.617 70.9883C111.216 70.6237 111.678 70.1224 112.004 69.4844C112.329 68.8333 112.492 68.0716 112.492 67.1992ZM139.371 59.5625V62.1406L128.004 88H123.043L134.391 63.3125H119.664V59.5625H139.371ZM146.406 83.4688L146.387 86.8281C146.387 88.1562 146.055 89.5234 145.391 90.9297C144.727 92.3359 143.848 93.4948 142.754 94.4062L140.234 92.9414C140.599 92.3555 140.931 91.763 141.23 91.1641C141.53 90.5651 141.771 89.9271 141.953 89.25C142.135 88.5729 142.227 87.8242 142.227 87.0039V83.4688H146.406ZM154.691 71.6523H157.504C158.598 71.6523 159.503 71.4635 160.219 71.0859C160.948 70.7083 161.488 70.1875 161.84 69.5234C162.191 68.8594 162.367 68.0977 162.367 67.2383C162.367 66.3398 162.204 65.5716 161.879 64.9336C161.566 64.2826 161.085 63.7812 160.434 63.4297C159.796 63.0781 158.982 62.9023 157.992 62.9023C157.159 62.9023 156.404 63.0716 155.727 63.4102C155.062 63.7357 154.535 64.2044 154.145 64.8164C153.754 65.4154 153.559 66.1315 153.559 66.9648H148.832C148.832 65.4544 149.229 64.1133 150.023 62.9414C150.818 61.7695 151.898 60.8516 153.266 60.1875C154.646 59.5104 156.195 59.1719 157.914 59.1719C159.75 59.1719 161.352 59.4779 162.719 60.0898C164.099 60.6888 165.173 61.5872 165.941 62.7852C166.71 63.9831 167.094 65.4674 167.094 67.2383C167.094 68.0456 166.905 68.8659 166.527 69.6992C166.15 70.5326 165.59 71.2943 164.848 71.9844C164.105 72.6615 163.181 73.2148 162.074 73.6445C160.967 74.0612 159.685 74.2695 158.227 74.2695H154.691V71.6523ZM154.691 75.3242V72.7461H158.227C159.893 72.7461 161.312 72.9414 162.484 73.332C163.669 73.7227 164.633 74.263 165.375 74.9531C166.117 75.6302 166.658 76.4049 166.996 77.2773C167.348 78.1497 167.523 79.0742 167.523 80.0508C167.523 81.3789 167.283 82.5638 166.801 83.6055C166.332 84.6341 165.661 85.5065 164.789 86.2227C163.917 86.9388 162.895 87.4792 161.723 87.8438C160.564 88.2083 159.301 88.3906 157.934 88.3906C156.71 88.3906 155.538 88.2214 154.418 87.8828C153.298 87.5443 152.296 87.043 151.41 86.3789C150.525 85.7018 149.822 84.862 149.301 83.8594C148.793 82.8438 148.539 81.6719 148.539 80.3438H153.246C153.246 81.1901 153.441 81.9388 153.832 82.5898C154.236 83.2279 154.796 83.7292 155.512 84.0938C156.241 84.4583 157.074 84.6406 158.012 84.6406C159.001 84.6406 159.854 84.4648 160.57 84.1133C161.286 83.7617 161.833 83.2409 162.211 82.5508C162.602 81.8607 162.797 81.0273 162.797 80.0508C162.797 78.944 162.582 78.0456 162.152 77.3555C161.723 76.6654 161.111 76.1576 160.316 75.832C159.522 75.4935 158.585 75.3242 157.504 75.3242H154.691ZM189.988 77.8633V81.6133H169.48L169.324 78.7812L181.59 59.5625H185.359L181.277 66.5547L174.227 77.8633H189.988ZM186.434 59.5625V88H181.727V59.5625H186.434Z" fill="#0B1354"/>
<path d="M51.46 112.484C51.46 112.252 51.4235 112.047 51.3506 111.869C51.2822 111.687 51.1592 111.523 50.9814 111.377C50.8083 111.231 50.5667 111.092 50.2568 110.96C49.9515 110.828 49.5641 110.693 49.0947 110.557C48.6025 110.411 48.1582 110.249 47.7617 110.071C47.3652 109.889 47.0257 109.682 46.7432 109.449C46.4606 109.217 46.2441 108.95 46.0938 108.649C45.9434 108.349 45.8682 108.005 45.8682 107.617C45.8682 107.23 45.9479 106.872 46.1074 106.544C46.2669 106.216 46.4948 105.931 46.791 105.689C47.0918 105.443 47.4495 105.252 47.8643 105.115C48.279 104.979 48.7415 104.91 49.252 104.91C49.9993 104.91 50.6328 105.054 51.1523 105.341C51.6764 105.623 52.0752 105.995 52.3486 106.455C52.6221 106.911 52.7588 107.398 52.7588 107.918H51.4463C51.4463 107.544 51.3665 107.214 51.207 106.927C51.0475 106.635 50.806 106.407 50.4824 106.243C50.1589 106.075 49.7487 105.99 49.252 105.99C48.7826 105.99 48.3952 106.061 48.0898 106.202C47.7845 106.343 47.5566 106.535 47.4062 106.776C47.2604 107.018 47.1875 107.294 47.1875 107.604C47.1875 107.813 47.2308 108.005 47.3174 108.178C47.4085 108.346 47.5475 108.504 47.7344 108.649C47.9258 108.795 48.1673 108.93 48.459 109.053C48.7552 109.176 49.1084 109.294 49.5186 109.408C50.0837 109.568 50.5713 109.745 50.9814 109.941C51.3916 110.137 51.7288 110.358 51.9932 110.604C52.262 110.846 52.4603 111.122 52.5879 111.432C52.7201 111.737 52.7861 112.083 52.7861 112.471C52.7861 112.876 52.7041 113.243 52.54 113.571C52.376 113.899 52.1413 114.18 51.8359 114.412C51.5306 114.645 51.1637 114.825 50.7354 114.952C50.3115 115.075 49.8376 115.137 49.3135 115.137C48.8532 115.137 48.3997 115.073 47.9531 114.945C47.5111 114.818 47.1077 114.626 46.7432 114.371C46.3831 114.116 46.0938 113.801 45.875 113.428C45.6608 113.049 45.5537 112.612 45.5537 112.115H46.8662C46.8662 112.457 46.9323 112.751 47.0645 112.997C47.1966 113.239 47.3766 113.439 47.6045 113.599C47.8369 113.758 48.099 113.877 48.3906 113.954C48.6868 114.027 48.9945 114.063 49.3135 114.063C49.7738 114.063 50.1634 114 50.4824 113.872C50.8014 113.744 51.043 113.562 51.207 113.325C51.3757 113.088 51.46 112.808 51.46 112.484ZM57.3457 115.137C56.8307 115.137 56.3636 115.05 55.9443 114.877C55.5296 114.699 55.1719 114.451 54.8711 114.132C54.5749 113.813 54.347 113.435 54.1875 112.997C54.028 112.56 53.9482 112.081 53.9482 111.562V111.274C53.9482 110.673 54.0371 110.137 54.2148 109.668C54.3926 109.194 54.6341 108.793 54.9395 108.465C55.2448 108.137 55.5911 107.888 55.9785 107.72C56.3659 107.551 56.7669 107.467 57.1816 107.467C57.7103 107.467 58.166 107.558 58.5488 107.74C58.9362 107.923 59.2529 108.178 59.499 108.506C59.7451 108.829 59.9274 109.212 60.0459 109.654C60.1644 110.092 60.2236 110.57 60.2236 111.09V111.657H54.7002V110.625H58.959V110.529C58.9408 110.201 58.8724 109.882 58.7539 109.572C58.64 109.262 58.4577 109.007 58.207 108.807C57.9564 108.606 57.6146 108.506 57.1816 108.506C56.8945 108.506 56.6302 108.567 56.3887 108.69C56.1471 108.809 55.9398 108.987 55.7666 109.224C55.5934 109.461 55.459 109.75 55.3633 110.092C55.2676 110.434 55.2197 110.828 55.2197 111.274V111.562C55.2197 111.912 55.2676 112.243 55.3633 112.553C55.4635 112.858 55.6071 113.127 55.7939 113.359C55.9854 113.592 56.2155 113.774 56.4844 113.906C56.7578 114.038 57.0677 114.104 57.4141 114.104C57.8607 114.104 58.2389 114.013 58.5488 113.831C58.8587 113.649 59.1299 113.405 59.3623 113.1L60.1279 113.708C59.9684 113.95 59.7656 114.18 59.5195 114.398C59.2734 114.617 58.9704 114.795 58.6104 114.932C58.2549 115.068 57.8333 115.137 57.3457 115.137ZM64.6602 114.098C64.9609 114.098 65.2389 114.036 65.4941 113.913C65.7493 113.79 65.959 113.621 66.123 113.407C66.2871 113.188 66.3805 112.94 66.4033 112.662H67.6064C67.5837 113.1 67.4355 113.507 67.1621 113.886C66.8932 114.259 66.54 114.562 66.1025 114.795C65.665 115.023 65.1842 115.137 64.6602 115.137C64.1042 115.137 63.6188 115.039 63.2041 114.843C62.7939 114.647 62.4521 114.378 62.1787 114.036C61.9098 113.694 61.707 113.302 61.5703 112.86C61.4382 112.414 61.3721 111.942 61.3721 111.445V111.158C61.3721 110.661 61.4382 110.192 61.5703 109.75C61.707 109.303 61.9098 108.909 62.1787 108.567C62.4521 108.226 62.7939 107.957 63.2041 107.761C63.6188 107.565 64.1042 107.467 64.6602 107.467C65.2389 107.467 65.7448 107.585 66.1777 107.822C66.6107 108.055 66.9502 108.374 67.1963 108.779C67.4469 109.18 67.5837 109.636 67.6064 110.146H66.4033C66.3805 109.841 66.2939 109.565 66.1436 109.319C65.9977 109.073 65.7972 108.877 65.542 108.731C65.2913 108.581 64.9974 108.506 64.6602 108.506C64.2728 108.506 63.9469 108.583 63.6826 108.738C63.4229 108.889 63.2155 109.094 63.0605 109.354C62.9102 109.609 62.8008 109.894 62.7324 110.208C62.6686 110.518 62.6367 110.835 62.6367 111.158V111.445C62.6367 111.769 62.6686 112.088 62.7324 112.402C62.7962 112.717 62.9033 113.002 63.0537 113.257C63.2087 113.512 63.416 113.717 63.6758 113.872C63.9401 114.022 64.2682 114.098 64.6602 114.098ZM68.6934 111.384V111.227C68.6934 110.693 68.7708 110.199 68.9258 109.743C69.0807 109.283 69.304 108.884 69.5957 108.547C69.8874 108.205 70.2406 107.941 70.6553 107.754C71.07 107.562 71.5348 107.467 72.0498 107.467C72.5693 107.467 73.0365 107.562 73.4512 107.754C73.8704 107.941 74.2259 108.205 74.5176 108.547C74.8138 108.884 75.0394 109.283 75.1943 109.743C75.3493 110.199 75.4268 110.693 75.4268 111.227V111.384C75.4268 111.917 75.3493 112.411 75.1943 112.867C75.0394 113.323 74.8138 113.722 74.5176 114.063C74.2259 114.401 73.8727 114.665 73.458 114.856C73.0479 115.043 72.583 115.137 72.0635 115.137C71.5439 115.137 71.0768 115.043 70.6621 114.856C70.2474 114.665 69.8919 114.401 69.5957 114.063C69.304 113.722 69.0807 113.323 68.9258 112.867C68.7708 112.411 68.6934 111.917 68.6934 111.384ZM69.958 111.227V111.384C69.958 111.753 70.0013 112.102 70.0879 112.43C70.1745 112.753 70.3044 113.04 70.4775 113.291C70.6553 113.542 70.8763 113.74 71.1406 113.886C71.4049 114.027 71.7126 114.098 72.0635 114.098C72.4098 114.098 72.7129 114.027 72.9727 113.886C73.237 113.74 73.4557 113.542 73.6289 113.291C73.8021 113.04 73.932 112.753 74.0186 112.43C74.1097 112.102 74.1553 111.753 74.1553 111.384V111.227C74.1553 110.862 74.1097 110.518 74.0186 110.194C73.932 109.866 73.7998 109.577 73.6221 109.326C73.4489 109.071 73.2301 108.87 72.9658 108.725C72.7061 108.579 72.4007 108.506 72.0498 108.506C71.7035 108.506 71.3981 108.579 71.1338 108.725C70.874 108.87 70.6553 109.071 70.4775 109.326C70.3044 109.577 70.1745 109.866 70.0879 110.194C70.0013 110.518 69.958 110.862 69.958 111.227ZM78.2773 109.183V115H77.0127V107.604H78.209L78.2773 109.183ZM77.9766 111.021L77.4502 111.001C77.4548 110.495 77.5299 110.028 77.6758 109.6C77.8216 109.167 78.0267 108.791 78.291 108.472C78.5553 108.153 78.8698 107.907 79.2344 107.733C79.6035 107.556 80.0114 107.467 80.458 107.467C80.8226 107.467 81.1507 107.517 81.4424 107.617C81.734 107.713 81.9824 107.868 82.1875 108.082C82.3971 108.296 82.5566 108.574 82.666 108.916C82.7754 109.253 82.8301 109.666 82.8301 110.153V115H81.5586V110.14C81.5586 109.752 81.5016 109.442 81.3877 109.21C81.2738 108.973 81.1074 108.802 80.8887 108.697C80.6699 108.588 80.401 108.533 80.082 108.533C79.7676 108.533 79.4805 108.599 79.2207 108.731C78.9655 108.864 78.7445 109.046 78.5576 109.278C78.3753 109.511 78.2318 109.777 78.127 110.078C78.0267 110.374 77.9766 110.689 77.9766 111.021ZM89.4131 113.564V104.5H90.6846V115H89.5225L89.4131 113.564ZM84.4365 111.384V111.24C84.4365 110.675 84.5049 110.162 84.6416 109.702C84.7829 109.237 84.9811 108.839 85.2363 108.506C85.4961 108.173 85.8037 107.918 86.1592 107.74C86.5192 107.558 86.9202 107.467 87.3623 107.467C87.8271 107.467 88.2327 107.549 88.5791 107.713C88.93 107.872 89.2262 108.107 89.4678 108.417C89.7139 108.722 89.9076 109.091 90.0488 109.524C90.1901 109.957 90.2881 110.447 90.3428 110.994V111.623C90.2926 112.165 90.1947 112.653 90.0488 113.086C89.9076 113.519 89.7139 113.888 89.4678 114.193C89.2262 114.499 88.93 114.733 88.5791 114.897C88.2282 115.057 87.818 115.137 87.3486 115.137C86.9157 115.137 86.5192 115.043 86.1592 114.856C85.8037 114.67 85.4961 114.408 85.2363 114.07C84.9811 113.733 84.7829 113.337 84.6416 112.881C84.5049 112.421 84.4365 111.922 84.4365 111.384ZM85.708 111.24V111.384C85.708 111.753 85.7445 112.099 85.8174 112.423C85.8949 112.746 86.0133 113.031 86.1729 113.277C86.3324 113.523 86.5352 113.717 86.7812 113.858C87.0273 113.995 87.3213 114.063 87.6631 114.063C88.0824 114.063 88.4264 113.975 88.6953 113.797C88.9688 113.619 89.1875 113.384 89.3516 113.093C89.5156 112.801 89.6432 112.484 89.7344 112.143V110.495C89.6797 110.244 89.5999 110.003 89.4951 109.771C89.3949 109.534 89.2627 109.324 89.0986 109.142C88.9391 108.955 88.7409 108.807 88.5039 108.697C88.2715 108.588 87.9958 108.533 87.6768 108.533C87.3304 108.533 87.0319 108.606 86.7812 108.752C86.5352 108.893 86.3324 109.089 86.1729 109.34C86.0133 109.586 85.8949 109.873 85.8174 110.201C85.7445 110.525 85.708 110.871 85.708 111.24ZM97.0146 113.735V109.928C97.0146 109.636 96.9554 109.383 96.8369 109.169C96.723 108.95 96.5498 108.782 96.3174 108.663C96.085 108.545 95.7979 108.485 95.4561 108.485C95.137 108.485 94.8568 108.54 94.6152 108.649C94.3783 108.759 94.1914 108.902 94.0547 109.08C93.9225 109.258 93.8564 109.449 93.8564 109.654H92.5918C92.5918 109.39 92.6602 109.128 92.7969 108.868C92.9336 108.608 93.1296 108.374 93.3848 108.164C93.6445 107.95 93.9544 107.781 94.3145 107.658C94.679 107.531 95.0846 107.467 95.5312 107.467C96.069 107.467 96.543 107.558 96.9531 107.74C97.3678 107.923 97.6914 108.198 97.9238 108.567C98.1608 108.932 98.2793 109.39 98.2793 109.941V113.387C98.2793 113.633 98.2998 113.895 98.3408 114.173C98.3864 114.451 98.4525 114.69 98.5391 114.891V115H97.2197C97.1559 114.854 97.1058 114.66 97.0693 114.419C97.0329 114.173 97.0146 113.945 97.0146 113.735ZM97.2334 110.516L97.2471 111.404H95.9688C95.6087 111.404 95.2874 111.434 95.0049 111.493C94.7223 111.548 94.4854 111.632 94.2939 111.746C94.1025 111.86 93.9567 112.004 93.8564 112.177C93.7562 112.345 93.7061 112.544 93.7061 112.771C93.7061 113.004 93.7585 113.216 93.8633 113.407C93.9681 113.599 94.1253 113.751 94.335 113.865C94.5492 113.975 94.8112 114.029 95.1211 114.029C95.5085 114.029 95.8503 113.947 96.1465 113.783C96.4427 113.619 96.6774 113.419 96.8506 113.182C97.0283 112.945 97.124 112.715 97.1377 112.491L97.6777 113.1C97.6458 113.291 97.5592 113.503 97.418 113.735C97.2767 113.968 97.0876 114.191 96.8506 114.405C96.6182 114.615 96.3402 114.79 96.0166 114.932C95.6976 115.068 95.3376 115.137 94.9365 115.137C94.4352 115.137 93.9954 115.039 93.6172 114.843C93.2435 114.647 92.9518 114.385 92.7422 114.057C92.5371 113.724 92.4346 113.353 92.4346 112.942C92.4346 112.546 92.512 112.197 92.667 111.896C92.8219 111.591 93.0452 111.338 93.3369 111.138C93.6286 110.933 93.9795 110.778 94.3896 110.673C94.7998 110.568 95.2578 110.516 95.7637 110.516H97.2334ZM101.533 108.766V115H100.269V107.604H101.499L101.533 108.766ZM103.844 107.562L103.837 108.738C103.732 108.715 103.632 108.702 103.536 108.697C103.445 108.688 103.34 108.684 103.222 108.684C102.93 108.684 102.673 108.729 102.449 108.82C102.226 108.911 102.037 109.039 101.882 109.203C101.727 109.367 101.604 109.563 101.513 109.791C101.426 110.014 101.369 110.26 101.342 110.529L100.986 110.734C100.986 110.288 101.03 109.868 101.116 109.477C101.207 109.085 101.346 108.738 101.533 108.438C101.72 108.132 101.957 107.895 102.244 107.727C102.536 107.553 102.882 107.467 103.283 107.467C103.374 107.467 103.479 107.478 103.598 107.501C103.716 107.519 103.798 107.54 103.844 107.562ZM107.214 114.234L109.271 107.604H110.625L107.658 116.142C107.59 116.324 107.499 116.52 107.385 116.729C107.275 116.944 107.134 117.146 106.961 117.338C106.788 117.529 106.578 117.684 106.332 117.803C106.09 117.926 105.801 117.987 105.464 117.987C105.364 117.987 105.236 117.974 105.081 117.946C104.926 117.919 104.817 117.896 104.753 117.878L104.746 116.853C104.783 116.857 104.84 116.862 104.917 116.866C104.999 116.875 105.056 116.88 105.088 116.88C105.375 116.88 105.619 116.841 105.819 116.764C106.02 116.691 106.188 116.565 106.325 116.388C106.466 116.215 106.587 115.975 106.688 115.67L107.214 114.234ZM105.703 107.604L107.624 113.346L107.952 114.679L107.043 115.144L104.322 107.604H105.703ZM118.336 107.604V108.574H114.337V107.604H118.336ZM115.69 105.806H116.955V113.168C116.955 113.419 116.994 113.608 117.071 113.735C117.149 113.863 117.249 113.947 117.372 113.988C117.495 114.029 117.627 114.05 117.769 114.05C117.873 114.05 117.983 114.041 118.097 114.022C118.215 114 118.304 113.981 118.363 113.968L118.37 115C118.27 115.032 118.138 115.062 117.974 115.089C117.814 115.121 117.62 115.137 117.393 115.137C117.083 115.137 116.798 115.075 116.538 114.952C116.278 114.829 116.071 114.624 115.916 114.337C115.766 114.045 115.69 113.653 115.69 113.161V105.806ZM122.889 115.137C122.374 115.137 121.907 115.05 121.487 114.877C121.073 114.699 120.715 114.451 120.414 114.132C120.118 113.813 119.89 113.435 119.73 112.997C119.571 112.56 119.491 112.081 119.491 111.562V111.274C119.491 110.673 119.58 110.137 119.758 109.668C119.936 109.194 120.177 108.793 120.482 108.465C120.788 108.137 121.134 107.888 121.521 107.72C121.909 107.551 122.31 107.467 122.725 107.467C123.253 107.467 123.709 107.558 124.092 107.74C124.479 107.923 124.796 108.178 125.042 108.506C125.288 108.829 125.47 109.212 125.589 109.654C125.707 110.092 125.767 110.57 125.767 111.09V111.657H120.243V110.625H124.502V110.529C124.484 110.201 124.415 109.882 124.297 109.572C124.183 109.262 124.001 109.007 123.75 108.807C123.499 108.606 123.158 108.506 122.725 108.506C122.438 108.506 122.173 108.567 121.932 108.69C121.69 108.809 121.483 108.987 121.31 109.224C121.136 109.461 121.002 109.75 120.906 110.092C120.811 110.434 120.763 110.828 120.763 111.274V111.562C120.763 111.912 120.811 112.243 120.906 112.553C121.007 112.858 121.15 113.127 121.337 113.359C121.528 113.592 121.758 113.774 122.027 113.906C122.301 114.038 122.611 114.104 122.957 114.104C123.404 114.104 123.782 114.013 124.092 113.831C124.402 113.649 124.673 113.405 124.905 113.1L125.671 113.708C125.511 113.95 125.309 114.18 125.062 114.398C124.816 114.617 124.513 114.795 124.153 114.932C123.798 115.068 123.376 115.137 122.889 115.137ZM128.098 107.604L129.718 110.297L131.358 107.604H132.842L130.422 111.254L132.917 115H131.454L129.745 112.225L128.036 115H126.566L129.055 111.254L126.642 107.604H128.098ZM137.285 107.604V108.574H133.286V107.604H137.285ZM134.64 105.806H135.904V113.168C135.904 113.419 135.943 113.608 136.021 113.735C136.098 113.863 136.198 113.947 136.321 113.988C136.444 114.029 136.576 114.05 136.718 114.05C136.823 114.05 136.932 114.041 137.046 114.022C137.164 114 137.253 113.981 137.312 113.968L137.319 115C137.219 115.032 137.087 115.062 136.923 115.089C136.763 115.121 136.57 115.137 136.342 115.137C136.032 115.137 135.747 115.075 135.487 114.952C135.228 114.829 135.02 114.624 134.865 114.337C134.715 114.045 134.64 113.653 134.64 113.161V105.806Z" fill="#4F4F4F"/>
<rect x="72.5" y="174.5" width="320" height="166" stroke="#ECECEC"/>
<path d="M72 229H393" stroke="#ECECEC"/>
<path d="M72 202H393" stroke="#ECECEC"/>
<path d="M72 256H393" stroke="#ECECEC"/>
<path d="M72 283H393" stroke="#ECECEC"/>
<path d="M72 310H393" stroke="#ECECEC"/>
<path d="M126 174L126 341" stroke="#ECECEC"/>
<path d="M179 174L179 341" stroke="#ECECEC"/>
<path d="M232 174L232 341" stroke="#ECECEC"/>
<path d="M285 174L285 341" stroke="#ECECEC"/>
<path d="M338 174L338 341" stroke="#ECECEC"/>
<path d="M35.5728 336.168V337.105H31.7546V336.168H35.5728ZM40.3935 332.273V341H39.3366V333.381H39.2855L37.1548 334.795V333.722L39.3366 332.273H40.3935ZM45.75 341.119C45.108 341.119 44.5611 340.945 44.1094 340.595C43.6577 340.243 43.3125 339.733 43.0739 339.065C42.8352 338.395 42.7159 337.585 42.7159 336.636C42.7159 335.693 42.8352 334.888 43.0739 334.22C43.3153 333.55 43.6619 333.038 44.1136 332.686C44.5682 332.331 45.1136 332.153 45.75 332.153C46.3864 332.153 46.9304 332.331 47.3821 332.686C47.8366 333.038 48.1832 333.55 48.4219 334.22C48.6634 334.888 48.7841 335.693 48.7841 336.636C48.7841 337.585 48.6648 338.395 48.4261 339.065C48.1875 339.733 47.8423 340.243 47.3906 340.595C46.9389 340.945 46.392 341.119 45.75 341.119ZM45.75 340.182C46.3864 340.182 46.8807 339.875 47.233 339.261C47.5852 338.648 47.7614 337.773 47.7614 336.636C47.7614 335.881 47.6804 335.237 47.5185 334.706C47.3594 334.175 47.1293 333.77 46.8281 333.491C46.5298 333.213 46.1705 333.074 45.75 333.074C45.1193 333.074 44.6264 333.385 44.2713 334.007C43.9162 334.626 43.7386 335.503 43.7386 336.636C43.7386 337.392 43.8182 338.034 43.9773 338.562C44.1364 339.091 44.3651 339.493 44.6634 339.768C44.9645 340.044 45.3267 340.182 45.75 340.182ZM53.25 341.119C52.608 341.119 52.0611 340.945 51.6094 340.595C51.1577 340.243 50.8125 339.733 50.5739 339.065C50.3352 338.395 50.2159 337.585 50.2159 336.636C50.2159 335.693 50.3352 334.888 50.5739 334.22C50.8153 333.55 51.1619 333.038 51.6136 332.686C52.0682 332.331 52.6136 332.153 53.25 332.153C53.8864 332.153 54.4304 332.331 54.8821 332.686C55.3366 333.038 55.6832 333.55 55.9219 334.22C56.1634 334.888 56.2841 335.693 56.2841 336.636C56.2841 337.585 56.1648 338.395 55.9261 339.065C55.6875 339.733 55.3423 340.243 54.8906 340.595C54.4389 340.945 53.892 341.119 53.25 341.119ZM53.25 340.182C53.8864 340.182 54.3807 339.875 54.733 339.261C55.0852 338.648 55.2614 337.773 55.2614 336.636C55.2614 335.881 55.1804 335.237 55.0185 334.706C54.8594 334.175 54.6293 333.77 54.3281 333.491C54.0298 333.213 53.6705 333.074 53.25 333.074C52.6193 333.074 52.1264 333.385 51.7713 334.007C51.4162 334.626 51.2386 335.503 51.2386 336.636C51.2386 337.392 51.3182 338.034 51.4773 338.562C51.6364 339.091 51.8651 339.493 52.1634 339.768C52.4645 340.044 52.8267 340.182 53.25 340.182Z" fill="#4F4F4F"/>
<path d="M41.1626 305.168V306.105H37.3445V305.168H41.1626ZM45.8129 310.119C45.4549 310.114 45.0969 310.045 44.739 309.915C44.381 309.784 44.0543 309.564 43.7589 309.254C43.4634 308.942 43.2262 308.52 43.0472 307.989C42.8683 307.455 42.7788 306.784 42.7788 305.977C42.7788 305.205 42.8512 304.52 42.9961 303.923C43.141 303.324 43.3512 302.82 43.6268 302.411C43.9023 301.999 44.2347 301.686 44.6239 301.473C45.016 301.26 45.4577 301.153 45.9492 301.153C46.4379 301.153 46.8725 301.251 47.2532 301.447C47.6367 301.641 47.9492 301.911 48.1907 302.257C48.4322 302.604 48.5884 303.003 48.6594 303.455H47.6197C47.5231 303.062 47.3356 302.737 47.0572 302.479C46.7788 302.22 46.4094 302.091 45.9492 302.091C45.2731 302.091 44.7404 302.385 44.3512 302.973C43.9648 303.561 43.7702 304.386 43.7674 305.449H43.8356C43.9947 305.207 44.1836 305.001 44.4023 304.831C44.6239 304.658 44.8683 304.524 45.1353 304.43C45.4023 304.337 45.685 304.29 45.9833 304.29C46.4833 304.29 46.9407 304.415 47.3555 304.665C47.7702 304.912 48.1026 305.254 48.3526 305.692C48.6026 306.126 48.7276 306.625 48.7276 307.188C48.7276 307.727 48.6069 308.222 48.3654 308.67C48.1239 309.116 47.7844 309.472 47.3469 309.736C46.9123 309.997 46.4009 310.125 45.8129 310.119ZM45.8129 309.182C46.1708 309.182 46.4918 309.092 46.7759 308.913C47.0629 308.734 47.2887 308.494 47.4535 308.193C47.6211 307.892 47.7049 307.557 47.7049 307.188C47.7049 306.827 47.6239 306.499 47.462 306.203C47.3029 305.905 47.0827 305.668 46.8015 305.491C46.5231 305.315 46.2049 305.227 45.8469 305.227C45.5771 305.227 45.3256 305.281 45.0927 305.389C44.8597 305.494 44.6552 305.639 44.479 305.824C44.3058 306.009 44.1694 306.22 44.07 306.459C43.9705 306.695 43.9208 306.943 43.9208 307.205C43.9208 307.551 44.0018 307.875 44.1637 308.176C44.3285 308.477 44.5529 308.72 44.837 308.905C45.1239 309.089 45.4492 309.182 45.8129 309.182ZM53.25 310.119C52.608 310.119 52.0611 309.945 51.6094 309.595C51.1577 309.243 50.8125 308.733 50.5739 308.065C50.3352 307.395 50.2159 306.585 50.2159 305.636C50.2159 304.693 50.3352 303.888 50.5739 303.22C50.8153 302.55 51.1619 302.038 51.6136 301.686C52.0682 301.331 52.6136 301.153 53.25 301.153C53.8864 301.153 54.4304 301.331 54.8821 301.686C55.3366 302.038 55.6832 302.55 55.9219 303.22C56.1634 303.888 56.2841 304.693 56.2841 305.636C56.2841 306.585 56.1648 307.395 55.9261 308.065C55.6875 308.733 55.3423 309.243 54.8906 309.595C54.4389 309.945 53.892 310.119 53.25 310.119ZM53.25 309.182C53.8864 309.182 54.3807 308.875 54.733 308.261C55.0852 307.648 55.2614 306.773 55.2614 305.636C55.2614 304.881 55.1804 304.237 55.0185 303.706C54.8594 303.175 54.6293 302.77 54.3281 302.491C54.0298 302.213 53.6705 302.074 53.25 302.074C52.6193 302.074 52.1264 302.385 51.7713 303.007C51.4162 303.626 51.2386 304.503 51.2386 305.636C51.2386 306.392 51.3182 307.034 51.4773 307.562C51.6364 308.091 51.8651 308.493 52.1634 308.768C52.4645 309.044 52.8267 309.182 53.25 309.182Z" fill="#4F4F4F"/>
<path d="M41.7955 278.168V279.105H37.9773V278.168H41.7955ZM43.1378 283V282.233L46.0185 279.08C46.3565 278.71 46.6349 278.389 46.8537 278.116C47.0724 277.841 47.2344 277.582 47.3395 277.341C47.4474 277.097 47.5014 276.841 47.5014 276.574C47.5014 276.267 47.4276 276.001 47.2798 275.777C47.1349 275.553 46.9361 275.379 46.6832 275.257C46.4304 275.135 46.1463 275.074 45.831 275.074C45.4957 275.074 45.2031 275.143 44.9531 275.283C44.706 275.419 44.5142 275.611 44.3778 275.858C44.2443 276.105 44.1776 276.395 44.1776 276.727H43.1719C43.1719 276.216 43.2898 275.767 43.5256 275.381C43.7614 274.994 44.0824 274.693 44.4886 274.477C44.8977 274.261 45.3565 274.153 45.8651 274.153C46.3764 274.153 46.8295 274.261 47.2244 274.477C47.6193 274.693 47.929 274.984 48.1534 275.351C48.3778 275.717 48.4901 276.125 48.4901 276.574C48.4901 276.895 48.4318 277.209 48.3153 277.516C48.2017 277.82 48.0028 278.159 47.7188 278.534C47.4375 278.906 47.0469 279.361 46.5469 279.898L44.5866 281.994V282.062H48.6435V283H43.1378ZM53.25 283.119C52.608 283.119 52.0611 282.945 51.6094 282.595C51.1577 282.243 50.8125 281.733 50.5739 281.065C50.3352 280.395 50.2159 279.585 50.2159 278.636C50.2159 277.693 50.3352 276.888 50.5739 276.22C50.8153 275.55 51.1619 275.038 51.6136 274.686C52.0682 274.331 52.6136 274.153 53.25 274.153C53.8864 274.153 54.4304 274.331 54.8821 274.686C55.3366 275.038 55.6832 275.55 55.9219 276.22C56.1634 276.888 56.2841 277.693 56.2841 278.636C56.2841 279.585 56.1648 280.395 55.9261 281.065C55.6875 281.733 55.3423 282.243 54.8906 282.595C54.4389 282.945 53.892 283.119 53.25 283.119ZM53.25 282.182C53.8864 282.182 54.3807 281.875 54.733 281.261C55.0852 280.648 55.2614 279.773 55.2614 278.636C55.2614 277.881 55.1804 277.237 55.0185 276.706C54.8594 276.175 54.6293 275.77 54.3281 275.491C54.0298 275.213 53.6705 275.074 53.25 275.074C52.6193 275.074 52.1264 275.385 51.7713 276.007C51.4162 276.626 51.2386 277.503 51.2386 278.636C51.2386 279.392 51.3182 280.034 51.4773 280.562C51.6364 281.091 51.8651 281.493 52.1634 281.768C52.4645 282.044 52.8267 282.182 53.25 282.182Z" fill="#4F4F4F"/>
<path d="M53.25 257.119C52.608 257.119 52.0611 256.945 51.6094 256.595C51.1577 256.243 50.8125 255.733 50.5739 255.065C50.3352 254.395 50.2159 253.585 50.2159 252.636C50.2159 251.693 50.3352 250.888 50.5739 250.22C50.8153 249.55 51.1619 249.038 51.6136 248.686C52.0682 248.331 52.6136 248.153 53.25 248.153C53.8864 248.153 54.4304 248.331 54.8821 248.686C55.3366 249.038 55.6832 249.55 55.9219 250.22C56.1634 250.888 56.2841 251.693 56.2841 252.636C56.2841 253.585 56.1648 254.395 55.9261 255.065C55.6875 255.733 55.3423 256.243 54.8906 256.595C54.4389 256.945 53.892 257.119 53.25 257.119ZM53.25 256.182C53.8864 256.182 54.3807 255.875 54.733 255.261C55.0852 254.648 55.2614 253.773 55.2614 252.636C55.2614 251.881 55.1804 251.237 55.0185 250.706C54.8594 250.175 54.6293 249.77 54.3281 249.491C54.0298 249.213 53.6705 249.074 53.25 249.074C52.6193 249.074 52.1264 249.385 51.7713 250.007C51.4162 250.626 51.2386 251.503 51.2386 252.636C51.2386 253.392 51.3182 254.034 51.4773 254.562C51.6364 255.091 51.8651 255.493 52.1634 255.768C52.4645 256.044 52.8267 256.182 53.25 256.182Z" fill="#4F4F4F"/>
<path d="M43.1378 229V228.233L46.0185 225.08C46.3565 224.71 46.6349 224.389 46.8537 224.116C47.0724 223.841 47.2344 223.582 47.3395 223.341C47.4474 223.097 47.5014 222.841 47.5014 222.574C47.5014 222.267 47.4276 222.001 47.2798 221.777C47.1349 221.553 46.9361 221.379 46.6832 221.257C46.4304 221.135 46.1463 221.074 45.831 221.074C45.4957 221.074 45.2031 221.143 44.9531 221.283C44.706 221.419 44.5142 221.611 44.3778 221.858C44.2443 222.105 44.1776 222.395 44.1776 222.727H43.1719C43.1719 222.216 43.2898 221.767 43.5256 221.381C43.7614 220.994 44.0824 220.693 44.4886 220.477C44.8977 220.261 45.3565 220.153 45.8651 220.153C46.3764 220.153 46.8295 220.261 47.2244 220.477C47.6193 220.693 47.929 220.984 48.1534 221.351C48.3778 221.717 48.4901 222.125 48.4901 222.574C48.4901 222.895 48.4318 223.209 48.3153 223.516C48.2017 223.82 48.0028 224.159 47.7188 224.534C47.4375 224.906 47.0469 225.361 46.5469 225.898L44.5866 227.994V228.062H48.6435V229H43.1378ZM53.25 229.119C52.608 229.119 52.0611 228.945 51.6094 228.595C51.1577 228.243 50.8125 227.733 50.5739 227.065C50.3352 226.395 50.2159 225.585 50.2159 224.636C50.2159 223.693 50.3352 222.888 50.5739 222.22C50.8153 221.55 51.1619 221.038 51.6136 220.686C52.0682 220.331 52.6136 220.153 53.25 220.153C53.8864 220.153 54.4304 220.331 54.8821 220.686C55.3366 221.038 55.6832 221.55 55.9219 222.22C56.1634 222.888 56.2841 223.693 56.2841 224.636C56.2841 225.585 56.1648 226.395 55.9261 227.065C55.6875 227.733 55.3423 228.243 54.8906 228.595C54.4389 228.945 53.892 229.119 53.25 229.119ZM53.25 228.182C53.8864 228.182 54.3807 227.875 54.733 227.261C55.0852 226.648 55.2614 225.773 55.2614 224.636C55.2614 223.881 55.1804 223.237 55.0185 222.706C54.8594 222.175 54.6293 221.77 54.3281 221.491C54.0298 221.213 53.6705 221.074 53.25 221.074C52.6193 221.074 52.1264 221.385 51.7713 222.007C51.4162 222.626 51.2386 223.503 51.2386 224.636C51.2386 225.392 51.3182 226.034 51.4773 226.562C51.6364 227.091 51.8651 227.493 52.1634 227.768C52.4645 228.044 52.8267 228.182 53.25 228.182Z" fill="#4F4F4F"/>
<path d="M45.8129 202.119C45.4549 202.114 45.0969 202.045 44.739 201.915C44.381 201.784 44.0543 201.564 43.7589 201.254C43.4634 200.942 43.2262 200.52 43.0472 199.989C42.8683 199.455 42.7788 198.784 42.7788 197.977C42.7788 197.205 42.8512 196.52 42.9961 195.923C43.141 195.324 43.3512 194.82 43.6268 194.411C43.9023 193.999 44.2347 193.686 44.6239 193.473C45.016 193.26 45.4577 193.153 45.9492 193.153C46.4379 193.153 46.8725 193.251 47.2532 193.447C47.6367 193.641 47.9492 193.911 48.1907 194.257C48.4322 194.604 48.5884 195.003 48.6594 195.455H47.6197C47.5231 195.062 47.3356 194.737 47.0572 194.479C46.7788 194.22 46.4094 194.091 45.9492 194.091C45.2731 194.091 44.7404 194.385 44.3512 194.973C43.9648 195.561 43.7702 196.386 43.7674 197.449H43.8356C43.9947 197.207 44.1836 197.001 44.4023 196.831C44.6239 196.658 44.8683 196.524 45.1353 196.43C45.4023 196.337 45.685 196.29 45.9833 196.29C46.4833 196.29 46.9407 196.415 47.3555 196.665C47.7702 196.912 48.1026 197.254 48.3526 197.692C48.6026 198.126 48.7276 198.625 48.7276 199.188C48.7276 199.727 48.6069 200.222 48.3654 200.67C48.1239 201.116 47.7844 201.472 47.3469 201.736C46.9123 201.997 46.4009 202.125 45.8129 202.119ZM45.8129 201.182C46.1708 201.182 46.4918 201.092 46.7759 200.913C47.0629 200.734 47.2887 200.494 47.4535 200.193C47.6211 199.892 47.7049 199.557 47.7049 199.188C47.7049 198.827 47.6239 198.499 47.462 198.203C47.3029 197.905 47.0827 197.668 46.8015 197.491C46.5231 197.315 46.2049 197.227 45.8469 197.227C45.5771 197.227 45.3256 197.281 45.0927 197.389C44.8597 197.494 44.6552 197.639 44.479 197.824C44.3058 198.009 44.1694 198.22 44.07 198.459C43.9705 198.695 43.9208 198.943 43.9208 199.205C43.9208 199.551 44.0018 199.875 44.1637 200.176C44.3285 200.477 44.5529 200.72 44.837 200.905C45.1239 201.089 45.4492 201.182 45.8129 201.182ZM53.25 202.119C52.608 202.119 52.0611 201.945 51.6094 201.595C51.1577 201.243 50.8125 200.733 50.5739 200.065C50.3352 199.395 50.2159 198.585 50.2159 197.636C50.2159 196.693 50.3352 195.888 50.5739 195.22C50.8153 194.55 51.1619 194.038 51.6136 193.686C52.0682 193.331 52.6136 193.153 53.25 193.153C53.8864 193.153 54.4304 193.331 54.8821 193.686C55.3366 194.038 55.6832 194.55 55.9219 195.22C56.1634 195.888 56.2841 196.693 56.2841 197.636C56.2841 198.585 56.1648 199.395 55.9261 200.065C55.6875 200.733 55.3423 201.243 54.8906 201.595C54.4389 201.945 53.892 202.119 53.25 202.119ZM53.25 201.182C53.8864 201.182 54.3807 200.875 54.733 200.261C55.0852 199.648 55.2614 198.773 55.2614 197.636C55.2614 196.881 55.1804 196.237 55.0185 195.706C54.8594 195.175 54.6293 194.77 54.3281 194.491C54.0298 194.213 53.6705 194.074 53.25 194.074C52.6193 194.074 52.1264 194.385 51.7713 195.007C51.4162 195.626 51.2386 196.503 51.2386 197.636C51.2386 198.392 51.3182 199.034 51.4773 199.562C51.6364 200.091 51.8651 200.493 52.1634 200.768C52.4645 201.044 52.8267 201.182 53.25 201.182Z" fill="#4F4F4F"/>
<path d="M40.3935 166.273V175H39.3366V167.381H39.2855L37.1548 168.795V167.722L39.3366 166.273H40.3935ZM45.75 175.119C45.108 175.119 44.5611 174.945 44.1094 174.595C43.6577 174.243 43.3125 173.733 43.0739 173.065C42.8352 172.395 42.7159 171.585 42.7159 170.636C42.7159 169.693 42.8352 168.888 43.0739 168.22C43.3153 167.55 43.6619 167.038 44.1136 166.686C44.5682 166.331 45.1136 166.153 45.75 166.153C46.3864 166.153 46.9304 166.331 47.3821 166.686C47.8366 167.038 48.1832 167.55 48.4219 168.22C48.6634 168.888 48.7841 169.693 48.7841 170.636C48.7841 171.585 48.6648 172.395 48.4261 173.065C48.1875 173.733 47.8423 174.243 47.3906 174.595C46.9389 174.945 46.392 175.119 45.75 175.119ZM45.75 174.182C46.3864 174.182 46.8807 173.875 47.233 173.261C47.5852 172.648 47.7614 171.773 47.7614 170.636C47.7614 169.881 47.6804 169.237 47.5185 168.706C47.3594 168.175 47.1293 167.77 46.8281 167.491C46.5298 167.213 46.1705 167.074 45.75 167.074C45.1193 167.074 44.6264 167.385 44.2713 168.007C43.9162 168.626 43.7386 169.503 43.7386 170.636C43.7386 171.392 43.8182 172.034 43.9773 172.562C44.1364 173.091 44.3651 173.493 44.6634 173.768C44.9645 174.044 45.3267 174.182 45.75 174.182ZM53.25 175.119C52.608 175.119 52.0611 174.945 51.6094 174.595C51.1577 174.243 50.8125 173.733 50.5739 173.065C50.3352 172.395 50.2159 171.585 50.2159 170.636C50.2159 169.693 50.3352 168.888 50.5739 168.22C50.8153 167.55 51.1619 167.038 51.6136 166.686C52.0682 166.331 52.6136 166.153 53.25 166.153C53.8864 166.153 54.4304 166.331 54.8821 166.686C55.3366 167.038 55.6832 167.55 55.9219 168.22C56.1634 168.888 56.2841 169.693 56.2841 170.636C56.2841 171.585 56.1648 172.395 55.9261 173.065C55.6875 173.733 55.3423 174.243 54.8906 174.595C54.4389 174.945 53.892 175.119 53.25 175.119ZM53.25 174.182C53.8864 174.182 54.3807 173.875 54.733 173.261C55.0852 172.648 55.2614 171.773 55.2614 170.636C55.2614 169.881 55.1804 169.237 55.0185 168.706C54.8594 168.175 54.6293 167.77 54.3281 167.491C54.0298 167.213 53.6705 167.074 53.25 167.074C52.6193 167.074 52.1264 167.385 51.7713 168.007C51.4162 168.626 51.2386 169.503 51.2386 170.636C51.2386 171.392 51.3182 172.034 51.4773 172.562C51.6364 173.091 51.8651 173.493 52.1634 173.768C52.4645 174.044 52.8267 174.182 53.25 174.182Z" fill="#4F4F4F"/>
<path d="M0 145H430" stroke="#ECECEC" stroke-width="2"/>
<path d="M103.057 412V403.273H106.006C106.69 403.273 107.25 403.396 107.685 403.643C108.122 403.888 108.446 404.219 108.656 404.636C108.866 405.054 108.972 405.52 108.972 406.034C108.972 406.548 108.866 407.016 108.656 407.436C108.449 407.857 108.128 408.192 107.693 408.442C107.259 408.689 106.702 408.812 106.023 408.812H103.909V407.875H105.989C106.457 407.875 106.834 407.794 107.118 407.632C107.402 407.47 107.608 407.251 107.736 406.976C107.866 406.697 107.932 406.384 107.932 406.034C107.932 405.685 107.866 405.372 107.736 405.097C107.608 404.821 107.401 404.605 107.114 404.449C106.827 404.29 106.446 404.21 105.972 404.21H104.114V412H103.057ZM110.538 412V405.455H111.509V406.443H111.577C111.697 406.119 111.913 405.857 112.225 405.655C112.538 405.453 112.89 405.352 113.282 405.352C113.356 405.352 113.448 405.354 113.559 405.357C113.67 405.359 113.754 405.364 113.81 405.369V406.392C113.776 406.384 113.698 406.371 113.576 406.354C113.457 406.334 113.33 406.324 113.197 406.324C112.879 406.324 112.594 406.391 112.344 406.524C112.097 406.655 111.901 406.837 111.756 407.07C111.614 407.3 111.543 407.562 111.543 407.858V412H110.538ZM117.462 412.136C116.871 412.136 116.353 411.996 115.907 411.714C115.464 411.433 115.117 411.04 114.867 410.534C114.62 410.028 114.496 409.437 114.496 408.761C114.496 408.08 114.62 407.484 114.867 406.976C115.117 406.467 115.464 406.072 115.907 405.791C116.353 405.51 116.871 405.369 117.462 405.369C118.053 405.369 118.57 405.51 119.013 405.791C119.46 406.072 119.806 406.467 120.053 406.976C120.303 407.484 120.428 408.08 120.428 408.761C120.428 409.437 120.303 410.028 120.053 410.534C119.806 411.04 119.46 411.433 119.013 411.714C118.57 411.996 118.053 412.136 117.462 412.136ZM117.462 411.233C117.911 411.233 118.281 411.118 118.57 410.888C118.86 410.658 119.075 410.355 119.214 409.98C119.353 409.605 119.423 409.199 119.423 408.761C119.423 408.324 119.353 407.916 119.214 407.538C119.075 407.161 118.86 406.855 118.57 406.622C118.281 406.389 117.911 406.273 117.462 406.273C117.013 406.273 116.644 406.389 116.354 406.622C116.065 406.855 115.85 407.161 115.711 407.538C115.572 407.916 115.502 408.324 115.502 408.761C115.502 409.199 115.572 409.605 115.711 409.98C115.85 410.355 116.065 410.658 116.354 410.888C116.644 411.118 117.013 411.233 117.462 411.233ZM124.435 412.136C123.89 412.136 123.408 411.999 122.99 411.723C122.573 411.445 122.246 411.053 122.01 410.547C121.775 410.038 121.657 409.438 121.657 408.744C121.657 408.057 121.775 407.46 122.01 406.955C122.246 406.449 122.574 406.058 122.995 405.783C123.415 405.507 123.901 405.369 124.452 405.369C124.878 405.369 125.215 405.44 125.462 405.582C125.712 405.722 125.902 405.881 126.033 406.06C126.167 406.236 126.27 406.381 126.344 406.494H126.429V403.273H127.435V412H126.463V410.994H126.344C126.27 411.114 126.165 411.264 126.029 411.446C125.892 411.625 125.698 411.786 125.445 411.928C125.192 412.067 124.855 412.136 124.435 412.136ZM124.571 411.233C124.975 411.233 125.316 411.128 125.594 410.918C125.873 410.705 126.084 410.411 126.229 410.036C126.374 409.658 126.446 409.222 126.446 408.727C126.446 408.239 126.375 407.811 126.233 407.445C126.091 407.075 125.881 406.788 125.603 406.584C125.324 406.376 124.98 406.273 124.571 406.273C124.145 406.273 123.79 406.382 123.506 406.601C123.225 406.817 123.013 407.111 122.871 407.483C122.732 407.852 122.662 408.267 122.662 408.727C122.662 409.193 122.733 409.616 122.875 409.997C123.02 410.375 123.233 410.676 123.515 410.901C123.799 411.122 124.151 411.233 124.571 411.233ZM133.542 409.324V405.455H134.547V412H133.542V410.892H133.473C133.32 411.224 133.081 411.507 132.757 411.74C132.434 411.97 132.025 412.085 131.53 412.085C131.121 412.085 130.757 411.996 130.439 411.817C130.121 411.635 129.871 411.362 129.689 410.999C129.507 410.632 129.417 410.17 129.417 409.614V405.455H130.422V409.545C130.422 410.023 130.556 410.403 130.823 410.688C131.093 410.972 131.436 411.114 131.854 411.114C132.104 411.114 132.358 411.05 132.617 410.922C132.878 410.794 133.097 410.598 133.273 410.334C133.452 410.07 133.542 409.733 133.542 409.324ZM139.048 412.136C138.435 412.136 137.906 411.991 137.463 411.702C137.02 411.412 136.679 411.013 136.44 410.504C136.202 409.996 136.082 409.415 136.082 408.761C136.082 408.097 136.205 407.51 136.449 407.001C136.696 406.49 137.04 406.091 137.48 405.804C137.923 405.514 138.44 405.369 139.031 405.369C139.491 405.369 139.906 405.455 140.276 405.625C140.645 405.795 140.947 406.034 141.183 406.341C141.419 406.648 141.565 407.006 141.622 407.415H140.616C140.54 407.116 140.369 406.852 140.105 406.622C139.844 406.389 139.491 406.273 139.048 406.273C138.656 406.273 138.313 406.375 138.017 406.58C137.724 406.781 137.496 407.067 137.331 407.436C137.169 407.803 137.088 408.233 137.088 408.727C137.088 409.233 137.168 409.673 137.327 410.048C137.489 410.423 137.716 410.714 138.009 410.922C138.304 411.129 138.651 411.233 139.048 411.233C139.31 411.233 139.547 411.188 139.76 411.097C139.973 411.006 140.153 410.875 140.301 410.705C140.449 410.534 140.554 410.33 140.616 410.091H141.622C141.565 410.477 141.425 410.825 141.2 411.135C140.979 411.442 140.685 411.686 140.318 411.868C139.955 412.047 139.531 412.136 139.048 412.136ZM145.939 405.455V406.307H142.547V405.455H145.939ZM143.536 403.886H144.541V410.125C144.541 410.409 144.582 410.622 144.665 410.764C144.75 410.903 144.858 410.997 144.989 411.045C145.122 411.091 145.263 411.114 145.411 411.114C145.521 411.114 145.612 411.108 145.683 411.097C145.754 411.082 145.811 411.071 145.854 411.062L146.058 411.966C145.99 411.991 145.895 412.017 145.773 412.043C145.651 412.071 145.496 412.085 145.308 412.085C145.024 412.085 144.746 412.024 144.473 411.902C144.203 411.78 143.979 411.594 143.8 411.344C143.624 411.094 143.536 410.778 143.536 410.398V403.886ZM153.878 403.273V412H152.821V404.381H152.77L150.639 405.795V404.722L152.821 403.273H153.878Z" fill="#4F4F4F"/>
<rect x="72" y="404" width="21" height="8" fill="#105180"/>
<path d="M210.057 412V403.273H213.006C213.69 403.273 214.25 403.396 214.685 403.643C215.122 403.888 215.446 404.219 215.656 404.636C215.866 405.054 215.972 405.52 215.972 406.034C215.972 406.548 215.866 407.016 215.656 407.436C215.449 407.857 215.128 408.192 214.693 408.442C214.259 408.689 213.702 408.812 213.023 408.812H210.909V407.875H212.989C213.457 407.875 213.834 407.794 214.118 407.632C214.402 407.47 214.608 407.251 214.736 406.976C214.866 406.697 214.932 406.384 214.932 406.034C214.932 405.685 214.866 405.372 214.736 405.097C214.608 404.821 214.401 404.605 214.114 404.449C213.827 404.29 213.446 404.21 212.972 404.21H211.114V412H210.057ZM217.538 412V405.455H218.509V406.443H218.577C218.697 406.119 218.913 405.857 219.225 405.655C219.538 405.453 219.89 405.352 220.282 405.352C220.356 405.352 220.448 405.354 220.559 405.357C220.67 405.359 220.754 405.364 220.81 405.369V406.392C220.776 406.384 220.698 406.371 220.576 406.354C220.457 406.334 220.33 406.324 220.197 406.324C219.879 406.324 219.594 406.391 219.344 406.524C219.097 406.655 218.901 406.837 218.756 407.07C218.614 407.3 218.543 407.562 218.543 407.858V412H217.538ZM224.462 412.136C223.871 412.136 223.353 411.996 222.907 411.714C222.464 411.433 222.117 411.04 221.867 410.534C221.62 410.028 221.496 409.437 221.496 408.761C221.496 408.08 221.62 407.484 221.867 406.976C222.117 406.467 222.464 406.072 222.907 405.791C223.353 405.51 223.871 405.369 224.462 405.369C225.053 405.369 225.57 405.51 226.013 405.791C226.46 406.072 226.806 406.467 227.053 406.976C227.303 407.484 227.428 408.08 227.428 408.761C227.428 409.437 227.303 410.028 227.053 410.534C226.806 411.04 226.46 411.433 226.013 411.714C225.57 411.996 225.053 412.136 224.462 412.136ZM224.462 411.233C224.911 411.233 225.281 411.118 225.57 410.888C225.86 410.658 226.075 410.355 226.214 409.98C226.353 409.605 226.423 409.199 226.423 408.761C226.423 408.324 226.353 407.916 226.214 407.538C226.075 407.161 225.86 406.855 225.57 406.622C225.281 406.389 224.911 406.273 224.462 406.273C224.013 406.273 223.644 406.389 223.354 406.622C223.065 406.855 222.85 407.161 222.711 407.538C222.572 407.916 222.502 408.324 222.502 408.761C222.502 409.199 222.572 409.605 222.711 409.98C222.85 410.355 223.065 410.658 223.354 410.888C223.644 411.118 224.013 411.233 224.462 411.233ZM231.435 412.136C230.89 412.136 230.408 411.999 229.99 411.723C229.573 411.445 229.246 411.053 229.01 410.547C228.775 410.038 228.657 409.438 228.657 408.744C228.657 408.057 228.775 407.46 229.01 406.955C229.246 406.449 229.574 406.058 229.995 405.783C230.415 405.507 230.901 405.369 231.452 405.369C231.878 405.369 232.215 405.44 232.462 405.582C232.712 405.722 232.902 405.881 233.033 406.06C233.167 406.236 233.27 406.381 233.344 406.494H233.429V403.273H234.435V412H233.463V410.994H233.344C233.27 411.114 233.165 411.264 233.029 411.446C232.892 411.625 232.698 411.786 232.445 411.928C232.192 412.067 231.855 412.136 231.435 412.136ZM231.571 411.233C231.975 411.233 232.316 411.128 232.594 410.918C232.873 410.705 233.084 410.411 233.229 410.036C233.374 409.658 233.446 409.222 233.446 408.727C233.446 408.239 233.375 407.811 233.233 407.445C233.091 407.075 232.881 406.788 232.603 406.584C232.324 406.376 231.98 406.273 231.571 406.273C231.145 406.273 230.79 406.382 230.506 406.601C230.225 406.817 230.013 407.111 229.871 407.483C229.732 407.852 229.662 408.267 229.662 408.727C229.662 409.193 229.733 409.616 229.875 409.997C230.02 410.375 230.233 410.676 230.515 410.901C230.799 411.122 231.151 411.233 231.571 411.233ZM240.542 409.324V405.455H241.547V412H240.542V410.892H240.473C240.32 411.224 240.081 411.507 239.757 411.74C239.434 411.97 239.025 412.085 238.53 412.085C238.121 412.085 237.757 411.996 237.439 411.817C237.121 411.635 236.871 411.362 236.689 410.999C236.507 410.632 236.417 410.17 236.417 409.614V405.455H237.422V409.545C237.422 410.023 237.556 410.403 237.823 410.688C238.093 410.972 238.436 411.114 238.854 411.114C239.104 411.114 239.358 411.05 239.617 410.922C239.878 410.794 240.097 410.598 240.273 410.334C240.452 410.07 240.542 409.733 240.542 409.324ZM246.048 412.136C245.435 412.136 244.906 411.991 244.463 411.702C244.02 411.412 243.679 411.013 243.44 410.504C243.202 409.996 243.082 409.415 243.082 408.761C243.082 408.097 243.205 407.51 243.449 407.001C243.696 406.49 244.04 406.091 244.48 405.804C244.923 405.514 245.44 405.369 246.031 405.369C246.491 405.369 246.906 405.455 247.276 405.625C247.645 405.795 247.947 406.034 248.183 406.341C248.419 406.648 248.565 407.006 248.622 407.415H247.616C247.54 407.116 247.369 406.852 247.105 406.622C246.844 406.389 246.491 406.273 246.048 406.273C245.656 406.273 245.313 406.375 245.017 406.58C244.724 406.781 244.496 407.067 244.331 407.436C244.169 407.803 244.088 408.233 244.088 408.727C244.088 409.233 244.168 409.673 244.327 410.048C244.489 410.423 244.716 410.714 245.009 410.922C245.304 411.129 245.651 411.233 246.048 411.233C246.31 411.233 246.547 411.188 246.76 411.097C246.973 411.006 247.153 410.875 247.301 410.705C247.449 410.534 247.554 410.33 247.616 410.091H248.622C248.565 410.477 248.425 410.825 248.2 411.135C247.979 411.442 247.685 411.686 247.318 411.868C246.955 412.047 246.531 412.136 246.048 412.136ZM252.939 405.455V406.307H249.547V405.455H252.939ZM250.536 403.886H251.541V410.125C251.541 410.409 251.582 410.622 251.665 410.764C251.75 410.903 251.858 410.997 251.989 411.045C252.122 411.091 252.263 411.114 252.411 411.114C252.521 411.114 252.612 411.108 252.683 411.097C252.754 411.082 252.811 411.071 252.854 411.062L253.058 411.966C252.99 411.991 252.895 412.017 252.773 412.043C252.651 412.071 252.496 412.085 252.308 412.085C252.024 412.085 251.746 412.024 251.473 411.902C251.203 411.78 250.979 411.594 250.8 411.344C250.624 411.094 250.536 410.778 250.536 410.398V403.886ZM257.81 412V411.233L260.69 408.08C261.028 407.71 261.307 407.389 261.526 407.116C261.744 406.841 261.906 406.582 262.011 406.341C262.119 406.097 262.173 405.841 262.173 405.574C262.173 405.267 262.099 405.001 261.952 404.777C261.807 404.553 261.608 404.379 261.355 404.257C261.102 404.135 260.818 404.074 260.503 404.074C260.168 404.074 259.875 404.143 259.625 404.283C259.378 404.419 259.186 404.611 259.05 404.858C258.916 405.105 258.849 405.395 258.849 405.727H257.844C257.844 405.216 257.962 404.767 258.197 404.381C258.433 403.994 258.754 403.693 259.161 403.477C259.57 403.261 260.028 403.153 260.537 403.153C261.048 403.153 261.501 403.261 261.896 403.477C262.291 403.693 262.601 403.984 262.825 404.351C263.05 404.717 263.162 405.125 263.162 405.574C263.162 405.895 263.104 406.209 262.987 406.516C262.874 406.82 262.675 407.159 262.391 407.534C262.109 407.906 261.719 408.361 261.219 408.898L259.259 410.994V411.062H263.315V412H257.81Z" fill="#4F4F4F"/>
<rect x="179" y="404" width="21" height="8" fill="#A155B9"/>
<path d="M88.2077 347.727H89.0884V352.926C89.0884 353.39 89.0032 353.784 88.8327 354.109C88.6623 354.433 88.422 354.679 88.1119 354.847C87.8017 355.015 87.436 355.099 87.0146 355.099C86.6168 355.099 86.2629 355.027 85.9528 354.883C85.6426 354.736 85.3988 354.528 85.2212 354.258C85.0437 353.988 84.9549 353.667 84.9549 353.295H85.8214C85.8214 353.501 85.8723 353.681 85.9741 353.835C86.0782 353.987 86.2203 354.105 86.4002 354.19C86.5801 354.276 86.7849 354.318 87.0146 354.318C87.2679 354.318 87.4833 354.265 87.6609 354.158C87.8384 354.052 87.9734 353.896 88.0657 353.69C88.1604 353.481 88.2077 353.227 88.2077 352.926V347.727ZM92.3448 355.128C91.9992 355.128 91.6855 355.063 91.4038 354.933C91.122 354.8 90.8983 354.609 90.7326 354.361C90.5669 354.11 90.484 353.807 90.484 353.452C90.484 353.139 90.5456 352.886 90.6687 352.692C90.7918 352.495 90.9563 352.341 91.1623 352.23C91.3683 352.119 91.5955 352.036 91.8441 351.982C92.0951 351.925 92.3472 351.88 92.6005 351.847C92.9319 351.804 93.2006 351.772 93.4066 351.751C93.6149 351.727 93.7665 351.688 93.8612 351.634C93.9582 351.579 94.0067 351.484 94.0067 351.349V351.321C94.0067 350.971 93.9109 350.698 93.7191 350.504C93.5297 350.31 93.2421 350.213 92.8562 350.213C92.4561 350.213 92.1424 350.301 91.9151 350.476C91.6879 350.651 91.5281 350.838 91.4357 351.037L90.6403 350.753C90.7823 350.421 90.9717 350.163 91.2085 349.979C91.4476 349.792 91.708 349.661 91.9897 349.588C92.2738 349.512 92.5531 349.474 92.8278 349.474C93.003 349.474 93.2042 349.496 93.4315 349.538C93.6611 349.579 93.8825 349.663 94.0955 349.79C94.311 349.918 94.4897 350.111 94.6317 350.369C94.7738 350.627 94.8448 350.973 94.8448 351.406V355H94.0067V354.261H93.9641C93.9073 354.38 93.8126 354.506 93.68 354.641C93.5475 354.776 93.3711 354.891 93.1509 354.986C92.9308 355.08 92.6621 355.128 92.3448 355.128ZM92.4727 354.375C92.8041 354.375 93.0835 354.31 93.3107 354.18C93.5404 354.049 93.7132 353.881 93.8292 353.675C93.9476 353.469 94.0067 353.253 94.0067 353.026V352.259C93.9712 352.301 93.8931 352.34 93.7724 352.376C93.654 352.409 93.5167 352.438 93.3604 352.464C93.2066 352.488 93.0562 352.509 92.9094 352.528C92.765 352.545 92.6478 352.559 92.5579 352.571C92.3401 352.599 92.1365 352.646 91.9471 352.71C91.7601 352.771 91.6085 352.865 91.4925 352.99C91.3789 353.113 91.3221 353.281 91.3221 353.494C91.3221 353.786 91.4298 354.006 91.6452 354.155C91.863 354.302 92.1388 354.375 92.4727 354.375ZM97.2125 351.719V355H96.3745V349.545H97.1841V350.398H97.2551C97.383 350.121 97.5771 349.898 97.8375 349.73C98.098 349.56 98.4341 349.474 98.8461 349.474C99.2154 349.474 99.5385 349.55 99.8155 349.702C100.093 349.851 100.308 350.078 100.462 350.384C100.616 350.687 100.693 351.07 100.693 351.534V355H99.8546V351.591C99.8546 351.162 99.7433 350.829 99.5208 350.589C99.2982 350.348 98.9928 350.227 98.6046 350.227C98.3371 350.227 98.098 350.285 97.8873 350.401C97.6789 350.517 97.5144 350.687 97.3936 350.909C97.2729 351.132 97.2125 351.402 97.2125 351.719Z" fill="#4F4F4F"/>
<path d="M147.131 355V347.727H151.491V348.509H148.011V350.966H151.165V351.747H148.011V355H147.131ZM154.773 355.114C154.247 355.114 153.794 354.998 153.413 354.766C153.034 354.531 152.741 354.205 152.536 353.786C152.332 353.364 152.23 352.874 152.23 352.315C152.23 351.757 152.332 351.264 152.536 350.838C152.741 350.41 153.028 350.076 153.395 349.837C153.764 349.595 154.195 349.474 154.688 349.474C154.972 349.474 155.252 349.522 155.529 349.616C155.806 349.711 156.058 349.865 156.286 350.078C156.513 350.289 156.694 350.568 156.829 350.916C156.964 351.264 157.031 351.693 157.031 352.202V352.557H152.827V351.832H156.179C156.179 351.525 156.117 351.25 155.994 351.009C155.874 350.767 155.701 350.576 155.476 350.437C155.253 350.297 154.991 350.227 154.688 350.227C154.354 350.227 154.065 350.31 153.821 350.476C153.58 350.639 153.394 350.852 153.263 351.115C153.133 351.378 153.068 351.66 153.068 351.96V352.443C153.068 352.855 153.139 353.204 153.281 353.491C153.426 353.775 153.626 353.991 153.881 354.141C154.137 354.287 154.434 354.361 154.773 354.361C154.993 354.361 155.192 354.33 155.369 354.268C155.549 354.205 155.704 354.11 155.835 353.984C155.965 353.857 156.065 353.698 156.136 353.509L156.946 353.736C156.861 354.01 156.718 354.252 156.516 354.46C156.315 354.666 156.067 354.827 155.771 354.943C155.475 355.057 155.142 355.114 154.773 355.114ZM158.42 355V347.727H159.258V350.412H159.329C159.39 350.317 159.476 350.196 159.585 350.05C159.696 349.901 159.854 349.768 160.06 349.652C160.269 349.534 160.55 349.474 160.906 349.474C161.365 349.474 161.77 349.589 162.12 349.819C162.47 350.049 162.744 350.374 162.94 350.795C163.137 351.217 163.235 351.714 163.235 352.287C163.235 352.865 163.137 353.365 162.94 353.789C162.744 354.21 162.472 354.537 162.124 354.769C161.776 354.999 161.374 355.114 160.92 355.114C160.569 355.114 160.289 355.056 160.078 354.94C159.867 354.821 159.705 354.687 159.592 354.538C159.478 354.387 159.39 354.261 159.329 354.162H159.229V355H158.42ZM159.244 352.273C159.244 352.685 159.304 353.048 159.425 353.363C159.545 353.675 159.722 353.92 159.954 354.098C160.186 354.273 160.47 354.361 160.806 354.361C161.156 354.361 161.449 354.268 161.683 354.084C161.92 353.897 162.098 353.646 162.216 353.331C162.337 353.014 162.397 352.661 162.397 352.273C162.397 351.889 162.338 351.544 162.219 351.236C162.103 350.926 161.927 350.681 161.69 350.501C161.456 350.318 161.161 350.227 160.806 350.227C160.465 350.227 160.179 350.314 159.947 350.487C159.715 350.657 159.54 350.896 159.421 351.204C159.303 351.509 159.244 351.866 159.244 352.273Z" fill="#4F4F4F"/>
<path d="M199.755 347.727H200.806L203.277 353.764H203.363L205.834 347.727H206.885V355H206.062V349.474H205.991L203.718 355H202.922L200.65 349.474H200.579V355H199.755V347.727ZM210.143 355.128C209.797 355.128 209.483 355.063 209.202 354.933C208.92 354.8 208.696 354.609 208.53 354.361C208.365 354.11 208.282 353.807 208.282 353.452C208.282 353.139 208.343 352.886 208.467 352.692C208.59 352.495 208.754 352.341 208.96 352.23C209.166 352.119 209.393 352.036 209.642 351.982C209.893 351.925 210.145 351.88 210.398 351.847C210.73 351.804 210.998 351.772 211.204 351.751C211.413 351.727 211.564 351.688 211.659 351.634C211.756 351.579 211.805 351.484 211.805 351.349V351.321C211.805 350.971 211.709 350.698 211.517 350.504C211.328 350.31 211.04 350.213 210.654 350.213C210.254 350.213 209.94 350.301 209.713 350.476C209.486 350.651 209.326 350.838 209.234 351.037L208.438 350.753C208.58 350.421 208.77 350.163 209.006 349.979C209.245 349.792 209.506 349.661 209.788 349.588C210.072 349.512 210.351 349.474 210.626 349.474C210.801 349.474 211.002 349.496 211.229 349.538C211.459 349.579 211.68 349.663 211.893 349.79C212.109 349.918 212.288 350.111 212.43 350.369C212.572 350.627 212.643 350.973 212.643 351.406V355H211.805V354.261H211.762C211.705 354.38 211.61 354.506 211.478 354.641C211.345 354.776 211.169 354.891 210.949 354.986C210.729 355.08 210.46 355.128 210.143 355.128ZM210.271 354.375C210.602 354.375 210.881 354.31 211.109 354.18C211.338 354.049 211.511 353.881 211.627 353.675C211.745 353.469 211.805 353.253 211.805 353.026V352.259C211.769 352.301 211.691 352.34 211.57 352.376C211.452 352.409 211.315 352.438 211.158 352.464C211.004 352.488 210.854 352.509 210.707 352.528C210.563 352.545 210.446 352.559 210.356 352.571C210.138 352.599 209.934 352.646 209.745 352.71C209.558 352.771 209.406 352.865 209.29 352.99C209.177 353.113 209.12 353.281 209.12 353.494C209.12 353.786 209.228 354.006 209.443 354.155C209.661 354.302 209.937 354.375 210.271 354.375ZM214.172 355V349.545H214.982V350.369H215.039C215.138 350.099 215.318 349.88 215.579 349.712C215.839 349.544 216.133 349.46 216.459 349.46C216.521 349.46 216.598 349.461 216.69 349.464C216.782 349.466 216.852 349.47 216.9 349.474V350.327C216.871 350.32 216.806 350.309 216.704 350.295C216.605 350.278 216.499 350.27 216.388 350.27C216.123 350.27 215.886 350.326 215.678 350.437C215.472 350.546 215.309 350.697 215.188 350.891C215.07 351.083 215.01 351.302 215.01 351.548V355H214.172Z" fill="#4F4F4F"/>
<path d="M252.893 355H251.97L254.64 347.727H255.549L258.22 355H257.296L255.123 348.878H255.066L252.893 355ZM253.234 352.159H256.955V352.94H253.234V352.159ZM259.239 357.045V349.545H260.048V350.412H260.148C260.209 350.317 260.295 350.196 260.403 350.05C260.515 349.901 260.673 349.768 260.879 349.652C261.088 349.534 261.369 349.474 261.725 349.474C262.184 349.474 262.589 349.589 262.939 349.819C263.289 350.049 263.563 350.374 263.759 350.795C263.956 351.217 264.054 351.714 264.054 352.287C264.054 352.865 263.956 353.365 263.759 353.789C263.563 354.21 263.291 354.537 262.943 354.769C262.595 354.999 262.193 355.114 261.739 355.114C261.388 355.114 261.108 355.056 260.897 354.94C260.686 354.821 260.524 354.687 260.411 354.538C260.297 354.387 260.209 354.261 260.148 354.162H260.077V357.045H259.239ZM260.063 352.273C260.063 352.685 260.123 353.048 260.244 353.363C260.364 353.675 260.541 353.92 260.773 354.098C261.005 354.273 261.289 354.361 261.625 354.361C261.975 354.361 262.268 354.268 262.502 354.084C262.739 353.897 262.917 353.646 263.035 353.331C263.156 353.014 263.216 352.661 263.216 352.273C263.216 351.889 263.157 351.544 263.038 351.236C262.922 350.926 262.746 350.681 262.509 350.501C262.275 350.318 261.98 350.227 261.625 350.227C261.284 350.227 260.998 350.314 260.766 350.487C260.534 350.657 260.359 350.896 260.24 351.204C260.122 351.509 260.063 351.866 260.063 352.273ZM265.332 355V349.545H266.142V350.369H266.199C266.298 350.099 266.478 349.88 266.739 349.712C266.999 349.544 267.293 349.46 267.619 349.46C267.681 349.46 267.758 349.461 267.85 349.464C267.943 349.466 268.012 349.47 268.06 349.474V350.327C268.031 350.32 267.966 350.309 267.864 350.295C267.765 350.278 267.66 350.27 267.548 350.27C267.283 350.27 267.046 350.326 266.838 350.437C266.632 350.546 266.469 350.697 266.348 350.891C266.23 351.083 266.171 351.302 266.171 351.548V355H265.332Z" fill="#4F4F4F"/>
<path d="M304.429 347.727H305.48L307.951 353.764H308.036L310.508 347.727H311.559V355H310.735V349.474H310.664L308.392 355H307.596L305.323 349.474H305.252V355H304.429V347.727ZM314.816 355.128C314.471 355.128 314.157 355.063 313.875 354.933C313.594 354.8 313.37 354.609 313.204 354.361C313.039 354.11 312.956 353.807 312.956 353.452C312.956 353.139 313.017 352.886 313.14 352.692C313.263 352.495 313.428 352.341 313.634 352.23C313.84 352.119 314.067 352.036 314.316 351.982C314.567 351.925 314.819 351.88 315.072 351.847C315.404 351.804 315.672 351.772 315.878 351.751C316.087 351.727 316.238 351.688 316.333 351.634C316.43 351.579 316.478 351.484 316.478 351.349V351.321C316.478 350.971 316.383 350.698 316.191 350.504C316.001 350.31 315.714 350.213 315.328 350.213C314.928 350.213 314.614 350.301 314.387 350.476C314.16 350.651 314 350.838 313.907 351.037L313.112 350.753C313.254 350.421 313.443 350.163 313.68 349.979C313.919 349.792 314.18 349.661 314.461 349.588C314.745 349.512 315.025 349.474 315.299 349.474C315.475 349.474 315.676 349.496 315.903 349.538C316.133 349.579 316.354 349.663 316.567 349.79C316.783 349.918 316.961 350.111 317.103 350.369C317.245 350.627 317.316 350.973 317.316 351.406V355H316.478V354.261H316.436C316.379 354.38 316.284 354.506 316.152 354.641C316.019 354.776 315.843 354.891 315.623 354.986C315.402 355.08 315.134 355.128 314.816 355.128ZM314.944 354.375C315.276 354.375 315.555 354.31 315.782 354.18C316.012 354.049 316.185 353.881 316.301 353.675C316.419 353.469 316.478 353.253 316.478 353.026V352.259C316.443 352.301 316.365 352.34 316.244 352.376C316.126 352.409 315.988 352.438 315.832 352.464C315.678 352.488 315.528 352.509 315.381 352.528C315.237 352.545 315.12 352.559 315.03 352.571C314.812 352.599 314.608 352.646 314.419 352.71C314.232 352.771 314.08 352.865 313.964 352.99C313.851 353.113 313.794 353.281 313.794 353.494C313.794 353.786 313.901 354.006 314.117 354.155C314.335 354.302 314.611 354.375 314.944 354.375ZM318.846 355V349.545H319.684V355H318.846ZM319.272 348.636C319.109 348.636 318.968 348.581 318.85 348.469C318.734 348.358 318.676 348.224 318.676 348.068C318.676 347.912 318.734 347.778 318.85 347.667C318.968 347.556 319.109 347.5 319.272 347.5C319.436 347.5 319.575 347.556 319.691 347.667C319.81 347.778 319.869 347.912 319.869 348.068C319.869 348.224 319.81 348.358 319.691 348.469C319.575 348.581 319.436 348.636 319.272 348.636Z" fill="#4F4F4F"/>
<path d="M361.12 347.727H362.001V352.926C362.001 353.39 361.915 353.784 361.745 354.109C361.574 354.433 361.334 354.679 361.024 354.847C360.714 355.015 360.348 355.099 359.927 355.099C359.529 355.099 359.175 355.027 358.865 354.883C358.555 354.736 358.311 354.528 358.133 354.258C357.956 353.988 357.867 353.667 357.867 353.295H358.733C358.733 353.501 358.784 353.681 358.886 353.835C358.99 353.987 359.132 354.105 359.312 354.19C359.492 354.276 359.697 354.318 359.927 354.318C360.18 354.318 360.395 354.265 360.573 354.158C360.751 354.052 360.885 353.896 360.978 353.69C361.073 353.481 361.12 353.227 361.12 352.926V347.727ZM367.089 352.77V349.545H367.927V355H367.089V354.077H367.032C366.905 354.354 366.706 354.589 366.436 354.783C366.166 354.975 365.825 355.071 365.413 355.071C365.072 355.071 364.769 354.996 364.504 354.847C364.239 354.696 364.031 354.469 363.879 354.165C363.728 353.86 363.652 353.475 363.652 353.011V349.545H364.49V352.955C364.49 353.352 364.601 353.67 364.824 353.906C365.049 354.143 365.335 354.261 365.683 354.261C365.891 354.261 366.103 354.208 366.319 354.102C366.537 353.995 366.719 353.832 366.866 353.612C367.015 353.391 367.089 353.111 367.089 352.77ZM370.3 351.719V355H369.462V349.545H370.272V350.398H370.343C370.471 350.121 370.665 349.898 370.925 349.73C371.186 349.56 371.522 349.474 371.934 349.474C372.303 349.474 372.626 349.55 372.903 349.702C373.18 349.851 373.396 350.078 373.55 350.384C373.704 350.687 373.781 351.07 373.781 351.534V355H372.942V351.591C372.942 351.162 372.831 350.829 372.609 350.589C372.386 350.348 372.081 350.227 371.692 350.227C371.425 350.227 371.186 350.285 370.975 350.401C370.767 350.517 370.602 350.687 370.482 350.909C370.361 351.132 370.3 351.402 370.3 351.719Z" fill="#4F4F4F"/>
<rect x="83" y="256" width="31" height="48" fill="#105180"/>
<rect x="138" y="208" width="31" height="48" fill="#105180"/>
<rect x="191" y="256" width="31" height="20" fill="#105180"/>
<rect x="245" y="217" width="31" height="39" fill="#105180"/>
<rect x="297" y="190" width="31" height="66" fill="#105180"/>
<rect x="349" y="208" width="31" height="48" fill="#105180"/>
<path d="M72 266.5L98.5 255.5L153.5 221.5L206.5 264.5L261 233L312.5 215.5L364.5 238.5H392.5" stroke="#E697FF" stroke-width="2"/>
<circle cx="98.5" cy="255.5" r="1.5" fill="#A155B9"/>
<circle cx="153.5" cy="221.5" r="1.5" fill="#A155B9"/>
<circle cx="206.5" cy="264.5" r="1.5" fill="#A155B9"/>
<circle cx="260.5" cy="233.5" r="1.5" fill="#A155B9"/>
<circle cx="312.5" cy="215.5" r="1.5" fill="#A155B9"/>
<circle cx="364.5" cy="238.5" r="1.5" fill="#A155B9"/>
</svg>
