<svg width="40" height="40" viewBox="0 0 40 40" fill="none" xmlns="http://www.w3.org/2000/svg">
<rect width="40" height="40" rx="6" fill="#FEEDEF"/>
<g clip-path="url(#clip0_37_5861)">
<path d="M13.5953 17.8422V30.5404C13.5953 30.8102 13.3756 31.028 13.1058 31.028H9.45829C9.19041 31.028 8.9707 30.8102 8.9707 30.5404V17.8422C8.9707 17.5724 9.19041 17.3546 9.45829 17.3546H13.1058C13.3756 17.3546 13.5953 17.5724 13.5953 17.8422Z" fill="#F64B60"/>
<path d="M20.3082 13.0165V30.5404C20.3082 30.8102 20.0885 31.028 19.8187 31.028H16.1712C15.9033 31.028 15.6836 30.8102 15.6836 30.5404V13.0165C15.6836 12.7467 15.9033 12.5289 16.1712 12.5289H19.8187C20.0885 12.5289 20.3082 12.7467 20.3082 13.0165Z" fill="#F64B60"/>
<path d="M27.0211 20.1069V30.5404C27.0211 30.8102 26.8014 31.0279 26.5316 31.0279H22.8841C22.6162 31.0279 22.3965 30.8102 22.3965 30.5404V20.1069C22.3965 19.837 22.6162 19.6193 22.8841 19.6193H26.5316C26.8014 19.6193 27.0211 19.837 27.0211 20.1069Z" fill="#F64B60"/>
<path d="M25.5352 12.393C25.5407 12.4699 25.5633 12.5326 25.6047 12.5857C25.6567 12.6517 25.8423 12.6522 25.8949 12.5851C25.9357 12.5328 25.9583 12.4697 25.9641 12.393C25.9709 12.2857 25.9764 12.0635 25.9641 11.896C25.9583 11.8183 25.9349 11.753 25.8923 11.6968C25.8717 11.6698 25.8236 11.656 25.7498 11.656C25.6757 11.656 25.6275 11.6698 25.6065 11.6973C25.5641 11.753 25.5407 11.8177 25.5352 11.8952C25.534 12.0196 25.5314 12.2934 25.5352 12.393Z" fill="#FA9CA7"/>
<path d="M27.8978 14.191C27.8921 14.1132 27.8687 14.0482 27.8263 13.9923C27.8058 13.9655 27.7577 13.9514 27.6836 13.9514C27.6326 13.9514 27.5665 13.9585 27.5405 13.9925C27.4982 14.0482 27.4747 14.1132 27.469 14.191L27.4589 14.3374C27.4496 14.4879 27.466 14.6081 27.469 14.6881C27.4747 14.7651 27.4973 14.8281 27.5384 14.8803C27.5905 14.9474 27.7764 14.9472 27.8284 14.8806C27.8695 14.8281 27.8921 14.7651 27.8978 14.6881C27.9074 14.5407 27.9075 14.3208 27.8978 14.191Z" fill="#FA9CA7"/>
<path d="M26.713 8.97192C24.3266 8.97192 22.3965 10.902 22.3965 13.2884C22.3965 15.6749 24.3266 17.605 26.713 17.605C29.09 17.605 31.0295 15.6749 31.0295 13.2884C31.0295 10.902 29.09 8.97192 26.713 8.97192ZM25.0043 11.856C25.017 11.6763 25.0771 11.5135 25.1833 11.3744C25.2706 11.2599 25.4397 11.1234 25.7499 11.1234C26.2223 11.1234 26.467 11.4642 26.4952 11.857C26.5075 12.0267 26.5062 12.2732 26.4955 12.4302C26.4822 12.614 26.4213 12.776 26.3147 12.9131C26.2268 13.0254 26.058 13.1583 25.7499 13.1583C25.4418 13.1583 25.2727 13.0254 25.1853 12.9139C25.0779 12.776 25.017 12.6138 25.0043 12.4309C25.0028 12.2755 24.9723 12.2582 25.0043 11.856ZM25.4922 15.3352C25.405 15.4501 25.2384 15.4764 25.119 15.3859C25.002 15.2969 24.9794 15.13 25.0683 15.0127L27.9341 11.242C28.023 11.125 28.1897 11.1021 28.3072 11.1913C28.4242 11.2803 28.4468 11.4472 28.3579 11.5645L25.4922 15.3352ZM28.4289 14.7257C28.4003 15.1228 28.1565 15.4535 27.6834 15.4535C27.2247 15.4535 26.9674 15.136 26.9378 14.7267C26.9326 14.5793 26.9088 14.5184 26.9378 14.1512C26.9508 13.9707 27.0111 13.8081 27.1169 13.6696C27.2041 13.5552 27.3731 13.4189 27.6834 13.4189C27.9931 13.4189 28.1621 13.5552 28.2495 13.6693C28.3556 13.8087 28.4157 13.971 28.4287 14.1525C28.4412 14.3178 28.4396 14.569 28.4289 14.7257Z" fill="#FA9CA7"/>
</g>
<defs>
<clipPath id="clip0_37_5861">
<rect width="24" height="24" fill="white" transform="translate(8 8)"/>
</clipPath>
</defs>
</svg>
