<svg width="40" height="40" viewBox="0 0 40 40" fill="none" xmlns="http://www.w3.org/2000/svg">
<rect width="40" height="40" rx="6" fill="#EDEBFD"/>
<g clip-path="url(#clip0_37_5855)">
<path d="M11.836 23.841C12.5 24.435 13.253 24.906 14.06 25.26L18.304 22.595C19.182 22.041 20.358 22.172 21.093 22.911L22.52 24.338C24.659 22.761 26 20.238 26 17.5C26 12.813 22.187 9 17.5 9C12.813 9 9 12.813 9 17.5C9 19.919 10.033 22.23 11.836 23.841ZM17.88 18.25H17.12C15.951 18.25 15 17.299 15 16.13C15 15.079 15.758 14.214 16.75 14.038V13.25C16.75 12.836 17.086 12.5 17.5 12.5C17.914 12.5 18.25 12.836 18.25 13.25V14H19.25C19.664 14 20 14.336 20 14.75C20 15.164 19.664 15.5 19.25 15.5H17.12C16.778 15.5 16.5 15.778 16.5 16.12C16.5 16.472 16.778 16.75 17.12 16.75H17.88C19.049 16.75 20 17.701 20 18.87C20 19.921 19.242 20.786 18.25 20.962V21.749C18.25 22.163 17.914 22.499 17.5 22.499C17.086 22.499 16.75 22.163 16.75 21.749V21H15.75C15.336 21 15 20.664 15 20.25C15 19.836 15.336 19.5 15.75 19.5H17.88C18.222 19.5 18.5 19.222 18.5 18.88C18.5 18.528 18.222 18.25 17.88 18.25Z" fill="#4B5CF6"/>
<path d="M31.0001 20H27.0001C26.5961 20 26.2301 20.244 26.0761 20.617C25.9211 20.991 26.0071 21.421 26.2931 21.707L27.5861 23L23.5001 27.086L20.2071 23.793C19.8801 23.464 19.3661 23.407 18.9741 23.65L8.47412 30.15C8.00412 30.441 7.86012 31.057 8.15012 31.526C8.33912 31.832 8.66612 32 9.00112 32C9.18112 32 9.36212 31.952 9.52612 31.85L19.3521 25.767L22.7921 29.207C23.1831 29.598 23.8151 29.598 24.2061 29.207L29.0001 24.414L30.2931 25.707C30.4841 25.898 30.7401 26 31.0001 26C31.1291 26 31.2591 25.975 31.3831 25.924C31.7571 25.769 32.0001 25.404 32.0001 25V21C32.0001 20.448 31.5531 20 31.0001 20Z" fill="#9CA4F9"/>
</g>
<defs>
<clipPath id="clip0_37_5855">
<rect width="24" height="24" fill="white" transform="translate(8 8)"/>
</clipPath>
</defs>
</svg>
