<svg width="40" height="40" viewBox="0 0 40 40" fill="none" xmlns="http://www.w3.org/2000/svg">
<rect width="40" height="40" rx="6" fill="#F0FBF3"/>
<path d="M13.5202 14.51C14.1607 14.51 14.6827 13.9887 14.6827 13.3475V9.5H14.5402C13.8277 9.5 13.1377 9.785 12.6352 10.2875L10.4677 12.455C9.96518 12.9575 9.68018 13.6475 9.68018 14.36V14.51H13.5202Z" fill="#68D585"/>
<path d="M25.8809 30.473C25.9874 30.5105 26.0992 30.5105 26.2057 30.473C26.8499 30.2472 28.8067 29.4057 29.7899 27.0845C30.3809 25.6887 30.3599 24.371 30.2782 23.609C30.2527 23.3757 30.0652 23.192 29.8312 23.1792C28.5397 23.1072 27.3224 22.7877 26.3542 21.9732C26.1742 21.8217 25.9132 21.8217 25.7339 21.9732C24.7657 22.7877 23.5484 23.1072 22.2569 23.1792C22.0222 23.192 21.8347 23.3757 21.8099 23.609C21.7282 24.371 21.7072 25.6887 22.2982 27.0845C23.2792 29.4057 25.2367 30.2465 25.8809 30.473Z" fill="#ACE8BC"/>
<path d="M25.6777 9.5H15.8077V13.3475C15.8077 14.609 14.7817 15.635 13.5202 15.635H9.68018V27.7175C9.68018 29.255 10.9252 30.5 12.4627 30.5H23.5957C22.7497 29.87 21.8557 28.9295 21.2602 27.5225C20.5979 25.9595 20.5844 24.4655 20.6894 23.4882C20.7727 22.703 21.4049 22.1 22.1917 22.0557C23.4127 21.9882 24.3337 21.6792 25.0079 21.1122C25.2967 20.8693 25.6642 20.735 26.0429 20.735C26.4209 20.735 26.7884 20.8692 27.0779 21.113C27.4544 21.4302 27.9187 21.6583 28.4602 21.8165V12.2825C28.4602 10.745 27.2152 9.5 25.6777 9.5ZM17.8597 25.496H14.6054C14.2327 25.496 13.9304 25.1937 13.9304 24.821C13.9304 24.4482 14.2327 24.146 14.6054 24.146H17.8597C18.2324 24.146 18.5347 24.4482 18.5347 24.821C18.5347 25.1937 18.2324 25.496 17.8597 25.496ZM20.3422 21.4265H14.6054C14.2327 21.4265 13.9304 21.1243 13.9304 20.7515C13.9304 20.3788 14.2327 20.0765 14.6054 20.0765H20.3422C20.7149 20.0765 21.0172 20.3788 21.0172 20.7515C21.0172 21.1243 20.7149 21.4265 20.3422 21.4265Z" fill="#68D585"/>
</svg>
