<svg width="40" height="40" viewBox="0 0 40 40" fill="none" xmlns="http://www.w3.org/2000/svg">
<rect width="40" height="40" rx="6" fill="#FEEDEF"/>
<path d="M21.4506 17.2651L21.331 17.8645C21.3167 17.9361 21.2818 18.002 21.2306 18.0542C21.1794 18.1063 21.1141 18.1423 21.0427 18.1579C20.3176 18.3155 19.627 18.606 19.0078 19.0147C18.9461 19.0557 18.8738 19.0775 18.7998 19.0775C18.7258 19.0775 18.6534 19.0557 18.5918 19.0147L18.0681 18.6655L16.909 19.8246L17.2523 20.3373C17.2931 20.3984 17.3151 20.47 17.3156 20.5434C17.3162 20.6168 17.2952 20.6888 17.2552 20.7504C16.8505 21.3736 16.5644 22.0667 16.4124 22.7941C16.3971 22.866 16.3611 22.9318 16.3088 22.9835C16.2566 23.0351 16.1903 23.0703 16.1182 23.0846L15.5086 23.2071V24.843L16.1101 24.9647C16.1819 24.9789 16.248 25.0138 16.3003 25.065C16.3525 25.1162 16.3887 25.1816 16.4043 25.253C16.5619 25.9781 16.8524 26.6658 17.2611 27.285C17.3017 27.347 17.323 27.4195 17.3225 27.4935C17.322 27.5675 17.2996 27.6396 17.2582 27.701L16.909 28.2255L18.0681 29.3845L18.5808 29.0434C18.6418 29.0026 18.7135 28.9806 18.7869 28.9801C18.8603 28.9796 18.9322 29.0006 18.9938 29.0405C19.6171 29.4452 20.3094 29.7314 21.0368 29.8834C21.1089 29.8985 21.1748 29.9344 21.2266 29.9867C21.2784 30.039 21.3137 30.1054 21.3281 30.1775L21.4506 30.7842H23.0886L23.2082 30.1856C23.2222 30.1126 23.2576 30.0454 23.3098 29.9925C23.3621 29.9396 23.4288 29.9034 23.5016 29.8885C24.2348 29.7396 24.9335 29.457 25.5623 29.0515C25.6239 29.0116 25.6958 28.9906 25.7692 28.9911C25.8426 28.9916 25.9142 29.0136 25.9753 29.0544L26.4712 29.3845L27.6302 28.2255L27.2979 27.7289C27.2577 27.6681 27.2361 27.5971 27.2355 27.5243C27.235 27.4515 27.2557 27.3801 27.295 27.3188C27.7004 26.69 27.986 25.9921 28.1349 25.2589C28.1495 25.1863 28.1852 25.1197 28.2375 25.0674C28.2899 25.015 28.3565 24.9793 28.4291 24.9647L29.0306 24.843V23.2071L28.4452 23.0875C28.3736 23.0732 28.3076 23.0383 28.2555 22.9871C28.2034 22.9359 28.1673 22.8706 28.1518 22.7992C27.9933 22.0688 27.6994 21.3761 27.2862 20.7533C27.2452 20.6917 27.2233 20.6193 27.2233 20.5453C27.2233 20.4713 27.2452 20.399 27.2862 20.3373L27.6302 19.8246L26.4712 18.6655L25.9643 19.0037C25.9035 19.044 25.8322 19.0658 25.7593 19.0663C25.6863 19.0668 25.6148 19.0461 25.5535 19.0066C24.928 18.6016 24.2314 18.3145 23.5016 18.1638C23.4298 18.1485 23.3639 18.1125 23.3123 18.0602C23.2606 18.008 23.2255 17.9417 23.2111 17.8696L23.0886 17.2651H21.4506ZM22.2678 19.1424C24.9599 19.1424 27.1504 21.3329 27.1504 24.025C27.1504 26.7172 24.9599 28.907 22.2678 28.907C19.5756 28.907 17.3858 26.7172 17.3858 24.025C17.3858 21.3329 19.5756 19.1424 22.2678 19.1424ZM22.2678 19.8935C19.9816 19.8935 18.137 21.7388 18.137 24.025C18.137 25.1825 18.6102 26.2264 19.3738 26.9755C19.728 25.7056 20.8954 24.7762 22.2678 24.7762C23.6407 24.7762 24.8088 25.7064 25.1625 26.9769C25.9276 26.2278 26.4022 25.1832 26.4022 24.025C26.4022 21.7388 24.554 19.8935 22.2678 19.8935ZM22.2201 20.6455C22.2361 20.645 22.2516 20.6455 22.2678 20.6455C23.3005 20.6455 24.1479 21.4892 24.1479 22.5219C24.1479 23.5547 23.3005 24.4021 22.2678 24.4021C21.2351 24.4021 20.3913 23.5547 20.3913 22.5219C20.3913 21.5054 21.2095 20.6713 22.2201 20.6455ZM22.2392 21.3966C21.6262 21.4119 21.1425 21.905 21.1425 22.5219C21.1425 23.1487 21.641 23.6509 22.2678 23.6509C22.8945 23.6509 23.3967 23.1487 23.3967 22.5219C23.3967 21.8952 22.8945 21.3966 22.2678 21.3966C22.258 21.3966 22.2489 21.3964 22.2392 21.3966ZM22.2678 25.5274C21.1179 25.5274 20.1706 26.3821 20.0326 27.5022C20.6764 27.9162 21.4433 28.1558 22.2678 28.1558C23.093 28.1558 23.8612 27.9154 24.5059 27.5007C24.3678 26.3808 23.4178 25.5274 22.2678 25.5274Z" fill="#FA9CA7"/>
<path d="M12.8802 14.2568H21.1425C22.0935 14.2568 22.5414 14.7037 22.7783 15.1775C23.0152 15.6513 23.0197 16.137 23.0197 16.137V16.514H21.1425C21.0555 16.5139 20.9711 16.544 20.9039 16.5991C20.8366 16.6542 20.7905 16.731 20.7735 16.8163L20.6297 17.5315C20.0022 17.695 19.4048 17.946 18.8493 18.2805L18.2287 17.8697C18.1564 17.8214 18.0696 17.7996 17.983 17.8082C17.8964 17.8167 17.8155 17.8551 17.7541 17.9166L16.16 19.5114C16.0994 19.5726 16.0616 19.6528 16.0531 19.7386C16.0445 19.8243 16.0657 19.9104 16.1131 19.9824L16.5209 20.5927C16.1887 21.153 15.9421 21.7547 15.783 22.3863L15.0597 22.5308C14.9745 22.5478 14.8978 22.5938 14.8427 22.6609C14.7876 22.7281 14.7575 22.8122 14.7574 22.8991V25.1504H12.8802C11.9305 25.1504 11.4812 24.7036 11.2443 24.2298C11.0074 23.756 11.0001 23.271 11.0001 23.271V16.137C11.0001 16.137 11.0074 15.6513 11.2443 15.1775C11.4812 14.7037 11.9359 14.2568 12.8802 14.2568Z" fill="#F64B60"/>
<path d="M17.0117 9C18.8678 9 20.392 10.5239 20.3913 12.3803V13.5056H18.8889L18.8911 12.3803C18.8915 11.3289 18.1091 10.5002 17.0117 10.5002C15.9153 10.5002 15.1349 11.3284 15.1345 12.3803V13.5056H13.6321L13.6344 12.3803C13.635 10.5247 15.1558 9 17.0117 9Z" fill="#F64B60"/>
</svg>
