<svg width="40" height="40" viewBox="0 0 40 40" fill="none" xmlns="http://www.w3.org/2000/svg">
<rect width="40" height="40" rx="6" fill="#F0FBF3"/>
<path d="M20.023 17.7984C18.5984 17.7984 17.4392 18.9577 17.4392 20.3822C17.4392 21.8067 18.5984 22.9659 20.023 22.9659C21.4475 22.9659 22.6067 21.8067 22.6067 20.3822C22.6072 18.9577 21.4475 17.7984 20.023 17.7984Z" fill="#68D585"/>
<path d="M14.5972 26.565C14.5972 25.9186 14.7739 25.313 15.0809 24.7931C14.9108 24.7519 14.7359 24.7308 14.5583 24.7308H11.5306C10.2945 24.7308 9.28906 25.7362 9.28906 26.9728V28.7827C9.28906 29.0208 9.48266 29.2144 9.72078 29.2144H11.0272V27.2836C11.0272 27.1284 11.1533 27.0023 11.3084 27.0023C11.4636 27.0023 11.5897 27.1284 11.5897 27.2836V29.2139H14.6473C14.615 29.1056 14.5972 28.9908 14.5972 28.8717V26.565Z" fill="#68D585"/>
<path d="M13.0447 24.0877C14.1289 24.0877 15.0111 23.2055 15.0111 22.1212C15.0111 21.037 14.1289 20.1548 13.0447 20.1548C11.9605 20.1548 11.0783 21.037 11.0783 22.1212C11.0783 23.2055 11.9605 24.0877 13.0447 24.0877Z" fill="#68D585"/>
<path d="M24.8872 26.565C24.8872 25.9167 24.6758 25.3177 24.3186 24.8316C24.3064 24.818 24.2952 24.8034 24.2853 24.787C23.7486 24.0848 22.903 23.6302 21.9528 23.6302H18.0941C17.1439 23.6302 16.2983 24.0844 15.7616 24.787C15.7517 24.803 15.7405 24.818 15.7283 24.8316C15.3711 25.3177 15.1597 25.9167 15.1597 26.565V28.8717C15.1597 29.2177 15.4409 29.4994 15.7869 29.4994H17.5292V26.9737C17.5292 26.8186 17.6553 26.6925 17.8105 26.6925C17.9661 26.6925 18.0917 26.8186 18.0917 26.9737V29.4994H21.9552V26.9737C21.9552 26.8186 22.0808 26.6925 22.2364 26.6925C22.3916 26.6925 22.5177 26.8186 22.5177 26.9737V29.4994H24.26C24.6059 29.4994 24.8872 29.2181 24.8872 28.8717V26.565Z" fill="#68D585"/>
<path d="M27.0017 20.1548C25.9175 20.1548 25.0353 21.037 25.0353 22.1212C25.0353 23.2059 25.9175 24.0877 27.0017 24.0877C28.0864 24.0877 28.9681 23.2055 28.9681 22.1212C28.9686 21.037 28.0869 20.1548 27.0017 20.1548Z" fill="#68D585"/>
<path d="M28.5163 24.7308H25.4886C25.3109 24.7308 25.1361 24.7519 24.9659 24.7931C25.273 25.313 25.4497 25.9186 25.4497 26.565V28.8717C25.4497 28.9908 25.4323 29.1056 25.3995 29.2139H28.4572V27.2836C28.4572 27.1284 28.5833 27.0023 28.7384 27.0023C28.8936 27.0023 29.0197 27.1284 29.0197 27.2836V29.2139H30.3261C30.5642 29.2139 30.7578 29.0203 30.7578 28.7822V26.9723C30.7573 25.7362 29.7523 24.7308 28.5163 24.7308Z" fill="#68D585"/>
<path fill-rule="evenodd" clip-rule="evenodd" d="M13.7867 16.7353C13.7867 17.415 13.8964 18.0694 14.098 18.6816H16.4408C16.3395 18.0553 16.2875 17.4009 16.2875 16.7353C16.2875 16.0669 16.3395 15.4125 16.4403 14.7891H14.098C13.8964 15.4017 13.7867 16.0556 13.7867 16.7353ZM23.6061 18.6816H25.9489C26.1505 18.0689 26.2602 17.4145 26.2602 16.7353C26.2602 16.0561 26.1505 15.4017 25.9489 14.7891H23.6066C23.7073 15.4125 23.7594 16.0669 23.7594 16.7353C23.7589 17.4009 23.7073 18.0553 23.6061 18.6816ZM25.7323 19.2441C25.0714 20.7417 23.8391 21.9323 22.3123 22.5366C22.8331 21.9839 23.1561 21.2433 23.1678 20.4286C23.3 20.0527 23.4111 19.6561 23.4997 19.2441H25.7323ZM20.3047 14.7891V17.2495C21.2961 17.3377 22.1558 17.8875 22.6686 18.682H23.0356C23.1416 18.0586 23.1969 17.4037 23.1969 16.7358C23.1969 16.0641 23.1416 15.4097 23.0361 14.7895L20.3047 14.7891ZM17.3783 18.6816C17.8911 17.887 18.7508 17.3372 19.7422 17.2491V14.7886H17.0108C16.9058 15.4087 16.85 16.0631 16.85 16.7348C16.85 17.4033 16.9053 18.0581 17.0113 18.6811L17.3783 18.6816ZM16.5467 19.2441C16.6353 19.6561 16.7464 20.0527 16.8786 20.4286C16.8903 21.2433 17.2137 21.9839 17.7341 22.5366C16.2073 21.9323 14.975 20.7417 14.3141 19.2441H16.5467Z" fill="#ACE8BC"/>
<path d="M16.5458 14.2261C16.723 13.402 16.9873 12.6441 17.3319 11.9944C17.5939 11.4998 17.8911 11.0883 18.2141 10.7658C16.467 11.2964 15.0425 12.5742 14.3136 14.2261H16.5458Z" fill="#ACE8BC"/>
<path d="M19.7417 14.2261H17.1214C17.2869 13.4995 17.5245 12.832 17.8287 12.2578C18.3603 11.2547 19.0311 10.65 19.7417 10.5234V14.2261Z" fill="#ACE8BC"/>
<path d="M22.925 14.2261C22.7595 13.4995 22.5219 12.832 22.2177 12.2578C21.6861 11.2547 21.0153 10.65 20.3047 10.5234V14.2261H22.925Z" fill="#ACE8BC"/>
<path d="M23.5006 14.2261C23.3239 13.402 23.0591 12.6441 22.7145 11.9944C22.4525 11.4998 22.1553 11.0883 21.8323 10.7658C23.5794 11.2964 25.0039 12.5742 25.7328 14.2261H23.5006Z" fill="#ACE8BC"/>
</svg>
