<svg width="40" height="40" viewBox="0 0 40 40" fill="none" xmlns="http://www.w3.org/2000/svg">
<rect width="40" height="40" rx="6" fill="#EDEBFD"/>
<path d="M22.9812 20.7317C22.9719 20.8582 22.9625 20.9848 22.9625 21.1161V22.4286C22.2219 22.7332 21.6969 23.4598 21.6969 24.3129V28.8082C21.6969 29.2114 21.814 29.5864 22.0156 29.9051H10.2219C8.95154 29.9051 8.04686 28.6676 8.43592 27.4582L9.97811 22.6395C10.475 21.0926 12.1672 20.2911 13.6765 20.877C14.6797 21.2661 15.9687 21.5707 17.5484 21.5707C19.1281 21.5707 20.4172 21.2661 21.4203 20.877C21.9406 20.6707 22.475 20.6332 22.9812 20.7317Z" fill="#4B5CF6"/>
<path d="M17.5535 19.7652C20.2226 19.7652 22.3863 17.6015 22.3863 14.9324C22.3863 12.2633 20.2226 10.0996 17.5535 10.0996C14.8844 10.0996 12.7207 12.2633 12.7207 14.9324C12.7207 17.6015 14.8844 19.7652 17.5535 19.7652Z" fill="#4B5CF6"/>
<path d="M30.716 23.2141H30.3316V21.1141C30.3316 19.3375 28.8926 17.8984 27.116 17.8984C25.3395 17.8984 23.9004 19.3375 23.9004 21.1141V23.2141H23.5723C23.0566 23.2141 22.6348 23.6359 22.6348 24.1516V28.9609C22.6348 29.4766 23.0566 29.8984 23.5723 29.8984H30.716C31.2316 29.8984 31.6535 29.4766 31.6535 28.9609V24.1516C31.6535 23.6313 31.2363 23.2141 30.716 23.2141ZM25.7004 21.1141C25.7004 20.3312 26.3379 19.6984 27.116 19.6984C27.8941 19.6984 28.5316 20.3359 28.5316 21.1141V23.2141H25.6957L25.7004 21.1141Z" fill="#9CA4F9"/>
</svg>
