<svg width="40" height="40" viewBox="0 0 40 40" fill="none" xmlns="http://www.w3.org/2000/svg">
<rect width="40" height="40" rx="6" fill="#EBF7FD"/>
<g clip-path="url(#clip0_37_6395)">
<path d="M10.8125 18.5937C10.8125 18.2052 10.4979 17.8906 10.1094 17.8906H8.70312C8.31458 17.8906 8 18.2052 8 18.5937C8 18.9825 8.31458 19.2969 8.70312 19.2969H10.1094C10.4979 19.2969 10.8125 18.9825 10.8125 18.5937Z" fill="#90D1F5"/>
<path d="M31.2969 17.8906H29.8906C29.5021 17.8906 29.1875 18.2052 29.1875 18.5937C29.1875 18.9825 29.5021 19.2969 29.8906 19.2969H31.2969C31.6854 19.2969 32 18.9825 32 18.5937C32 18.2052 31.6854 17.8906 31.2969 17.8906Z" fill="#90D1F5"/>
<path d="M11.8268 13.0629L10.6086 12.3597C10.2723 12.1653 9.84235 12.2806 9.64807 12.6172C9.4538 12.9537 9.56915 13.3835 9.90552 13.5778L11.1237 14.2809C11.4579 14.4739 11.8884 14.3614 12.0843 14.0234C12.2786 13.6869 12.1632 13.2571 11.8268 13.0629Z" fill="#90D1F5"/>
<path d="M30.0944 23.6098L28.8762 22.9067C28.5391 22.7129 28.1094 22.8276 27.9156 23.1641C27.7214 23.5007 27.8367 23.9304 28.1731 24.1247L29.3913 24.8278C29.7255 25.0208 30.1559 24.9084 30.3519 24.5704C30.5461 24.2338 30.4308 23.8041 30.0944 23.6098Z" fill="#90D1F5"/>
<path d="M14.4695 10.2727C14.6652 10.6107 15.0959 10.7232 15.4301 10.5302C15.7666 10.3357 15.882 9.90597 15.6875 9.5696L14.9844 8.3514C14.7901 8.01577 14.3582 7.90023 14.0238 8.09396C13.6873 8.28823 13.5719 8.71816 13.7664 9.05453L14.4695 10.2727Z" fill="#90D1F5"/>
<path d="M11.1237 22.9067L9.90552 23.6098C9.56915 23.8041 9.4538 24.2338 9.64807 24.5704C9.84399 24.9085 10.2745 25.021 10.6086 24.8278L11.8268 24.1247C12.1632 23.9304 12.2786 23.5007 12.0843 23.1641C11.8893 22.8276 11.4573 22.7129 11.1237 22.9067Z" fill="#90D1F5"/>
<path d="M28.8762 14.2809L30.0944 13.5778C30.4308 13.3835 30.5461 12.9537 30.3519 12.6172C30.1569 12.2806 29.7249 12.1653 29.3913 12.3597L28.1731 13.0629C27.8367 13.2571 27.7214 13.6869 27.9156 14.0234C28.1116 14.3616 28.5421 14.4741 28.8762 14.2809Z" fill="#90D1F5"/>
<path d="M24.5707 10.5302C24.9048 10.7232 25.3355 10.6108 25.5312 10.2728L26.2344 9.05457C26.4288 8.7182 26.3135 8.28827 25.9769 8.094C25.6411 7.90046 25.2106 8.01581 25.0164 8.35144L24.3132 9.56964C24.1188 9.90601 24.2341 10.3359 24.5707 10.5302Z" fill="#90D1F5"/>
<path d="M24.8755 12.5897C23.0593 11.1128 20.6795 10.545 18.3427 11.0324C15.3072 11.6648 12.9122 14.1538 12.3833 17.2247C11.9404 19.7967 12.7886 22.397 14.6513 24.1818C15.6423 25.1299 16.2447 26.3986 16.4109 27.7344H19.2965V24.4317L16.6405 20.4477L15.2837 19.0909C15.0091 18.8162 15.0091 18.3713 15.2837 18.0966C15.5584 17.822 16.0033 17.822 16.278 18.0966L17.1871 19.0057L18.0962 18.0966C18.3709 17.822 18.8158 17.822 19.0905 18.0966L19.9996 19.0057L20.9087 18.0966C21.1834 17.822 21.6283 17.822 21.903 18.0966L22.8121 19.0057L23.7212 18.0966C23.9959 17.822 24.4408 17.822 24.7155 18.0966C24.9902 18.3713 24.9902 18.8162 24.7155 19.0909L23.3587 20.4477L20.7027 24.4317V27.7344H23.548C23.6301 26.4711 24.2297 25.2339 25.3005 24.2262C26.8468 22.77 27.734 20.7168 27.734 18.5937C27.734 16.2549 26.6923 14.0666 24.8755 12.5897Z" fill="#35AAEC"/>
<path d="M21.4063 19.588L20.4972 20.4971C20.2225 20.7718 19.7776 20.7718 19.5029 20.4971L18.5938 19.588L18.0923 20.0895L20.0001 22.9513L21.9078 20.0895L21.4063 19.588Z" fill="#35AAEC"/>
<path d="M16.4844 29.8906C16.4844 31.0537 17.4307 32 18.5937 32H21.4062C22.5693 32 23.5156 31.0537 23.5156 29.8906V29.1406H16.4844V29.8906Z" fill="#35AAEC"/>
</g>
<defs>
<clipPath id="clip0_37_6395">
<rect width="24" height="24" fill="white" transform="translate(8 8)"/>
</clipPath>
</defs>
</svg>
