<svg width="41" height="40" viewBox="0 0 41 40" fill="none" xmlns="http://www.w3.org/2000/svg">
<g clip-path="url(#clip0_55_10443)">
<path fill-rule="evenodd" clip-rule="evenodd" d="M26.1111 0.0839844L26.1495 10.5874L36.4608 0.295205L39.802 3.59792L29.5482 13.8709L39.9364 13.9093L36.5804 18.4793L21.541 18.4217V3.45915L26.1111 0.0839844Z" fill="#D31627"/>
</g>
<path fill-rule="evenodd" clip-rule="evenodd" d="M13.7957 39.918L13.7574 29.4074L3.46698 39.7066L0.132658 36.4016L10.3656 26.1217L-0.0014808 26.0833L3.34765 21.5101L18.3564 21.5678L18.3564 36.5405L13.7957 39.918Z" fill="#D31627"/>
<g clip-path="url(#clip1_55_10443)">
<path fill-rule="evenodd" clip-rule="evenodd" d="M13.971 0.0839844L13.9326 10.5874L3.62119 0.295205L0.280071 3.59792L10.5339 13.8709L0.145658 13.9093L3.50162 18.4793L18.541 18.4217V3.45915L13.971 0.0839844Z" fill="#D31627"/>
</g>
<g clip-path="url(#clip2_55_10443)">
<path fill-rule="evenodd" clip-rule="evenodd" d="M25.9704 39.8906L26.0088 29.3872L36.3202 39.6794L39.6613 36.3767L29.4076 26.1037L39.7957 26.0653L36.4398 21.4953L21.4004 21.5529L21.4004 36.5155L25.9704 39.8906Z" fill="#D31627"/>
</g>
<defs>
<clipPath id="clip0_55_10443">
<rect width="18.5744" height="18.5744" fill="white" transform="translate(21.5059)"/>
</clipPath>
<clipPath id="clip1_55_10443">
<rect width="18.5744" height="18.5744" fill="white" transform="matrix(-1 0 0 1 18.5762 0)"/>
</clipPath>
<clipPath id="clip2_55_10443">
<rect width="18.5744" height="18.5744" fill="white" transform="matrix(1 8.74228e-08 8.74228e-08 -1 21.3652 39.9746)"/>
</clipPath>
</defs>
</svg>
