<svg width="225" height="30" viewBox="0 0 225 30" fill="none" xmlns="http://www.w3.org/2000/svg">
<path d="M48.3375 22.4315C45.9304 22.4315 44.0731 21.7926 42.7656 20.5148C41.4729 19.2221 40.8266 17.2237 40.8266 14.5195C40.8266 12.7216 41.1386 11.2432 41.7627 10.0843C42.3867 8.91046 43.2931 8.04125 44.4817 7.47664C45.6704 6.89716 47.0968 6.60743 48.7609 6.60743C49.7564 6.60743 50.6925 6.71887 51.5691 6.94174C52.4458 7.16461 53.2184 7.50635 53.887 7.96696C54.5705 8.42757 55.098 9.00704 55.4694 9.70538C55.8558 10.3889 56.0489 11.2061 56.0489 12.157H52.6835C52.6835 11.6964 52.5795 11.2878 52.3715 10.9312C52.1783 10.5746 51.9035 10.2774 51.5469 10.0397C51.1903 9.80196 50.7817 9.62366 50.3211 9.5048C49.8604 9.38593 49.3775 9.3265 48.8724 9.3265C48.0997 9.3265 47.4237 9.4305 46.8442 9.63852C46.2647 9.83168 45.7818 10.1363 45.3955 10.5523C45.0241 10.9535 44.7418 11.4587 44.5486 12.0679C44.3554 12.677 44.2589 13.3828 44.2589 14.1852V14.8538C44.2589 15.9682 44.4223 16.8819 44.7492 17.5951C45.0761 18.3083 45.5664 18.8432 46.2202 19.1998C46.8739 19.5416 47.6837 19.7124 48.6495 19.7124C49.4518 19.7124 50.1576 19.5936 50.7668 19.3558C51.3908 19.1033 51.8737 18.7467 52.2155 18.286C52.5721 17.8254 52.7504 17.2608 52.7504 16.5922V16.4362H48.1815V13.8954H56.0489V22.1641H53.8648L53.575 20.5148C53.1293 20.9457 52.6464 21.3023 52.1263 21.5846C51.6212 21.8669 51.0565 22.0749 50.4325 22.2086C49.8084 22.3572 49.1101 22.4315 48.3375 22.4315ZM58.9855 22.1641V6.05024H62.0834V22.1641H58.9855ZM70.3209 22.4315C69.0431 22.4315 67.9584 22.2161 67.0669 21.7852C66.1754 21.3394 65.4994 20.6634 65.0388 19.757C64.5782 18.8358 64.3479 17.6843 64.3479 16.3025C64.3479 14.8909 64.5782 13.7394 65.0388 12.8479C65.4994 11.9416 66.1754 11.2729 67.0669 10.842C67.9584 10.3963 69.0431 10.1734 70.3209 10.1734C71.6284 10.1734 72.7205 10.3963 73.5971 10.842C74.4886 11.2729 75.1647 11.9416 75.6253 12.8479C76.0859 13.7394 76.3162 14.8909 76.3162 16.3025C76.3162 17.6843 76.0859 18.8358 75.6253 19.757C75.1647 20.6634 74.4886 21.3394 73.5971 21.7852C72.7205 22.2161 71.6284 22.4315 70.3209 22.4315ZM70.3209 20.0245C71.0044 20.0245 71.5467 19.8982 71.9479 19.6456C72.3639 19.393 72.6685 19.0067 72.8617 18.4866C73.0548 17.9666 73.1514 17.3277 73.1514 16.5699V16.035C73.1514 15.2772 73.0548 14.6383 72.8617 14.1183C72.6685 13.5983 72.3639 13.2119 71.9479 12.9593C71.5467 12.6919 71.0044 12.5582 70.3209 12.5582C69.6523 12.5582 69.1099 12.6919 68.6939 12.9593C68.2927 13.2119 67.9956 13.5983 67.8024 14.1183C67.6093 14.6383 67.5127 15.2772 67.5127 16.035V16.5699C67.5127 17.3277 67.6093 17.9666 67.8024 18.4866C67.9956 19.0067 68.2927 19.393 68.6939 19.6456C69.1099 19.8982 69.6523 20.0245 70.3209 20.0245ZM85.1483 22.4315C84.3905 22.4315 83.6922 22.2829 83.0533 21.9858C82.4292 21.6737 81.9241 21.2057 81.5377 20.5817H81.3817L81.1366 22.1641H78.5958V6.05024H81.6938V11.7335H81.8275C82.0652 11.3918 82.355 11.1021 82.6967 10.8643C83.0384 10.6266 83.4248 10.4557 83.8556 10.3517C84.2865 10.2329 84.7546 10.1734 85.2598 10.1734C86.181 10.1734 86.9833 10.3889 87.6668 10.8198C88.3651 11.2506 88.9075 11.9193 89.2938 12.8256C89.6801 13.7171 89.8733 14.8686 89.8733 16.2802C89.8733 17.6917 89.6801 18.8507 89.2938 19.757C88.9223 20.6634 88.38 21.3394 87.6668 21.7852C86.9685 22.2161 86.129 22.4315 85.1483 22.4315ZM84.19 19.8907C84.814 19.8907 85.3043 19.7719 85.6609 19.5341C86.0324 19.2816 86.2998 18.9101 86.4633 18.4198C86.6267 17.9294 86.7084 17.3128 86.7084 16.5699V16.0573C86.7084 15.3144 86.6267 14.6978 86.4633 14.2074C86.2998 13.7023 86.0324 13.3308 85.6609 13.0931C85.3043 12.8405 84.814 12.7142 84.19 12.7142C83.7442 12.7142 83.3653 12.7959 83.0533 12.9593C82.7413 13.1079 82.4813 13.3308 82.2732 13.628C82.0801 13.9103 81.9315 14.2669 81.8275 14.6978C81.7235 15.1287 81.6715 15.6041 81.6715 16.1242V16.5253C81.6715 17.2237 81.7606 17.8254 81.9389 18.3306C82.1172 18.8358 82.3921 19.2221 82.7636 19.4896C83.135 19.757 83.6105 19.8907 84.19 19.8907ZM95.2534 22.4315C94.8671 22.4315 94.4511 22.3869 94.0053 22.2978C93.5744 22.2086 93.1658 22.0526 92.7795 21.8298C92.3932 21.592 92.0737 21.2577 91.8211 20.8268C91.5834 20.3811 91.4645 19.8165 91.4645 19.133C91.4645 18.3158 91.6428 17.6397 91.9994 17.1048C92.356 16.5699 92.8612 16.1539 93.515 15.8567C94.1836 15.5447 94.9785 15.3292 95.8997 15.2104C96.821 15.0915 97.8387 15.0321 98.9531 15.0321V14.1629C98.9531 13.8211 98.8937 13.524 98.7748 13.2714C98.6708 13.0188 98.4777 12.8182 98.1953 12.6696C97.9279 12.521 97.549 12.4467 97.0587 12.4467C96.5684 12.4467 96.1672 12.5062 95.8552 12.625C95.558 12.7439 95.3426 12.8999 95.2088 13.0931C95.09 13.2714 95.0305 13.472 95.0305 13.6948V13.9623H92.0217C92.0069 13.888 91.9994 13.8211 91.9994 13.7617C91.9994 13.6874 91.9994 13.5983 91.9994 13.4942C91.9994 12.8108 92.2075 12.2239 92.6235 11.7335C93.0395 11.2284 93.6264 10.842 94.3842 10.5746C95.142 10.3071 96.026 10.1734 97.0364 10.1734C98.1211 10.1734 99.0274 10.3146 99.7555 10.5969C100.498 10.8792 101.063 11.2952 101.449 11.845C101.85 12.3947 102.051 13.0856 102.051 13.9177V19.2444C102.051 19.5119 102.125 19.7124 102.274 19.8462C102.437 19.965 102.616 20.0245 102.809 20.0245H103.544V22.0526C103.396 22.1269 103.165 22.2012 102.853 22.2755C102.541 22.3646 102.163 22.4092 101.717 22.4092C101.286 22.4092 100.9 22.3424 100.558 22.2086C100.231 22.0898 99.9561 21.9189 99.7332 21.696C99.5103 21.4583 99.3543 21.176 99.2651 20.8491H99.1091C98.8565 21.1611 98.5445 21.436 98.1731 21.6737C97.8165 21.9115 97.393 22.0972 96.9027 22.2309C96.4272 22.3646 95.8775 22.4315 95.2534 22.4315ZM96.3009 20.0913C96.7169 20.0913 97.0884 20.0319 97.4153 19.913C97.7422 19.7793 98.017 19.6084 98.2399 19.4004C98.4628 19.1775 98.6337 18.9101 98.7525 18.5981C98.8863 18.286 98.9531 17.9517 98.9531 17.5951V16.9488C98.1211 16.9488 97.3781 17.0082 96.7244 17.1271C96.0706 17.2311 95.5506 17.4168 95.1643 17.6843C94.7928 17.9517 94.6071 18.3232 94.6071 18.7987C94.6071 19.0661 94.6739 19.2964 94.8077 19.4896C94.9414 19.6827 95.1345 19.8313 95.3871 19.9353C95.6397 20.0393 95.9443 20.0913 96.3009 20.0913ZM105.084 22.1641V6.05024H108.182V22.1641H105.084ZM116.087 22.1641V6.87488H118.204V22.1641H116.087ZM121.65 22.1641V10.4409H123.232L123.41 12.2016H123.566C123.878 11.7261 124.228 11.3398 124.614 11.0426C125.015 10.7455 125.453 10.53 125.929 10.3963C126.419 10.2477 126.939 10.1734 127.489 10.1734C128.232 10.1734 128.878 10.2997 129.428 10.5523C129.993 10.8049 130.431 11.2135 130.743 11.7781C131.07 12.3427 131.233 13.1079 131.233 14.0737V22.1641H129.272V14.3412C129.272 13.8508 129.205 13.4497 129.071 13.1376C128.953 12.8256 128.782 12.5805 128.559 12.4022C128.351 12.2239 128.091 12.0976 127.779 12.0233C127.482 11.949 127.147 11.9118 126.776 11.9118C126.226 11.9118 125.706 12.0456 125.216 12.313C124.725 12.5805 124.332 12.9668 124.034 13.472C123.752 13.9771 123.611 14.5789 123.611 15.2772V22.1641H121.65ZM137.306 22.1641L132.96 10.4409H135.011L137.15 16.3025C137.254 16.5848 137.373 16.9414 137.507 17.3723C137.64 17.7883 137.774 18.2192 137.908 18.6649C138.056 19.0958 138.175 19.4821 138.265 19.8239H138.376C138.48 19.497 138.599 19.1181 138.733 18.6872C138.866 18.2415 139 17.8106 139.134 17.3945C139.282 16.9637 139.409 16.5996 139.513 16.3025L141.63 10.4409H143.613L139.267 22.1641H137.306ZM150.011 22.4315C148.852 22.4315 147.871 22.2161 147.069 21.7852C146.281 21.3394 145.679 20.6634 145.263 19.757C144.862 18.8507 144.662 17.6991 144.662 16.3025C144.662 14.8909 144.862 13.7394 145.263 12.8479C145.679 11.9416 146.289 11.2729 147.091 10.842C147.893 10.3963 148.896 10.1734 150.1 10.1734C151.199 10.1734 152.12 10.3889 152.863 10.8198C153.606 11.2358 154.163 11.8673 154.535 12.7142C154.921 13.5463 155.114 14.5938 155.114 15.8567V16.7928H146.69C146.719 17.7289 146.853 18.5015 147.091 19.1107C147.343 19.705 147.715 20.1433 148.205 20.4256C148.696 20.6931 149.312 20.8268 150.055 20.8268C150.56 20.8268 150.999 20.7674 151.37 20.6485C151.756 20.5148 152.076 20.3291 152.328 20.0913C152.596 19.8536 152.796 19.5713 152.93 19.2444C153.064 18.9175 153.138 18.5609 153.153 18.1746H155.07C155.055 18.7987 154.936 19.3781 154.713 19.913C154.49 20.4331 154.163 20.8788 153.733 21.2503C153.302 21.6217 152.774 21.9115 152.15 22.1195C151.526 22.3275 150.813 22.4315 150.011 22.4315ZM146.734 15.3218H153.086C153.086 14.6681 153.012 14.1183 152.863 13.6725C152.715 13.2268 152.499 12.8628 152.217 12.5805C151.95 12.2982 151.63 12.0976 151.259 11.9787C150.902 11.845 150.493 11.7781 150.033 11.7781C149.349 11.7781 148.77 11.9044 148.294 12.157C147.819 12.4096 147.455 12.7959 147.202 13.3159C146.95 13.836 146.794 14.5046 146.734 15.3218ZM161.641 22.4315C160.839 22.4315 160.133 22.3498 159.524 22.1863C158.915 22.0229 158.41 21.7852 158.008 21.4732C157.607 21.1611 157.303 20.7897 157.095 20.3588C156.887 19.9279 156.783 19.4376 156.783 18.8878C156.783 18.8135 156.783 18.7467 156.783 18.6872C156.783 18.6129 156.79 18.5535 156.805 18.5089H158.744C158.729 18.5684 158.722 18.6204 158.722 18.6649C158.722 18.7095 158.722 18.7541 158.722 18.7987C158.736 19.3187 158.87 19.7273 159.123 20.0245C159.39 20.3216 159.754 20.5297 160.215 20.6485C160.675 20.7674 161.188 20.8268 161.753 20.8268C162.243 20.8268 162.696 20.7674 163.112 20.6485C163.528 20.5148 163.855 20.3216 164.093 20.069C164.345 19.8016 164.472 19.4673 164.472 19.0661C164.472 18.5758 164.308 18.2043 163.981 17.9517C163.669 17.6843 163.253 17.4763 162.733 17.3277C162.213 17.1791 161.671 17.0231 161.106 16.8597C160.631 16.7259 160.155 16.5773 159.68 16.4139C159.204 16.2505 158.774 16.0499 158.387 15.8121C158.016 15.5744 157.711 15.2698 157.473 14.8984C157.251 14.512 157.139 14.0291 157.139 13.4497C157.139 12.9296 157.243 12.469 157.451 12.0679C157.674 11.6667 157.986 11.3249 158.387 11.0426C158.788 10.7603 159.271 10.5523 159.836 10.4186C160.415 10.27 161.054 10.1957 161.753 10.1957C162.496 10.1957 163.142 10.2774 163.692 10.4409C164.256 10.6043 164.724 10.8346 165.096 11.1318C165.467 11.4289 165.742 11.7707 165.92 12.157C166.099 12.5285 166.188 12.9296 166.188 13.3605C166.188 13.4497 166.188 13.5388 166.188 13.628C166.188 13.7023 166.18 13.7617 166.166 13.8063H164.249V13.5611C164.249 13.2639 164.167 12.9816 164.004 12.7142C163.855 12.4319 163.588 12.209 163.201 12.0456C162.83 11.8673 162.31 11.7781 161.641 11.7781C161.21 11.7781 160.839 11.8153 160.527 11.8896C160.215 11.949 159.955 12.053 159.747 12.2016C159.539 12.3353 159.383 12.4987 159.279 12.6919C159.175 12.8702 159.123 13.0782 159.123 13.3159C159.123 13.7023 159.249 13.9994 159.502 14.2074C159.754 14.4155 160.089 14.5863 160.505 14.7201C160.935 14.8538 161.396 15.0024 161.886 15.1658C162.406 15.3144 162.934 15.4704 163.469 15.6338C164.019 15.7824 164.516 15.9756 164.962 16.2133C165.423 16.451 165.787 16.7779 166.054 17.194C166.336 17.5951 166.478 18.13 166.478 18.7987C166.478 19.4227 166.359 19.965 166.121 20.4256C165.883 20.8862 165.542 21.2651 165.096 21.5623C164.665 21.8595 164.152 22.0749 163.558 22.2086C162.978 22.3572 162.34 22.4315 161.641 22.4315ZM171.643 22.4315C171.034 22.4315 170.558 22.3201 170.217 22.0972C169.875 21.8595 169.63 21.5549 169.481 21.1834C169.333 20.7971 169.258 20.3885 169.258 19.9576V12.0901H167.743V10.4409H169.303L169.66 7.16461H171.22V10.4409H173.426V12.0901H171.22V19.6679C171.22 20.0393 171.286 20.3216 171.42 20.5148C171.554 20.6931 171.807 20.7822 172.178 20.7822H173.426V22.0749C173.278 22.1492 173.099 22.2086 172.891 22.2532C172.683 22.2978 172.468 22.3349 172.245 22.3646C172.037 22.4092 171.836 22.4315 171.643 22.4315ZM175.518 22.1641V10.4409H177.101L177.279 12.2016H177.435C177.732 11.7261 178.067 11.3398 178.438 11.0426C178.809 10.7455 179.218 10.53 179.664 10.3963C180.11 10.2477 180.592 10.1734 181.112 10.1734C181.87 10.1734 182.524 10.3294 183.074 10.6415C183.624 10.9386 184.032 11.4587 184.3 12.2016H184.433C184.716 11.7261 185.042 11.3472 185.414 11.0649C185.785 10.7678 186.201 10.5449 186.662 10.3963C187.123 10.2477 187.613 10.1734 188.133 10.1734C188.846 10.1734 189.47 10.2997 190.005 10.5523C190.54 10.79 190.956 11.1912 191.253 11.7558C191.565 12.3056 191.721 13.0485 191.721 13.9846V22.1641H189.76V14.2966C189.76 13.8211 189.701 13.4274 189.582 13.1154C189.478 12.8033 189.322 12.5656 189.114 12.4022C188.906 12.2239 188.66 12.0976 188.378 12.0233C188.111 11.949 187.821 11.9118 187.509 11.9118C186.989 11.9118 186.506 12.0456 186.06 12.313C185.629 12.5805 185.28 12.9668 185.013 13.472C184.745 13.9771 184.612 14.5789 184.612 15.2772V22.1641H182.65V14.2966C182.65 13.8211 182.591 13.4274 182.472 13.1154C182.353 12.8033 182.197 12.5656 182.004 12.4022C181.811 12.2239 181.573 12.0976 181.291 12.0233C181.023 11.949 180.741 11.9118 180.444 11.9118C179.909 11.9118 179.411 12.0456 178.951 12.313C178.505 12.5805 178.148 12.9668 177.881 13.472C177.613 13.9771 177.48 14.5789 177.48 15.2772V22.1641H175.518ZM199.374 22.4315C198.215 22.4315 197.234 22.2161 196.432 21.7852C195.644 21.3394 195.043 20.6634 194.626 19.757C194.225 18.8507 194.025 17.6991 194.025 16.3025C194.025 14.8909 194.225 13.7394 194.626 12.8479C195.043 11.9416 195.652 11.2729 196.454 10.842C197.256 10.3963 198.259 10.1734 199.463 10.1734C200.562 10.1734 201.484 10.3889 202.227 10.8198C202.969 11.2358 203.527 11.8673 203.898 12.7142C204.284 13.5463 204.478 14.5938 204.478 15.8567V16.7928H196.053C196.083 17.7289 196.216 18.5015 196.454 19.1107C196.707 19.705 197.078 20.1433 197.568 20.4256C198.059 20.6931 198.675 20.8268 199.418 20.8268C199.923 20.8268 200.362 20.7674 200.733 20.6485C201.12 20.5148 201.439 20.3291 201.692 20.0913C201.959 19.8536 202.16 19.5713 202.293 19.2444C202.427 18.9175 202.501 18.5609 202.516 18.1746H204.433C204.418 18.7987 204.299 19.3781 204.076 19.913C203.853 20.4331 203.527 20.8788 203.096 21.2503C202.665 21.6217 202.137 21.9115 201.513 22.1195C200.889 22.3275 200.176 22.4315 199.374 22.4315ZM196.097 15.3218H202.449C202.449 14.6681 202.375 14.1183 202.227 13.6725C202.078 13.2268 201.862 12.8628 201.58 12.5805C201.313 12.2982 200.993 12.0976 200.622 11.9787C200.265 11.845 199.857 11.7781 199.396 11.7781C198.713 11.7781 198.133 11.9044 197.658 12.157C197.182 12.4096 196.818 12.7959 196.565 13.3159C196.313 13.836 196.157 14.5046 196.097 15.3218ZM206.904 22.1641V10.4409H208.486L208.664 12.2016H208.82C209.132 11.7261 209.481 11.3398 209.868 11.0426C210.269 10.7455 210.707 10.53 211.183 10.3963C211.673 10.2477 212.193 10.1734 212.743 10.1734C213.486 10.1734 214.132 10.2997 214.682 10.5523C215.246 10.8049 215.685 11.2135 215.997 11.7781C216.324 12.3427 216.487 13.1079 216.487 14.0737V22.1641H214.526V14.3412C214.526 13.8508 214.459 13.4497 214.325 13.1376C214.206 12.8256 214.036 12.5805 213.813 12.4022C213.605 12.2239 213.345 12.0976 213.033 12.0233C212.735 11.949 212.401 11.9118 212.03 11.9118C211.48 11.9118 210.96 12.0456 210.47 12.313C209.979 12.5805 209.585 12.9668 209.288 13.472C209.006 13.9771 208.865 14.5789 208.865 15.2772V22.1641H206.904ZM222.203 22.4315C221.594 22.4315 221.119 22.3201 220.777 22.0972C220.435 21.8595 220.19 21.5549 220.041 21.1834C219.893 20.7971 219.819 20.3885 219.819 19.9576V12.0901H218.303V10.4409H219.863L220.22 7.16461H221.78V10.4409H223.986V12.0901H221.78V19.6679C221.78 20.0393 221.847 20.3216 221.98 20.5148C222.114 20.6931 222.367 20.7822 222.738 20.7822H223.986V22.0749C223.838 22.1492 223.659 22.2086 223.451 22.2532C223.243 22.2978 223.028 22.3349 222.805 22.3646C222.597 22.4092 222.397 22.4315 222.203 22.4315Z" fill="#161C2D"/>
<g clip-path="url(#clip0_504_124)">
<path fill-rule="evenodd" clip-rule="evenodd" d="M19.6003 0.0634766L19.6291 7.94637L27.3679 0.221999L29.8754 2.70072L22.1799 10.4107L29.9763 10.4395L27.4576 13.8694L16.1704 13.8261V2.59656L19.6003 0.0634766Z" fill="#D31627"/>
</g>
<path fill-rule="evenodd" clip-rule="evenodd" d="M10.375 29.9385L10.3462 22.0556L2.60741 29.78L0.0998738 27.3012L7.79542 19.5913L-0.00100427 19.5625L2.51767 16.1326L13.8049 16.1758L13.8049 27.4054L10.375 29.9385Z" fill="#D31627"/>
<g clip-path="url(#clip1_504_124)">
<path fill-rule="evenodd" clip-rule="evenodd" d="M10.4803 0.0634766L10.4515 7.94637L2.7127 0.221999L0.205159 2.70072L7.90071 10.4107L0.10428 10.4395L2.62296 13.8694L13.9102 13.8261V2.59656L10.4803 0.0634766Z" fill="#D31627"/>
</g>
<g clip-path="url(#clip2_504_124)">
<path fill-rule="evenodd" clip-rule="evenodd" d="M19.4932 29.9375L19.522 22.0546L27.2608 29.779L29.7684 27.3003L22.0728 19.5903L29.8692 19.5615L27.3506 16.1316L16.0634 16.1749L16.0634 27.4044L19.4932 29.9375Z" fill="#D31627"/>
</g>
<defs>
<clipPath id="clip0_504_124">
<rect width="13.9402" height="13.9402" fill="white" transform="translate(16.1411)"/>
</clipPath>
<clipPath id="clip1_504_124">
<rect width="13.9402" height="13.9402" fill="white" transform="matrix(-1 0 0 1 13.9395 0)"/>
</clipPath>
<clipPath id="clip2_504_124">
<rect width="13.9402" height="13.9402" fill="white" transform="matrix(1 8.74228e-08 8.74228e-08 -1 16.0355 30.001)"/>
</clipPath>
</defs>
</svg>
