<svg width="36" height="36" viewBox="0 0 36 36" fill="none" xmlns="http://www.w3.org/2000/svg">
<g clip-path="url(#clip0_1_5408)">
<path d="M33.6064 18.4662C33.4615 18.1698 33.4615 17.8299 33.6064 17.5336L34.9491 14.7869C35.6966 13.2575 35.1043 11.4347 33.6006 10.6368L30.8999 9.20388C30.6085 9.04933 30.4088 8.77427 30.3518 8.4495L29.8236 5.43811C29.5295 3.76144 27.9785 2.63476 26.2934 2.87319L23.2662 3.30139C22.9395 3.34752 22.6164 3.24247 22.3794 3.01318L20.182 0.887507C18.9585 -0.296126 17.0418 -0.296196 15.8184 0.887507L13.621 3.01339C13.3839 3.24275 13.0608 3.34759 12.7342 3.3016L9.70702 2.8734C8.02129 2.63483 6.4709 3.76165 6.17679 5.43832L5.6486 8.44957C5.59158 8.77442 5.39182 9.04941 5.10052 9.20402L2.39983 10.637C0.89614 11.4347 0.303831 13.2577 1.05139 14.7871L2.394 17.5338C2.53884 17.8301 2.53884 18.17 2.394 18.4663L1.05132 21.213C0.303761 22.7423 0.89607 24.5652 2.39976 25.363L5.10045 26.796C5.39182 26.9505 5.59158 27.2256 5.6486 27.5503L6.17679 30.5617C6.44454 32.0881 7.75333 33.1585 9.25751 33.1584C9.40566 33.1584 9.55599 33.148 9.70709 33.1266L12.7342 32.6984C13.0607 32.652 13.384 32.7573 13.6211 32.9866L15.8184 35.1123C16.4303 35.7042 17.2151 36 18.0002 36C18.7851 35.9999 19.5704 35.704 20.182 35.1123L22.3794 32.9866C22.6165 32.7573 22.9396 32.6525 23.2662 32.6984L26.2934 33.1266C27.9793 33.3651 29.5295 32.2383 29.8236 30.5617L30.3518 27.5504C30.4089 27.2256 30.6086 26.9506 30.8999 26.796L33.6006 25.363C35.1043 24.5652 35.6966 22.7423 34.9491 21.2129L33.6064 18.4662ZM32.6274 23.5288L29.9267 24.9617C29.0657 25.4187 28.4751 26.2314 28.3067 27.1915L27.7786 30.2029C27.6791 30.7701 27.1546 31.1512 26.5842 31.0707L23.557 30.6425C22.5916 30.5057 21.6364 30.8164 20.9357 31.4941L18.7383 33.6198C18.3245 34.0201 17.676 34.0201 17.262 33.6198L15.0647 31.4941C14.4725 30.9212 13.6984 30.6108 12.8902 30.6108C12.7421 30.6108 12.5928 30.6212 12.4434 30.6424L9.41621 31.0706C8.84626 31.1512 8.32138 30.7701 8.22182 30.2028L7.69356 27.1914C7.52509 26.2312 6.93461 25.4185 6.0735 24.9617L3.37281 23.5287C2.86403 23.2588 2.66365 22.6421 2.91656 22.1246L4.25924 19.3779C4.6873 18.5021 4.6873 17.4976 4.25924 16.6218L2.91656 13.8751C2.66365 13.3576 2.86403 12.7409 3.37281 12.471L6.0735 11.038C6.93454 10.5811 7.52509 9.76842 7.69349 8.80824L8.22167 5.79691C8.32124 5.22963 8.84562 4.84854 9.41607 4.92912L12.4432 5.35732C13.4082 5.49393 14.3639 5.18337 15.0645 4.50563L17.2619 2.37995C17.6758 1.97959 18.3243 1.97959 18.7383 2.37995L20.9356 4.50563C21.6362 5.18344 22.5917 5.49393 23.5569 5.35732L26.584 4.92912C27.154 4.84847 27.6789 5.22963 27.7784 5.79691L28.3066 8.80831C28.4751 9.76849 29.0655 10.5812 29.9267 11.038L32.6273 12.471C33.1361 12.7409 33.3365 13.3576 33.0836 13.8751L31.7409 16.6217C31.3129 17.4975 31.3129 18.5021 31.7409 19.3778L33.0836 22.1245C33.3366 22.6421 33.1362 23.2588 32.6274 23.5288Z" fill="#D31627"/>
<path d="M25.5847 10.4134C25.1793 10.008 24.5219 10.008 24.1165 10.4134L10.4134 24.1166C10.008 24.522 10.008 25.1793 10.4134 25.5847C10.6161 25.7875 10.8819 25.8888 11.1475 25.8888C11.4131 25.8888 11.6789 25.7875 11.8816 25.5847L25.5846 11.8817C25.9902 11.4762 25.9902 10.8189 25.5847 10.4134Z" fill="#D31627"/>
<path d="M13.8476 8.65625C11.7487 8.65625 10.041 10.3639 10.041 12.4629C10.041 14.5618 11.7487 16.2695 13.8476 16.2695C15.9466 16.2695 17.6543 14.5618 17.6543 12.4629C17.6543 10.3639 15.9466 8.65625 13.8476 8.65625ZM13.8476 14.1931C12.8936 14.1931 12.1174 13.4169 12.1174 12.4628C12.1174 11.5087 12.8936 10.7326 13.8476 10.7326C14.8017 10.7326 15.578 11.5087 15.578 12.4628C15.5779 13.4169 14.8017 14.1931 13.8476 14.1931Z" fill="#D31627"/>
<path d="M22.1523 19.7305C20.0534 19.7305 18.3457 21.4381 18.3457 23.5371C18.3457 25.6361 20.0534 27.3437 22.1523 27.3437C24.2513 27.3437 25.959 25.6361 25.959 23.5371C25.959 21.4381 24.2513 19.7305 22.1523 19.7305ZM22.1523 25.2673C21.1983 25.2673 20.422 24.4912 20.422 23.5371C20.422 22.583 21.1982 21.8069 22.1523 21.8069C23.1064 21.8069 23.8826 22.583 23.8826 23.5371C23.8826 24.4912 23.1064 25.2673 22.1523 25.2673Z" fill="#D31627"/>
</g>
<defs>
<clipPath id="clip0_1_5408">
<rect width="36" height="36" fill="white"/>
</clipPath>
</defs>
</svg>
