<svg width="36" height="36" viewBox="0 0 36 36" fill="none" xmlns="http://www.w3.org/2000/svg">
<g clip-path="url(#clip0_1_5413)">
<path d="M27.5633 21.9014L21.2144 24.4227C21.2646 22.7478 20.0903 21.2396 18.4119 20.9393L13.8696 20.1257C12.8721 17.8551 10.7267 16.309 8.24527 16.1257C6.6124 16.0054 5.0336 16.4821 3.75539 17.4542C3.57504 17.4213 3.69429 17.443 1.05469 17.4362C0.472219 17.4362 0 17.9084 0 18.4909C0 19.0734 0.472219 19.5456 1.05469 19.5456H2.51044V31.7808H1.05476C0.472289 31.7808 7.03125e-05 32.253 7.03125e-05 32.8355C7.03125e-05 33.418 0.472289 33.8902 1.05476 33.8902H3.5652C4.14766 33.8902 4.61988 33.418 4.61988 32.8355V31.4994H7.38169L19.0453 33.8691C19.2859 33.918 19.5464 33.8828 19.7752 33.7531L33.4262 26.0188C33.8748 25.7646 34.0739 25.2234 33.8969 24.7391C32.9604 22.1759 30.099 20.8942 27.5633 21.9014ZM19.0786 31.7234L7.69774 29.4111C7.51437 29.3739 7.66856 29.3972 4.61995 29.39V19.4893C5.55335 18.5913 6.7976 18.1339 8.09023 18.2295C9.93255 18.3655 11.5061 19.6069 12.0992 21.392C12.221 21.7587 12.5338 22.0295 12.9142 22.0976L18.0403 23.0157C18.7397 23.1408 19.2082 23.825 19.0885 24.5437L19.0863 24.5552C19.0849 24.5625 19.0835 24.5697 19.0823 24.5769C18.957 25.2988 18.2895 25.772 17.5958 25.6486C17.595 25.6485 17.5943 25.6484 17.5935 25.6482L17.5922 25.648C17.5917 25.6479 17.5911 25.6478 17.5906 25.6477C17.5906 25.6477 17.5771 25.6453 17.577 25.6453L11.8692 24.6228C11.2965 24.5203 10.7478 24.9015 10.6451 25.475C10.5424 26.0483 10.9239 26.5964 11.4973 26.6991C17.8983 27.8458 17.1427 27.7096 17.2228 27.7248C18.6555 27.9809 18.7248 27.6106 28.3419 23.8619C29.5162 23.3956 30.7766 23.8053 31.4852 24.6941L19.0786 31.7234Z" fill="#D31627"/>
<path d="M16.6465 6.25781C14.8631 6.25781 13.4121 7.70878 13.4121 9.49219C13.4121 11.2756 14.8631 12.7266 16.6465 12.7266C18.4299 12.7266 19.8809 11.2756 19.8809 9.49219C19.8809 7.70878 18.4299 6.25781 16.6465 6.25781ZM16.6465 10.6172C16.0262 10.6172 15.5215 10.1125 15.5215 9.49219C15.5215 8.87189 16.0262 8.36719 16.6465 8.36719C17.2668 8.36719 17.7715 8.87189 17.7715 9.49219C17.7715 10.1125 17.2668 10.6172 16.6465 10.6172Z" fill="#D31627"/>
<path d="M32.8359 6.39844H23.3916C22.1859 3.80461 19.5709 2.10938 16.6641 2.10938C12.5738 2.10938 9.24609 5.43705 9.24609 9.52734C9.24609 13.6176 12.5738 16.9453 16.6641 16.9453C19.5348 16.9453 22.1371 15.2779 23.358 12.7266H25.4355V15.8906C25.4355 16.4731 25.9078 16.9453 26.4902 16.9453H30.709C31.2915 16.9453 31.7637 16.4731 31.7637 15.8906V12.7266H32.8359C34.5806 12.7266 36 11.3072 36 9.5625C36 7.81784 34.5806 6.39844 32.8359 6.39844ZM32.8359 10.6172H30.709C30.1265 10.6172 29.6543 11.0894 29.6543 11.6719V14.8359H27.5449V11.6719C27.5449 11.0894 27.0727 10.6172 26.4902 10.6172H22.6565C22.211 10.6172 21.8136 10.897 21.6635 11.3164C20.9101 13.4216 18.9009 14.8359 16.6641 14.8359C13.7369 14.8359 11.3555 12.4545 11.3555 9.52734C11.3555 6.60016 13.7369 4.21875 16.6641 4.21875C18.9291 4.21875 20.9465 5.65664 21.6841 7.79681C21.8308 8.22227 22.2312 8.50781 22.6813 8.50781H32.8359C33.4175 8.50781 33.8906 8.98095 33.8906 9.5625C33.8906 10.1441 33.4175 10.6172 32.8359 10.6172Z" fill="#D31627"/>
</g>
<defs>
<clipPath id="clip0_1_5413">
<rect width="36" height="36" fill="white"/>
</clipPath>
</defs>
</svg>
