<svg width="36" height="36" viewBox="0 0 36 36" fill="none" xmlns="http://www.w3.org/2000/svg">
<g clip-path="url(#clip0_1_5419)">
<path d="M2.75313 11.9883H1.05859C0.476125 11.9883 0.00390625 12.4605 0.00390625 13.043C0.00390625 13.6254 0.476125 14.0977 1.05859 14.0977H2.75313C4.15016 14.0462 4.15066 12.04 2.75313 11.9883Z" fill="#D31627"/>
<path d="M34.9504 11.9883H33.2559C32.6734 11.9883 32.2012 12.4605 32.2012 13.043C32.2012 13.6254 32.6734 14.0977 33.2559 14.0977H34.9504C36.3475 14.0462 36.3479 12.04 34.9504 11.9883Z" fill="#D31627"/>
<path d="M6.47377 3.00432C7.49808 3.95586 8.91706 2.53737 7.96531 1.51278L6.76725 0.314725C6.35543 -0.0970957 5.68761 -0.0970957 5.27571 0.314725C4.86382 0.726545 4.86382 1.39437 5.27571 1.80626L6.47377 3.00432Z" fill="#D31627"/>
<path d="M29.5342 23.0797C28.5099 22.1283 27.0909 23.5465 28.0427 24.5712L29.2407 25.7693C29.6527 26.1813 30.3204 26.181 30.7322 25.7693C31.1441 25.3575 31.1441 24.6896 30.7322 24.2777L29.5342 23.0797Z" fill="#D31627"/>
<path d="M6.47377 23.0797L5.27571 24.2778C4.86382 24.6896 4.86382 25.3574 5.27571 25.7693C5.68775 26.1814 6.35543 26.1811 6.76725 25.7693L7.96531 24.5713C8.91685 23.547 7.49843 22.1281 6.47377 23.0797Z" fill="#D31627"/>
<path d="M29.2413 0.314078L28.0433 1.51213C27.6314 1.92395 27.6314 2.59178 28.0433 3.00367C28.4553 3.4157 29.123 3.41542 29.5348 3.00367L30.7329 1.80562C31.6844 0.781375 30.2661 -0.637532 29.2413 0.314078Z" fill="#D31627"/>
<path d="M18.0046 1.25611C7.33171 1.19071 2.11443 14.7042 10.1207 21.7623C11.3286 22.8788 12.1121 24.3791 12.3523 25.9895C10.9098 26.0575 10.9862 28.1315 12.4311 28.0987V29.3035C12.4311 32.0161 14.3794 34.2811 16.9499 34.7756C16.8451 36.4097 19.1646 36.4088 19.0593 34.7756C21.6299 34.2811 23.5782 32.0161 23.5782 29.3035V28.0987C25.024 28.1311 25.0986 26.0569 23.6569 25.9895C23.897 24.3794 24.6806 22.8789 25.8886 21.7623C33.8976 14.7014 28.6726 1.18931 18.0046 1.25611ZM21.4687 29.3035C21.294 33.8937 14.7137 33.8907 14.5405 29.3034V28.0987H21.4687V29.3035ZM24.4809 20.191C22.8279 21.7075 21.7831 23.7794 21.5292 25.9893H14.4801C13.7222 19.8678 9.12808 20.3475 8.38529 14.0977H13.4857C13.7655 14.0977 14.0337 13.9866 14.2315 13.7888L16.5294 11.4907C18.6743 12.5997 21.3511 10.9498 21.3187 8.52409C21.3187 6.6967 19.8319 5.20999 18.0046 5.20999C15.5792 5.17778 13.9288 7.85421 15.038 9.99913L13.0488 11.9882H8.38473C9.90111 0.565203 26.1123 0.573429 27.6244 11.9882H22.5234C22.2436 11.9882 21.9754 12.0993 21.7777 12.2972L19.4797 14.5953C17.3348 13.4864 14.658 15.1362 14.6905 17.5619C14.6905 19.3892 16.1772 20.876 18.0046 20.876C20.43 20.9082 22.0804 18.2317 20.9712 16.0868L22.9603 14.0977H27.6239C27.3654 16.443 26.2522 18.6211 24.4809 20.191ZM16.7998 8.52423C16.7998 7.85997 17.3403 7.31947 18.0046 7.31947C19.6006 7.38008 19.6002 9.66858 18.0046 9.72898C17.3403 9.72891 16.7998 9.18848 16.7998 8.52423ZM19.2093 17.5619C19.2093 18.2261 18.6688 18.7666 18.0046 18.7666C16.4085 18.706 16.4089 16.4175 18.0046 16.3572C18.6688 16.3572 19.2093 16.8976 19.2093 17.5619Z" fill="#D31627"/>
</g>
<defs>
<clipPath id="clip0_1_5419">
<rect width="36" height="36" fill="white"/>
</clipPath>
</defs>
</svg>
