<svg width="40" height="40" viewBox="0 0 40 40" fill="none" xmlns="http://www.w3.org/2000/svg">
<rect width="40" height="40" rx="6" fill="#F0FBF3"/>
<path d="M26.3756 18.125V16.625C26.3756 16.4261 26.2966 16.2353 26.156 16.0947C26.0153 15.954 25.8245 15.875 25.6256 15.875H25.0331C24.7791 16.729 24.3105 17.5037 23.6719 18.125H26.3756Z" fill="#68D585"/>
<path d="M27.1241 23.0001C26.9042 22.9938 26.6875 23.0535 26.5019 23.1713C26.3162 23.2892 26.17 23.4599 26.0821 23.6615C25.9942 23.8631 25.9686 24.0864 26.0086 24.3026C26.0486 24.5189 26.1524 24.7183 26.3066 24.8751C26.7791 25.3701 27.3041 25.2501 28.2491 25.2501C28.448 25.2501 28.6387 25.1711 28.7794 25.0304C28.92 24.8898 28.9991 24.699 28.9991 24.5001V22.7151C28.4441 23.0976 27.8441 23.0001 27.1241 23.0001Z" fill="#68D585"/>
<path d="M10.561 17.8062C10.9697 18.2375 10.936 18.125 16.3285 18.125C15.6899 17.5037 15.2212 16.729 14.9672 15.875H11.281C10.3622 15.875 9.90099 17.0937 10.561 17.8062Z" fill="#68D585"/>
<path d="M27.125 22.25H27.5V19.625C27.5 19.4261 27.421 19.2353 27.2803 19.0947C27.1397 18.954 26.9489 18.875 26.75 18.875C10.1675 18.875 10.9663 19.0362 10.25 18.5V29C10.25 29.1989 10.329 29.3897 10.4697 29.5303C10.6103 29.671 10.8011 29.75 11 29.75H26.75C26.9489 29.75 27.1397 29.671 27.2803 29.5303C27.421 29.3897 27.5 29.1989 27.5 29V26C24.3875 26 24.755 22.25 27.125 22.25Z" fill="#68D585"/>
<path d="M28.25 20.3938V22.25C28.4735 22.2182 28.678 22.1068 28.8259 21.9363C28.9738 21.7658 29.0552 21.5477 29.0552 21.3219C29.0552 21.0962 28.9738 20.878 28.8259 20.7075C28.678 20.537 28.4735 20.4256 28.25 20.3938Z" fill="#68D585"/>
<path d="M20.375 13.25H19.25V14H20.375C20.4745 14 20.5698 13.9605 20.6402 13.8902C20.7105 13.8198 20.75 13.7245 20.75 13.625C20.75 13.5255 20.7105 13.4302 20.6402 13.3598C20.5698 13.2895 20.4745 13.25 20.375 13.25Z" fill="#ACE8BC"/>
<path d="M20.75 14.75H19.25V15.5H20.75C20.8495 15.5 20.9448 15.4605 21.0152 15.3902C21.0855 15.3198 21.125 15.2245 21.125 15.125C21.125 15.0255 21.0855 14.9302 21.0152 14.8598C20.9448 14.7895 20.8495 14.75 20.75 14.75Z" fill="#ACE8BC"/>
<path d="M17.5098 18.1251H22.4898C23.4192 17.5134 24.0876 16.5776 24.3648 15.5001C25.396 11.6863 21.1848 8.4838 17.7498 10.4751C17.0854 10.8578 16.5299 11.4039 16.1358 12.0616C15.7418 12.7194 15.5223 13.4668 15.4983 14.2332C15.4743 14.9995 15.6464 15.7593 15.9985 16.4404C16.3505 17.1215 16.8707 17.7014 17.5098 18.1251ZM18.4998 12.5001H18.8748V12.1251C18.8748 12.0256 18.9143 11.9302 18.9846 11.8599C19.0549 11.7896 19.1503 11.7501 19.2498 11.7501C19.3492 11.7501 19.4446 11.7896 19.5149 11.8599C19.5853 11.9302 19.6248 12.0256 19.6248 12.1251V12.5001H19.9998V12.1251C19.9998 12.0256 20.0393 11.9302 20.1096 11.8599C20.1799 11.7896 20.2753 11.7501 20.3748 11.7501C20.4742 11.7501 20.5696 11.7896 20.6399 11.8599C20.7103 11.9302 20.7498 12.0256 20.7498 12.1251V12.5676C20.9042 12.6221 21.0448 12.7098 21.1618 12.8243C21.2788 12.9389 21.3694 13.0776 21.4273 13.2308C21.4851 13.384 21.5088 13.548 21.4967 13.7113C21.4847 13.8746 21.4371 14.0333 21.3573 14.1763C21.5628 14.3073 21.7202 14.5014 21.8059 14.7295C21.8916 14.9577 21.9009 15.2075 21.8323 15.4413C21.7638 15.6752 21.6212 15.8805 21.426 16.0263C21.2308 16.1722 20.9935 16.2507 20.7498 16.2501V16.6251C20.7498 16.7245 20.7103 16.8199 20.6399 16.8902C20.5696 16.9605 20.4742 17.0001 20.3748 17.0001C20.2753 17.0001 20.1799 16.9605 20.1096 16.8902C20.0393 16.8199 19.9998 16.7245 19.9998 16.6251V16.2501H19.6248V16.6251C19.6248 16.7245 19.5853 16.8199 19.5149 16.8902C19.4446 16.9605 19.3492 17.0001 19.2498 17.0001C19.1503 17.0001 19.0549 16.9605 18.9846 16.8902C18.9143 16.8199 18.8748 16.7245 18.8748 16.6251V16.2501H18.4998C18.4003 16.2501 18.3049 16.2105 18.2346 16.1402C18.1643 16.0699 18.1248 15.9745 18.1248 15.8751C18.1248 15.7756 18.1643 15.6802 18.2346 15.6099C18.3049 15.5396 18.4003 15.5001 18.4998 15.5001V13.2501C18.4003 13.2501 18.3049 13.2105 18.2346 13.1402C18.1643 13.0699 18.1248 12.9745 18.1248 12.8751C18.1248 12.7756 18.1643 12.6802 18.2346 12.6099C18.3049 12.5396 18.4003 12.5001 18.4998 12.5001Z" fill="#ACE8BC"/>
</svg>
