<svg width="40" height="40" viewBox="0 0 40 40" fill="none" xmlns="http://www.w3.org/2000/svg">
<rect width="40" height="40" rx="6" fill="#EDEBFD"/>
<g clip-path="url(#clip0_8_2996)">
<path d="M24.9919 16.5789C24.9856 17.6794 24.7681 18.7306 24.3781 19.6944C25.1632 19.8834 25.8777 20.3146 26.4154 20.9402C26.6685 21.2346 26.635 21.6785 26.3405 21.9317C26.0461 22.1848 25.6023 22.1514 25.349 21.8569C24.9295 21.3688 24.3417 21.0663 23.7093 21.0049C23.3014 21.657 22.8075 22.2499 22.2431 22.7674H23.8266C24.2149 22.7674 24.5297 23.0822 24.5297 23.4705C24.5297 23.8589 24.2149 24.1737 23.8266 24.1737H21.0941C21.398 25.1984 22.3477 25.9484 23.4698 25.9484C24.192 25.9484 24.8769 25.6334 25.3491 25.0842C25.6022 24.7898 26.0462 24.7563 26.3406 25.0093C26.635 25.2625 26.6686 25.7064 26.4154 26.0009C25.6759 26.8612 24.6022 27.3546 23.4698 27.3546C21.6409 27.3546 20.1041 26.0836 19.694 24.3787C18.7301 24.7688 17.6787 24.9863 16.5781 24.9927C17.276 28.1549 20.1008 30.528 23.4698 30.528C27.3614 30.528 30.5273 27.3621 30.5273 23.4705C30.5273 20.1016 28.1542 17.2768 24.9919 16.5789Z" fill="#4B5CF6"/>
<path d="M23.5877 16.5297C23.5877 12.6381 20.4217 9.47217 16.5302 9.47217C12.6387 9.47217 9.47266 12.6381 9.47266 16.5297C9.47266 20.4212 12.6386 23.5872 16.5301 23.5872C20.4216 23.5872 23.5877 20.4212 23.5877 16.5297ZM15.827 20.1966V20.057H15.1181C14.7297 20.057 14.4149 19.7422 14.4149 19.3539C14.4149 18.9656 14.7297 18.6508 15.1181 18.6508H16.5301C16.9211 18.6508 17.2391 18.3327 17.2391 17.9418C17.2391 17.5509 16.9211 17.2328 16.5301 17.2328C15.3638 17.2328 14.4149 16.2839 14.4149 15.1176C14.4149 14.1977 15.0054 13.4135 15.827 13.123V12.8628C15.827 12.4745 16.1418 12.1597 16.5301 12.1597C16.9184 12.1597 17.2333 12.4745 17.2333 12.8628V13.0024H17.9422C18.3305 13.0024 18.6453 13.3172 18.6453 13.7055C18.6453 14.0938 18.3305 14.4086 17.9422 14.4086H16.5301C16.1392 14.4086 15.8212 14.7267 15.8212 15.1176C15.8212 15.5085 16.1392 15.8266 16.5301 15.8266C17.6965 15.8266 18.6453 16.7755 18.6453 17.9418C18.6453 18.8616 18.0549 19.6459 17.2333 19.9364V20.1967C17.2333 20.585 16.9184 20.8998 16.5301 20.8998C16.1418 20.8998 15.827 20.5849 15.827 20.1966Z" fill="#4B5CF6"/>
<path d="M16.9572 30.0495C14.4238 29.2832 12.1228 27.3699 10.7329 24.9313L11.1913 25.0855C11.5594 25.2095 11.9581 25.0113 12.0819 24.6432C12.2057 24.2752 12.0077 23.8764 11.6396 23.7527L9.61012 23.07C9.24202 22.9464 8.84335 23.1443 8.71951 23.5123L8.03688 25.5418C7.91308 25.9099 8.11108 26.3086 8.47914 26.4324C8.55348 26.4574 8.62904 26.4693 8.70338 26.4693C8.997 26.4693 9.27094 26.2838 9.3697 25.9901L9.49903 25.6057C10.1521 26.7562 10.9938 27.8196 11.9759 28.7281C13.3247 29.9759 14.9064 30.8983 16.55 31.3955C16.6179 31.416 16.6864 31.4257 16.7539 31.4257C17.0557 31.4257 17.3347 31.2298 17.4266 30.926C17.539 30.5544 17.3289 30.162 16.9572 30.0495Z" fill="#9CA4F9"/>
<path d="M31.5207 13.5678C31.1528 13.4441 30.754 13.642 30.6302 14.0101L30.5007 14.395C29.844 13.2381 28.9969 12.169 28.0082 11.2575C26.663 10.0172 25.0868 9.09991 23.4499 8.60468C23.0781 8.49214 22.6857 8.70242 22.5733 9.07408C22.4609 9.4458 22.671 9.83827 23.0427 9.95068C25.5734 10.7163 27.8761 12.6308 29.2663 15.0686L28.8086 14.9147C28.4406 14.7908 28.0418 14.9889 27.918 15.357C27.7942 15.725 27.9922 16.1237 28.3603 16.2475L30.3898 16.9302C30.4641 16.9552 30.5397 16.9671 30.614 16.9671C30.9076 16.9671 31.1815 16.7816 31.2804 16.4879L31.963 14.4584C32.0868 14.0903 31.8888 13.6916 31.5207 13.5678Z" fill="#9CA4F9"/>
</g>
<defs>
<clipPath id="clip0_8_2996">
<rect width="24" height="24" fill="white" transform="translate(8 8)"/>
</clipPath>
</defs>
</svg>
