<svg width="40" height="40" viewBox="0 0 40 40" fill="none" xmlns="http://www.w3.org/2000/svg">
<rect width="40" height="40" rx="6" fill="#EBF7FD"/>
<path fill-rule="evenodd" clip-rule="evenodd" d="M9.89953 28.8208H30.5254C30.7586 28.8208 30.9477 29.0101 30.9477 29.2433C30.9477 29.4765 30.7586 29.6657 30.5254 29.6657H9.4771C9.24388 29.6657 9.05469 29.4765 9.05469 29.2433V16.7803C9.05469 16.5471 9.24388 16.3579 9.47709 16.3579C9.71031 16.3579 9.8995 16.5471 9.8995 16.7803L9.89953 28.8208Z" fill="#35AAEC"/>
<path fill-rule="evenodd" clip-rule="evenodd" d="M21.8461 10.462C21.9229 10.3833 22.0301 10.3344 22.1487 10.3344C22.268 10.3343 22.3758 10.3839 22.4526 10.4635L24.1092 12.12C24.2741 12.285 24.274 12.552 24.1094 12.717C24.03 12.7966 23.9229 12.8411 23.8105 12.841C23.6982 12.841 23.5913 12.7966 23.5118 12.7172L22.571 11.7764V15.9496C22.571 16.1828 22.3819 16.372 22.1487 16.372C21.9155 16.372 21.7263 16.1829 21.7263 15.9496L21.7263 11.7764L20.7855 12.7172C20.7061 12.7966 20.5991 12.8411 20.4868 12.841C20.3744 12.841 20.2673 12.7966 20.1879 12.717C20.0233 12.552 20.0232 12.285 20.1881 12.1201L21.8461 10.462Z" fill="#90D1F5"/>
<path fill-rule="evenodd" clip-rule="evenodd" d="M11.8008 15.2165C11.8008 17.3288 13.5193 19.0472 15.6317 19.0472C17.744 19.0472 19.4626 17.3288 19.4626 15.2165C19.4626 13.1041 17.744 11.3858 15.6317 11.3857C13.5193 11.3857 11.8008 13.1042 11.8008 15.2165ZM15.6212 17.8744C15.485 17.8744 15.3746 17.7643 15.3746 17.6282V17.3772C14.8263 17.2589 14.4142 16.7705 14.4142 16.1873C14.4142 16.051 14.5246 15.9406 14.6608 15.9406C14.7971 15.9406 14.9075 16.0511 14.9075 16.1873C14.9075 16.5867 15.2324 16.9113 15.6317 16.9113C16.031 16.9113 16.3559 16.5868 16.3559 16.1873C16.3559 15.6657 16.1022 15.5822 15.5746 15.4563C15.0849 15.3398 14.4142 15.1801 14.4142 14.2458C14.4142 13.6625 14.8263 13.1741 15.3746 13.0558V12.8048C15.3746 12.6686 15.485 12.5582 15.6212 12.5582C15.7574 12.5582 15.8679 12.6687 15.8679 12.8048V13.0514C16.4265 13.1617 16.8491 13.6551 16.8491 14.2458C16.8492 14.3819 16.7388 14.4924 16.6026 14.4924C16.4663 14.4924 16.3559 14.3819 16.3559 14.2458C16.3559 13.8462 16.031 13.5216 15.6317 13.5216C15.2324 13.5216 14.9075 13.8462 14.9075 14.2458C14.9075 14.7673 15.1611 14.8508 15.6888 14.9767C16.1785 15.0932 16.8491 15.2529 16.8491 16.1873C16.8492 16.7779 16.4265 17.2713 15.8679 17.3816V17.6281C15.8679 17.7643 15.7574 17.8744 15.6212 17.8744Z" fill="#90D1F5"/>
<path fill-rule="evenodd" clip-rule="evenodd" d="M13.8693 23.2587H11.8008V28.2583H13.8693V23.2587Z" fill="#35AAEC"/>
<path fill-rule="evenodd" clip-rule="evenodd" d="M16.4395 21.0427V28.2584H18.508V21.0427H16.4395Z" fill="#35AAEC"/>
<path fill-rule="evenodd" clip-rule="evenodd" d="M21.0781 17.304V28.2583H23.1466V17.304H21.0781Z" fill="#35AAEC"/>
<path fill-rule="evenodd" clip-rule="evenodd" d="M25.7168 14.8114V28.2583H27.7853V14.8114H25.7168Z" fill="#35AAEC"/>
</svg>
