<svg width="40" height="40" viewBox="0 0 40 40" fill="none" xmlns="http://www.w3.org/2000/svg">
<rect width="40" height="40" rx="6" fill="#FEEDEF"/>
<g clip-path="url(#clip0_8_3057)">
<path d="M25.3652 18.8H27.834L30.7044 15.9296C30.5107 15.3317 30.2627 14.7527 29.9636 14.2L25.3652 18.8Z" fill="#FA9CA7"/>
<path d="M31.0924 18.6688C31.1304 18.6289 31.1596 18.5815 31.178 18.5296C31.1964 18.4777 31.2036 18.4225 31.1992 18.3676C31.155 17.8446 31.0721 17.3256 30.9512 16.8148L28.9648 18.8H30.7932C30.8495 18.8003 30.9052 18.7887 30.9568 18.7661C31.0083 18.7436 31.0545 18.7104 31.0924 18.6688Z" fill="#FA9CA7"/>
<path d="M21.7656 18.8001H24.2344L29.5416 13.4929C29.2218 13.0003 28.8605 12.5359 28.4616 12.1049L21.7656 18.8001Z" fill="#FA9CA7"/>
<path d="M21.1992 15.7656V18.2344L27.8944 11.5392C27.4634 11.1404 26.999 10.779 26.5064 10.4592L21.1992 15.7656Z" fill="#FA9CA7"/>
<path d="M21.5992 8.80005C21.4991 8.80016 21.4027 8.83834 21.3296 8.90685C21.2882 8.94485 21.2552 8.9911 21.2327 9.04263C21.2103 9.09417 21.1989 9.14984 21.1992 9.20605V11.0344L23.1844 9.04925C22.6737 8.92796 22.1547 8.84466 21.6316 8.80005C21.6212 8.80005 21.6104 8.80005 21.5992 8.80005Z" fill="#FA9CA7"/>
<path d="M21.1992 12.1656V14.6344L25.7992 10.036C25.2469 9.737 24.6685 9.48904 24.0712 9.29517L21.1992 12.1656Z" fill="#FA9CA7"/>
<path d="M8.82097 21.4636C8.9872 24.0886 10.1419 26.5532 12.0527 28.361C13.9634 30.1687 16.4881 31.1853 19.1184 31.206C21.7486 31.2267 24.2891 30.2499 26.228 28.4725C28.1669 26.695 29.3603 24.2489 29.5678 21.6268C29.572 21.5729 29.5649 21.5188 29.547 21.4678C29.5291 21.4168 29.5007 21.3701 29.4638 21.3308C29.426 21.2893 29.38 21.2562 29.3287 21.2337C29.2773 21.2111 29.2218 21.1997 29.1658 21.2H20.8002C20.2699 21.1993 19.7616 20.9884 19.3867 20.6135C19.0117 20.2385 18.8008 19.7302 18.8002 19.2V10.8344C18.8005 10.7783 18.789 10.7228 18.7664 10.6714C18.7439 10.6201 18.7108 10.5741 18.6694 10.5364C18.5975 10.4689 18.5027 10.4313 18.4042 10.4312C18.3938 10.4312 18.3838 10.4312 18.3734 10.4312C15.6569 10.6612 13.1378 11.9435 11.3533 14.0045C9.56878 16.0655 8.66008 18.7421 8.82097 21.4636Z" fill="#F64B60"/>
</g>
<defs>
<clipPath id="clip0_8_3057">
<rect width="24" height="24" fill="white" transform="translate(8 8)"/>
</clipPath>
</defs>
</svg>
