<svg width="40" height="40" viewBox="0 0 40 40" fill="none" xmlns="http://www.w3.org/2000/svg">
<rect width="40" height="40" rx="6" fill="#F0FBF3"/>
<path fill-rule="evenodd" clip-rule="evenodd" d="M28.1255 26.4737C29.1218 26.2355 30.0088 25.6688 30.6436 24.8649C31.2757 24.0645 31.6211 23.0755 31.625 22.0559C31.6204 21.0355 31.2737 20.0459 30.6402 19.2457C30.0047 18.4431 29.1177 17.8777 28.1219 17.6404C27.1261 17.4031 26.0794 17.5078 25.1503 17.9377C24.2213 18.3675 23.4639 19.0974 23 20.01H16.0625C15.9234 20.0094 15.7856 20.0363 15.6569 20.089C15.5282 20.1418 15.4111 20.2194 15.3125 20.3175L14.3075 21.315C14.1108 21.5151 14.0004 21.7844 14 22.065C13.9994 22.2041 14.0263 22.3419 14.079 22.4706C14.1318 22.5993 14.2094 22.7164 14.3075 22.815L15.3125 23.8125C15.4105 23.9119 15.5273 23.9909 15.656 24.045C15.7847 24.0991 15.9229 24.1271 16.0625 24.1275H16.4675C16.6166 24.1274 16.7596 24.068 16.865 23.9625L17.2175 23.61L17.57 23.9625C17.6755 24.0678 17.8184 24.127 17.9675 24.127C18.1166 24.127 18.2595 24.0678 18.365 23.9625L18.7175 23.61L19.0625 23.9625C19.168 24.0678 19.3109 24.127 19.46 24.127C19.6091 24.127 19.752 24.0678 19.8575 23.9625L20.21 23.61L20.5625 23.9625C20.6733 24.0617 20.819 24.1129 20.9675 24.105H23C23.4641 25.0181 24.2222 25.7484 25.152 26.1781C26.0819 26.6078 27.1293 26.7119 28.1255 26.4737ZM28.6229 21.4175C28.7465 21.6025 28.8125 21.82 28.8125 22.0425V22.065C28.8066 22.3595 28.6855 22.6399 28.4751 22.846C28.2648 23.0521 27.982 23.1676 27.6875 23.1675C27.465 23.1675 27.2475 23.1015 27.0625 22.9779C26.8775 22.8543 26.7333 22.6786 26.6481 22.473C26.563 22.2675 26.5407 22.0413 26.5841 21.823C26.6275 21.6048 26.7347 21.4043 26.892 21.247C27.0493 21.0897 27.2498 20.9825 27.468 20.9391C27.6863 20.8957 27.9125 20.918 28.118 21.0031C28.3236 21.0883 28.4993 21.2325 28.6229 21.4175Z" fill="#ACE8BC"/>
<path fill-rule="evenodd" clip-rule="evenodd" d="M26.795 12.75H23.375V9.33L26.795 12.75ZM31.625 22.0425L31.625 22.0559L31.625 22.065V22.0425Z" fill="#68D585"/>
<path d="M14.5175 19.5C14.9321 19.1005 15.4868 18.8797 16.0625 18.885H22.3625C22.8791 18.1127 23.5789 17.4804 24.3995 17.0446C25.2201 16.6088 26.1359 16.383 27.065 16.3875H27.125V13.875H22.8125C22.6639 13.8731 22.522 13.8132 22.4169 13.7081C22.3118 13.603 22.2519 13.4611 22.25 13.3125V9H13.0625C12.5155 9 11.9909 9.2173 11.6041 9.60409C11.2173 9.99089 11 10.5155 11 11.0625V27.5625C11 28.1095 11.2173 28.6341 11.6041 29.0209C11.9909 29.4077 12.5155 29.625 13.0625 29.625H25.0625C25.5772 29.6253 26.0735 29.433 26.4537 29.0861C26.8339 28.7392 27.0707 28.2626 27.1175 27.75H27.065C26.1359 27.7545 25.2201 27.5287 24.3995 27.0929C23.5789 26.6571 22.8791 26.0248 22.3625 25.2525H20.9675C20.7076 25.2535 20.4509 25.1945 20.2175 25.08C19.9837 25.1932 19.7273 25.2522 19.4675 25.2525C19.2075 25.2544 18.9506 25.1953 18.7175 25.08C18.4838 25.1935 18.2273 25.2525 17.9675 25.2525C17.7075 25.2541 17.4507 25.195 17.2175 25.08C16.9838 25.1935 16.7273 25.2525 16.4675 25.2525H16.0625C15.4836 25.2518 14.9284 25.0227 14.5175 24.615L13.5125 23.61C13.104 23.1996 12.8746 22.6441 12.8746 22.065C12.8746 21.4859 13.104 20.9304 13.5125 20.52L14.5175 19.5Z" fill="#68D585"/>
</svg>
