<svg width="40" height="40" viewBox="0 0 40 40" fill="none" xmlns="http://www.w3.org/2000/svg">
<rect width="40" height="40" rx="6" fill="#FEEDEF"/>
<g clip-path="url(#clip0_37_6042)">
<path d="M30.3878 15.2841C30.1131 15.0095 29.6682 15.0095 29.3935 15.2841L29.1875 15.4901V14.375C29.1875 12.4366 27.6103 10.8594 25.6719 10.8594H24.2656C23.877 10.8594 23.5625 11.1739 23.5625 11.5625C23.5625 11.9511 23.877 12.2656 24.2656 12.2656H25.6719C26.835 12.2656 27.7812 13.2118 27.7812 14.375V15.4901L27.5752 15.2841C27.3006 15.0095 26.8556 15.0095 26.581 15.2841C26.3063 15.5587 26.3063 16.0037 26.581 16.2784L27.9864 17.6838C28.2576 17.9557 28.7042 17.9626 28.9824 17.6838L30.3878 16.2784C30.6624 16.0037 30.6624 15.5587 30.3878 15.2841Z" fill="#FA9CA7"/>
<path d="M20.0469 30.5937H18.5938C17.4306 30.5937 16.4844 29.6475 16.4844 28.4843V27.3223L16.6904 27.5284C16.965 27.803 17.41 27.803 17.6847 27.5284C17.9593 27.2537 17.9593 26.8087 17.6847 26.5341L16.2793 25.1287C16.0049 24.8537 15.5565 24.8548 15.2833 25.1287L13.8779 26.5341C13.6032 26.8087 13.6032 27.2537 13.8779 27.5284C14.1525 27.8031 14.5974 27.8031 14.8721 27.5284L15.0781 27.3223V28.4843C15.0781 30.4228 16.6553 32 18.5938 32H20.0469C20.4355 32 20.75 31.6855 20.75 31.2968C20.75 30.9082 20.4355 30.5937 20.0469 30.5937Z" fill="#FA9CA7"/>
<path d="M23.5625 15.2076V15.0781C23.5625 11.1949 20.3676 8 16.4844 8C12.6012 8 9.40625 11.1949 9.40625 15.0781V15.2076C8.58959 15.4989 8 16.272 8 17.1875V18.5938C8 19.7569 8.94622 20.7031 10.1094 20.7031C10.3578 20.7031 10.5912 20.6493 10.8125 20.5696C10.8125 18.61 10.8125 17.1058 10.8125 15.0781C10.8125 11.9715 13.3777 9.40625 16.4844 9.40625C19.591 9.40625 22.1562 11.9715 22.1562 15.0781C22.1562 17.9075 22.1562 17.7976 22.1562 20.5696C22.3775 20.6493 22.611 20.7031 22.8594 20.7031C24.0225 20.7031 24.9688 19.7569 24.9688 18.5938V17.1875C24.9688 16.272 24.3792 15.4989 23.5625 15.2076Z" fill="#F64B60"/>
<path d="M17.1875 12.2656H15.7812C13.8428 12.2656 12.2188 13.8428 12.2188 15.7812V16.4801L14.752 16.4818C15.4063 16.4879 16.1507 16.4974 16.3608 16.2887C16.4631 16.187 16.4844 15.957 16.4844 15.7812C16.4844 15.3926 16.7989 15.0781 17.1875 15.0781C17.5761 15.0781 17.8906 15.3926 17.8906 15.7812C17.8906 15.957 17.9119 16.187 18.0142 16.2887C18.2243 16.4974 19.0155 16.4912 19.6699 16.4864C20.0227 16.4845 19.9257 16.4844 20.75 16.4844V15.7812C20.75 13.8428 19.1259 12.2656 17.1875 12.2656Z" fill="#F64B60"/>
<path d="M19.341 17.8941C18.5328 17.8941 17.7347 17.8488 17.1875 17.4299C16.564 17.9065 15.6824 17.8955 14.741 17.8927L12.2188 17.8911V19.2969C12.2188 21.6233 14.158 23.5157 16.4844 23.5157C18.8107 23.5157 20.75 21.6233 20.75 19.2969V17.8907C19.9362 17.8907 19.341 17.8941 19.341 17.8941Z" fill="#F64B60"/>
<path d="M28.4844 20.7031H27.0781C25.1397 20.7031 23.5625 22.2803 23.5625 24.2188V24.9176L26.0488 24.9193C26.7032 24.9254 27.4475 24.9349 27.6576 24.7262C27.76 24.6245 27.7812 24.3945 27.7812 24.2188C27.7812 23.8301 28.0957 23.5156 28.4844 23.5156C28.873 23.5156 29.1875 23.8301 29.1875 24.2188C29.1875 24.3945 29.2088 24.6245 29.3111 24.7262C29.5212 24.9349 30.2655 24.9287 30.9199 24.9239C31.2727 24.922 31.1757 24.9219 32 24.9219V24.2188C32 22.2803 30.4228 20.7031 28.4844 20.7031Z" fill="#F64B60"/>
<path d="M30.591 26.3316C29.7828 26.3316 29.0316 26.2863 28.4844 25.8674C27.8609 26.344 26.9793 26.333 26.0379 26.3302L23.5625 26.3286V27.7344C23.5625 30.0608 25.4549 32 27.7812 32C30.1076 32 32 30.0608 32 27.7344V26.3282C31.1862 26.3282 30.591 26.3316 30.591 26.3316Z" fill="#F64B60"/>
</g>
<defs>
<clipPath id="clip0_37_6042">
<rect width="24" height="24" fill="white" transform="translate(8 8)"/>
</clipPath>
</defs>
</svg>
