<svg width="40" height="40" viewBox="0 0 40 40" fill="none" xmlns="http://www.w3.org/2000/svg">
<rect width="40" height="40" rx="6" fill="#EDEBFD"/>
<path fill-rule="evenodd" clip-rule="evenodd" d="M26 19.4375C25.52 19.3175 25.0175 19.25 24.5 19.25C23.9075 19.25 23.345 19.3325 22.805 19.4975C21.965 19.745 21.2075 20.1725 20.57 20.7275C20.0675 21.155 19.64 21.6725 19.31 22.25C19.04 22.715 18.83 23.2175 18.6875 23.75C18.5675 24.23 18.5 24.7325 18.5 25.25C18.5 25.7675 18.5675 26.27 18.6875 26.75C18.83 27.2825 19.04 27.785 19.31 28.25C19.6325 28.8125 20.0525 29.3225 20.54 29.75C21.5975 30.68 22.985 31.25 24.5 31.25C27.8075 31.25 30.5 28.5575 30.5 25.25C30.5 22.46 28.5875 20.1125 26 19.4375ZM24.5 26.75H26.75C27.1625 26.75 27.5 26.4125 27.5 26C27.5 25.5875 27.1625 25.25 26.75 25.25H25.25V23.75C25.25 23.3375 24.9125 23 24.5 23C24.0875 23 23.75 23.3375 23.75 23.75V26C23.75 26.4125 24.0875 26.75 24.5 26.75Z" fill="#9CA4F9"/>
<path fill-rule="evenodd" clip-rule="evenodd" d="M17.0825 26.3375C17.0525 26.1725 17.0375 26 17.0225 25.8275C17.0075 25.64 17 25.445 17 25.25C17 24.65 17.0675 24.0725 17.2025 23.5175C17.3075 23.0825 17.4425 22.6625 17.6225 22.265C18.7775 19.61 21.425 17.75 24.5 17.75C25.0175 17.75 25.52 17.8025 26 17.9V11C26 9.7625 24.9875 8.75 23.75 8.75H13.25C12.0125 8.75 11 9.7625 11 11V27.5C11 28.7375 12.0125 29.75 13.25 29.75H18.5075C18.155 29.2925 17.8625 28.79 17.63 28.25C17.36 27.65 17.18 27.0125 17.0825 26.3375ZM22.25 13.25H20.75C20.3375 13.25 20 13.5875 20 14C20 14.4125 20.3375 14.75 20.75 14.75H22.25C22.6625 14.75 23 14.4125 23 14C23 13.5875 22.6625 13.25 22.25 13.25ZM22.25 16.25H20.75C20.3375 16.25 20 16.5875 20 17C20 17.4125 20.3375 17.75 20.75 17.75H22.25C22.6625 17.75 23 17.4125 23 17C23 16.5875 22.6625 16.25 22.25 16.25ZM14.75 26.75H15.5C15.9125 26.75 16.25 26.4125 16.25 26C16.25 25.5875 15.9125 25.25 15.5 25.25H14.75C14.3375 25.25 14 25.5875 14 26C14 26.4125 14.3375 26.75 14.75 26.75ZM14.75 23.75H15.5C15.9125 23.75 16.25 23.4125 16.25 23C16.25 22.5875 15.9125 22.25 15.5 22.25H14.75C14.3375 22.25 14 22.5875 14 23C14 23.4125 14.3375 23.75 14.75 23.75ZM15.5225 20C15.5225 20.4125 15.86 20.75 16.2725 20.75C16.685 20.75 17.0225 20.4125 17.0225 20V19.235C17.855 19.04 18.4775 18.29 18.4775 17.375C18.4775 16.34 17.6375 15.5 16.6025 15.5H15.8975C15.6875 15.5 15.5225 15.335 15.5225 15.125C15.5225 14.915 15.6875 14.75 15.8975 14.75H17.7275C18.14 14.75 18.4775 14.4125 18.4775 14C18.4775 13.5875 18.14 13.25 17.7275 13.25H17.0225V12.5C17.0225 12.0875 16.685 11.75 16.2725 11.75C15.86 11.75 15.5225 12.0875 15.5225 12.5V13.2875C14.6675 13.46 14.0225 14.2175 14.0225 15.125C14.0225 16.16 14.8625 17 15.8975 17H16.6025C16.8125 17 16.9775 17.165 16.9775 17.405C16.9775 17.615 16.8125 17.78 16.6025 17.78H14.7725C14.36 17.78 14.0225 18.1175 14.0225 18.53C14.0225 18.95 14.36 19.28 14.7725 19.28H15.5225V20Z" fill="#4B5CF6"/>
</svg>
