<svg width="60" height="60" viewBox="0 0 60 60" fill="none" xmlns="http://www.w3.org/2000/svg">
<rect width="60" height="60" rx="6" fill="#F0FBF3"/>
<path d="M27.7722 31.398C32.0243 31.398 35.4712 27.951 35.4712 23.699C35.4712 19.447 32.0243 16 27.7722 16C23.5202 16 20.0732 19.447 20.0732 23.699C20.0732 27.951 23.5202 31.398 27.7722 31.398Z" fill="#68D585"/>
<path d="M29.353 42.6499V41.1399V37.6799V37.5399H29.367C29.442 35.8689 30.814 34.5299 32.503 34.5299H36.576C35.556 33.2949 34.196 32.3549 32.642 31.8389C31.216 32.6949 29.554 33.1969 27.773 33.1969C25.992 33.1969 24.33 32.6949 22.904 31.8389C19.476 32.9759 17 36.2029 17 40.0119V41.2429C17 42.1609 17.644 42.9519 18.545 43.1239C21.118 43.6169 24.234 43.9999 27.773 43.9999C28.416 43.9999 29.028 43.9749 29.642 43.9509C29.461 43.5529 29.353 43.1149 29.353 42.6499Z" fill="#68D585"/>
<path d="M31.1533 40.2402V42.6502C31.1533 43.3902 31.7633 44.0002 32.5033 44.0002H41.1933C41.9433 44.0002 42.5433 43.3902 42.5433 42.6502V40.2402H31.1533Z" fill="#ACE8BC"/>
<path d="M42.5433 38.4401V37.6801C42.5433 36.9401 41.9433 36.3301 41.1933 36.3301H32.5033C31.7633 36.3301 31.1533 36.9401 31.1533 37.6801V38.4401H42.5433Z" fill="#ACE8BC"/>
</svg>
