<svg width="60" height="60" viewBox="0 0 60 60" fill="none" xmlns="http://www.w3.org/2000/svg">
<rect width="60" height="60" rx="6" fill="#FEEDEF"/>
<path d="M43.445 35.5278C43.445 36.2128 42.578 36.8198 41.268 37.1588C40.552 37.3528 39.697 37.4618 38.782 37.4618C37.872 37.4618 37.017 37.3528 36.302 37.1588C34.992 36.8188 34.125 36.2188 34.125 35.5278C34.125 34.4608 36.211 33.5928 38.783 33.5928C41.359 33.5928 43.445 34.4598 43.445 35.5278Z" fill="#FA9CA7"/>
<path d="M41.65 41.884C40.786 42.111 39.795 42.231 38.781 42.231C37.771 42.231 36.782 42.111 35.92 41.885C35.161 41.685 34.576 41.428 34.124 41.147V42.065C34.124 43.132 36.21 44 38.782 44C41.359 44 43.446 43.133 43.446 42.065V41.147C42.993 41.428 42.409 41.684 41.65 41.884Z" fill="#FA9CA7"/>
<path d="M32.6236 42.065V38.796V38.447V35.19L32.6486 35.206C32.9036 33.358 35.3516 32.094 38.7806 32.094C40.1436 32.094 41.3516 32.293 42.3296 32.649V17.94L39.1196 16L35.8996 17.94L32.6696 16L29.4596 17.94L26.2396 16L23.0196 17.94L19.7796 16L16.5596 17.94V41.36C16.5596 42.82 17.7396 44 19.1996 44H33.5736C32.9656 43.463 32.6236 42.806 32.6236 42.065ZM34.0146 31.87H21.9246C21.4276 31.87 21.0246 31.467 21.0246 30.97C21.0246 30.473 21.4276 30.07 21.9246 30.07H34.0146C34.5116 30.07 34.9146 30.473 34.9146 30.97C34.9146 31.467 34.5116 31.87 34.0146 31.87ZM21.9236 24.647H36.9656C37.4626 24.647 37.8656 25.05 37.8656 25.547C37.8656 26.044 37.4626 26.447 36.9656 26.447H21.9236C21.4266 26.447 21.0236 26.044 21.0236 25.547C21.0236 25.05 21.4266 24.647 21.9236 24.647ZM28.6936 37.295H21.9236C21.4266 37.295 21.0236 36.892 21.0236 36.395C21.0236 35.898 21.4266 35.495 21.9236 35.495H28.6946C29.1916 35.495 29.5946 35.898 29.5946 36.395C29.5946 36.892 29.1906 37.295 28.6936 37.295Z" fill="#F64B60"/>
<path d="M41.645 38.6109C40.801 38.8389 39.806 38.9619 38.782 38.9619C37.761 38.9619 36.768 38.8389 35.91 38.6069C35.156 38.4119 34.575 38.1589 34.124 37.8809V38.7959C34.124 39.4869 34.991 40.0879 36.301 40.4329C37.017 40.6209 37.872 40.7299 38.781 40.7299C39.697 40.7299 40.552 40.6209 41.267 40.4329C42.577 40.0869 43.444 39.4809 43.444 38.7959V37.8789C42.992 38.1589 42.406 38.4139 41.645 38.6109Z" fill="#FA9CA7"/>
</svg>
