<svg width="60" height="60" viewBox="0 0 60 60" fill="none" xmlns="http://www.w3.org/2000/svg">
<rect width="60" height="60" rx="6" fill="#EBF7FD"/>
<path fill-rule="evenodd" clip-rule="evenodd" d="M42.5284 38.0725C43.8755 39.424 43.8755 41.635 42.5284 42.9865C41.1812 44.3363 38.9774 44.3363 37.6302 42.9865C36.2848 41.635 36.2848 39.424 37.6302 38.0725C38.9768 36.721 41.1812 36.721 42.5284 38.0725ZM41.1232 40.4622C41.1882 40.5239 41.241 40.5892 41.2843 40.6556C41.4338 40.8819 41.4818 41.1388 41.4496 41.3822C41.4179 41.6174 41.3084 41.8402 41.139 42.0154C41.0793 42.0771 41.013 42.1318 40.9433 42.177C40.8765 42.2223 40.8033 42.2605 40.7271 42.2922C40.6738 42.3134 40.6193 42.3334 40.5642 42.3487V42.5239C40.5642 42.7908 40.3468 43.0089 40.0808 43.0089C39.813 43.0089 39.5956 42.7908 39.5956 42.5239V42.3475C39.5956 42.331 39.5973 42.3122 39.5991 42.2958C39.3295 42.187 39.0805 41.9971 38.8912 41.7073C38.8344 41.6203 38.7828 41.5221 38.7365 41.414C38.6352 41.1677 38.7512 40.8843 38.9973 40.7808C39.125 40.7291 39.2598 40.7344 39.3758 40.7844C39.2873 40.7309 39.203 40.6644 39.1215 40.581C39.0084 40.4646 38.927 40.3258 38.8754 40.1777C38.8104 39.9831 38.7969 39.7715 38.842 39.5681C38.8871 39.3629 38.9897 39.1648 39.1543 39.0049C39.2721 38.8903 39.4186 38.7968 39.5944 38.7368V38.5334C39.5944 38.2653 39.8124 38.0484 40.0796 38.0484C40.3456 38.0484 40.563 38.2653 40.563 38.5334V38.7186C40.5894 38.7268 40.614 38.7351 40.6392 38.745C40.9697 38.8667 41.2457 39.1048 41.3734 39.4816C41.3834 39.5116 41.3933 39.5451 41.4015 39.5816C41.466 39.8414 41.3066 40.103 41.0476 40.1665C40.7904 40.2312 40.5279 40.0713 40.4646 39.8132C40.4628 39.8079 40.4616 39.7997 40.4581 39.7915C40.4364 39.7268 40.3784 39.6815 40.3069 39.6551C40.1974 39.6145 40.0673 39.6116 39.9513 39.6398C39.9366 39.6433 39.9214 39.6486 39.905 39.6533C39.8721 39.6651 39.8452 39.6821 39.827 39.6986C39.8071 39.7186 39.7936 39.7456 39.7872 39.7738C39.7807 39.8073 39.7825 39.8391 39.7907 39.8673C39.7977 39.8837 39.8042 39.8973 39.8141 39.9073C39.906 40.0011 40.1122 40.051 40.3089 40.0986L40.3175 40.1007C40.6134 40.1706 40.8941 40.2371 41.1232 40.4622Z" fill="#90D1F5"/>
<path fill-rule="evenodd" clip-rule="evenodd" d="M19.4282 34.5882V43.4768C19.4282 43.7637 19.1938 44 18.9084 44H15.5198C15.2338 44 15 43.7631 15 43.4768V34.5882C15 34.3014 15.2344 34.065 15.5198 34.065H18.9084C19.1944 34.065 19.4282 34.3014 19.4282 34.5882ZM26.529 29.9488H23.1421C22.8549 29.9488 22.6206 30.1839 22.6206 30.4702V43.4762C22.6206 43.7631 22.8549 43.9994 23.1421 43.9994H26.529C26.8161 43.9994 27.0505 43.7625 27.0505 43.4762V30.4702C27.0505 30.1839 26.8167 29.9488 26.529 29.9488ZM34.1519 25.8314H30.7632C30.4773 25.8314 30.2435 26.0665 30.2435 26.3546V43.4768C30.2435 43.7637 30.4779 44 30.7632 44H34.1519C34.4378 44 34.6717 43.7631 34.6717 43.4768V26.3546C34.6717 26.0659 34.4373 25.8314 34.1519 25.8314ZM44.9531 20.8257L40.1909 16.0463C40.1294 15.9846 40.028 15.9846 39.9665 16.0463L35.2043 20.8257C35.158 20.8721 35.1445 20.9374 35.1691 20.9991C35.1943 21.0608 35.2506 21.0973 35.315 21.0973H37.8629V36.6816C39.2282 35.8933 40.9275 35.8933 42.2928 36.6816V21.0973H44.8406C44.9056 21.0973 44.9619 21.0608 44.9865 20.9991C45.0129 20.9368 45 20.8721 44.9531 20.8257Z" fill="#35AAEC"/>
<path d="M40.0983 41.0436C39.8874 40.9954 39.67 40.9419 39.4637 40.8355C39.5352 40.8855 39.5932 40.9572 39.6296 41.0436C39.6495 41.0918 39.6729 41.1371 39.6993 41.1771C39.7854 41.3087 39.8985 41.3852 40.0163 41.4169C40.1341 41.4487 40.2554 41.4404 40.3532 41.3987C40.3732 41.3905 40.3931 41.3805 40.413 41.3669C40.4265 41.3587 40.4382 41.3505 40.4446 41.3417C40.471 41.3152 40.488 41.2835 40.4909 41.2535C40.4945 41.2317 40.4892 41.2082 40.4745 41.1853C40.4669 41.1735 40.4587 41.1635 40.4505 41.1553C40.4167 41.1214 40.2823 41.0886 40.1328 41.0521L40.0983 41.0436Z" fill="#90D1F5"/>
</svg>
