<svg width="24" height="24" viewBox="0 0 24 24" fill="none" xmlns="http://www.w3.org/2000/svg">
<path d="M7.81828 21.0103C16.3093 21.0103 20.9527 13.9758 20.9527 7.87594C20.9527 7.67615 20.9485 7.47718 20.9396 7.27932C21.8409 6.62766 22.6242 5.81445 23.2423 4.88884C22.4152 5.25663 21.5249 5.5039 20.5913 5.61576C21.5443 5.04405 22.2761 4.14003 22.6212 3.06237C21.7293 3.59115 20.7414 3.97533 19.6899 4.18282C18.8476 3.28555 17.6481 2.72443 16.3202 2.72443C13.771 2.72443 11.7036 4.79169 11.7036 7.34C11.7036 7.70243 11.7442 8.05468 11.8233 8.39262C7.9867 8.19957 4.58446 6.36278 2.30791 3.56955C1.91163 4.25162 1.68294 5.04418 1.68294 5.88986C1.68294 7.49122 2.49793 8.90531 3.73714 9.73227C2.9798 9.70902 2.26842 9.50111 1.64648 9.15505C1.64579 9.17445 1.64579 9.1933 1.64579 9.21394C1.64579 11.4496 3.23697 13.3163 5.3495 13.7392C4.96148 13.8448 4.55323 13.9016 4.13218 13.9016C3.83524 13.9016 3.54574 13.8724 3.26449 13.8184C3.85217 15.6525 5.55645 16.9872 7.57693 17.0247C5.9969 18.263 4.00655 19.0007 1.84338 19.0007C1.47132 19.0007 1.10352 18.9794 0.742188 18.9367C2.78524 20.2462 5.21122 21.0105 7.81842 21.0105" fill="#161C2D"/>
</svg>
