<svg width="40" height="40" viewBox="0 0 40 40" fill="none" xmlns="http://www.w3.org/2000/svg">
<rect width="40" height="40" rx="6" fill="#EDEBFD"/>
<g clip-path="url(#clip0_55_10281)">
<path d="M31.9995 13.9615C31.9785 13.1955 31.3308 12.5947 30.5645 12.5947H23.1208C22.5576 10.9606 21.0242 9.77824 19.2088 9.73648C16.8627 9.68257 14.9003 11.5706 14.8676 13.917C14.8346 16.2876 16.7464 18.2197 19.1094 18.2197C20.9506 18.2197 22.5176 17.0466 23.1043 15.4072H26.1289V17.7509C26.1289 18.0098 26.3388 18.2197 26.5977 18.2197H28.4727C28.7315 18.2197 28.9414 18.0098 28.9414 17.7509V15.4072H30.5938C31.3835 15.4072 32.0212 14.7562 31.9995 13.9615ZM19.0977 16.1104C17.9087 16.1104 16.9414 15.143 16.9414 13.9541C16.9414 12.7652 17.9087 11.7979 19.0977 11.7979C20.2866 11.7979 21.2539 12.7652 21.2539 13.9541C21.2539 15.143 20.2866 16.1104 19.0977 16.1104Z" fill="#9CA4F9"/>
<path d="M26.8404 23.3991L20.6211 26.6202L16.7825 26.0395C16.3414 25.9728 16.0567 25.537 16.1728 25.1063C16.2735 24.7327 16.6427 24.4978 17.0237 24.5649L20.034 25.0944C20.8536 25.2387 21.6348 24.6917 21.7791 23.8727L21.7822 23.8575C21.9265 23.0385 21.3795 22.2567 20.5599 22.1124L17.2625 21.5311C16.5973 19.5599 14.4265 18.5684 12.5204 19.3067C12.5486 19.5346 12.5296 19.0334 12.5352 28.4837H13.6522L19.6958 29.5636C20.5599 29.6819 21.4394 29.5339 22.2172 29.1394L30.3738 25.0018C30.6518 24.8608 30.7394 24.502 30.5524 24.2526C29.7066 23.1252 28.144 22.7307 26.8404 23.3991Z" fill="#4B5CF6"/>
<path d="M10.6601 19.0688H8.46875C8.20986 19.0688 8 19.2787 8 19.5376V29.7959C8 30.0548 8.20986 30.2646 8.46875 30.2646H10.6601C10.919 30.2646 11.1289 30.0548 11.1289 29.7959V19.5376C11.1289 19.2787 10.919 19.0688 10.6601 19.0688Z" fill="#4B5CF6"/>
</g>
<defs>
<clipPath id="clip0_55_10281">
<rect width="24" height="24" fill="white" transform="translate(8 8)"/>
</clipPath>
</defs>
</svg>
