<svg width="40" height="40" viewBox="0 0 40 40" fill="none" xmlns="http://www.w3.org/2000/svg">
<rect width="40" height="40" rx="6" fill="#FEEDEF"/>
<path fill-rule="evenodd" clip-rule="evenodd" d="M29.792 14.4012C29.782 14.8152 29.439 15.1432 29.025 15.1342C28.611 15.1242 28.283 14.7812 28.292 14.3672L28.333 12.5612L26.528 12.5202C26.114 12.5102 25.786 12.1672 25.795 11.7532C25.805 11.3392 26.148 11.0112 26.562 11.0202L29.118 11.0792C29.532 11.0882 29.86 11.4312 29.85 11.8452L29.792 14.4012Z" fill="#FA9CA7"/>
<path fill-rule="evenodd" clip-rule="evenodd" d="M13.827 17.346V29.487C13.827 30.185 13.262 30.75 12.564 30.75H10.513C9.815 30.75 9.25 30.185 9.25 29.487V17.346C9.25 16.649 9.815 16.083 10.513 16.083H12.564C13.262 16.083 13.827 16.649 13.827 17.346Z" fill="#F64B60"/>
<path fill-rule="evenodd" clip-rule="evenodd" d="M25.109 23.5003V29.4873C25.109 29.8223 24.976 30.1433 24.739 30.3803C24.502 30.6173 24.181 30.7503 23.846 30.7503H21.795C21.46 30.7503 21.139 30.6173 20.902 30.3803C20.665 30.1433 20.532 29.8223 20.532 29.4873V23.5003C20.532 23.1653 20.665 22.8443 20.902 22.6073C21.139 22.3703 21.46 22.2373 21.795 22.2373H23.846C24.181 22.2373 24.502 22.3703 24.739 22.6073C24.976 22.8443 25.109 23.1653 25.109 23.5003Z" fill="#F64B60"/>
<path fill-rule="evenodd" clip-rule="evenodd" d="M19.468 20.4232V29.4872C19.468 30.1852 18.903 30.7502 18.205 30.7502H16.154C15.456 30.7502 14.891 30.1852 14.891 29.4872V20.4232C14.891 20.0882 15.024 19.7672 15.261 19.5302C15.498 19.2932 15.819 19.1602 16.154 19.1602H18.205C18.903 19.1602 19.468 19.7262 19.468 20.4232Z" fill="#F64B60"/>
<path fill-rule="evenodd" clip-rule="evenodd" d="M30.75 20.4232V29.4872C30.75 30.1852 30.185 30.7502 29.487 30.7502H27.436C26.738 30.7502 26.173 30.1852 26.173 29.4872V20.4232C26.173 20.0882 26.306 19.7672 26.543 19.5302C26.78 19.2932 27.101 19.1602 27.436 19.1602H29.487C30.185 19.1602 30.75 19.7262 30.75 20.4232Z" fill="#F64B60"/>
<path fill-rule="evenodd" clip-rule="evenodd" d="M10.45 10.6002C10.118 10.3522 10.051 9.8812 10.3 9.5502C10.548 9.2192 11.018 9.1522 11.35 9.4002L17.303 13.8652H20.13C20.361 13.8652 20.578 13.9712 20.72 14.1522L23.007 17.0632L28.307 11.5322C28.593 11.2332 29.068 11.2232 29.367 11.5102C29.666 11.7962 29.676 12.2712 29.39 12.5702L23.492 18.7242C23.342 18.8812 23.131 18.9652 22.914 18.9542C22.697 18.9442 22.495 18.8392 22.361 18.6682L19.766 15.3652H17.053C16.891 15.3652 16.733 15.3132 16.603 15.2152L10.45 10.6002Z" fill="#FA9CA7"/>
</svg>
