<svg width="40" height="40" viewBox="0 0 40 40" fill="none" xmlns="http://www.w3.org/2000/svg">
<rect width="40" height="40" rx="6" fill="#EBF7FD"/>
<g clip-path="url(#clip0_55_10295)">
<path d="M30.4517 24.3976V24.1344C30.4517 22.8027 29.631 21.6337 28.4078 21.2311C27.2155 20.844 26.0078 21.1227 25.1717 21.9588C24.591 22.524 24.2581 23.3292 24.2581 24.1498V24.3975C23.36 24.7227 22.7097 25.5744 22.7097 26.5808V29.6775C22.7097 30.9549 23.7549 32.0001 25.0323 32.0001H29.6774C30.9549 32.0001 32 30.9549 32 29.6775V26.5808C32 25.5744 31.3497 24.7228 30.4517 24.3976ZM28.0672 28.9189C28.1213 29.1048 27.9897 29.2983 27.8039 29.2983H26.9059C26.72 29.2983 26.5884 29.1048 26.6426 28.9189L26.7743 28.4544C26.5962 28.2609 26.4956 27.9822 26.5498 27.6725C26.6117 27.3241 26.8749 27.0376 27.2078 26.9757C27.7266 26.8828 28.1756 27.3009 28.1756 27.8351C28.1756 28.0828 28.0826 28.2918 27.9356 28.4544L28.0672 28.9189ZM28.9033 24.2583H25.8065V24.1499C25.8065 23.7396 25.9691 23.3448 26.2634 23.0583C26.6814 22.6324 27.3085 22.5008 27.9278 22.7021C28.5008 22.8957 28.9034 23.484 28.9034 24.1344L28.9033 24.2583Z" fill="#90D1F5"/>
<path d="M14.6577 22.7095C15.3637 26.0395 16.765 28.1288 18.0646 28.1288C19.3642 28.1288 20.7654 26.0395 21.4715 22.7095H14.6577Z" fill="#35AAEC"/>
<path d="M14.1936 18.0645C14.1936 19.1638 14.2643 20.2004 14.3902 21.1613H21.739C21.8648 20.2004 21.9356 19.1637 21.9356 18.0645C21.9356 16.9653 21.8648 15.9287 21.739 14.9678H14.3902C14.2643 15.9287 14.1936 16.9653 14.1936 18.0645Z" fill="#35AAEC"/>
<path d="M23.0634 13.4195H26.9877C25.7859 11.1158 23.7216 9.33826 21.2202 8.51221C22.0359 9.72383 22.676 11.4081 23.0634 13.4195Z" fill="#35AAEC"/>
<path d="M18.0646 8C16.7651 8 15.3638 10.0893 14.6577 13.4194H21.4714C20.7654 10.0893 19.3642 8 18.0646 8Z" fill="#35AAEC"/>
<path d="M13.0657 22.7095H9.14062C10.3428 25.0159 12.4083 26.7948 14.911 27.6203C14.0943 26.4084 13.4535 24.7228 13.0657 22.7095Z" fill="#35AAEC"/>
<path d="M13.0656 13.4195C13.4531 11.4081 14.0931 9.72383 14.9088 8.51221C12.4074 9.33826 10.343 11.1158 9.14124 13.4195H13.0656Z" fill="#35AAEC"/>
<path d="M28.1291 18.0645C28.1291 18.5676 28.0904 19.0709 28.013 19.5587C26.5497 19.3419 25.1252 19.8064 24.0878 20.8516C23.9871 20.9523 23.8942 21.0529 23.8013 21.1613H23.2981C23.4143 20.178 23.4839 19.1484 23.4839 18.0645C23.4839 16.9807 23.4142 15.951 23.2981 14.9678H27.3548C27.4478 14.9678 27.533 14.9445 27.6181 14.9136C27.9432 15.9045 28.1291 16.965 28.1291 18.0645Z" fill="#35AAEC"/>
<path d="M8.77427 21.1614H12.831C12.7133 20.1805 12.6452 19.1473 12.6452 18.0646C12.6452 16.9819 12.7133 15.9488 12.831 14.9679H8.77427C8.68052 14.9679 8.59322 14.945 8.51005 14.9146C8.1832 15.9064 8.00012 16.9634 8.00012 18.0647C8.00012 19.1649 8.1868 20.2217 8.51402 21.214C8.59607 21.1843 8.68195 21.1614 8.77427 21.1614Z" fill="#35AAEC"/>
</g>
<defs>
<clipPath id="clip0_55_10295">
<rect width="24" height="24" fill="white" transform="translate(8 8)"/>
</clipPath>
</defs>
</svg>
