<svg width="40" height="40" viewBox="0 0 40 40" fill="none" xmlns="http://www.w3.org/2000/svg">
<rect width="40" height="40" rx="6" fill="#F0FBF3"/>
<g clip-path="url(#clip0_55_10287)">
<path fill-rule="evenodd" clip-rule="evenodd" d="M12.7445 10.1136C11.1878 10.1136 9.92609 11.3753 9.92609 12.932C9.92609 14.4885 11.1879 15.7503 12.7445 15.7503C14.301 15.7503 15.5628 14.4885 15.5628 12.932C15.5628 11.3754 14.301 10.1136 12.7445 10.1136ZM13.1195 14.9527V14.8388C13.6722 14.7254 14.1568 14.3576 14.1422 13.7441C14.1411 13.7007 14.1388 13.6645 14.1353 13.6356C14.0489 12.9234 13.4367 12.6547 12.8074 12.5514C12.593 12.5162 12.2133 12.4366 12.2 12.1633C12.1886 11.9275 12.395 11.7928 12.6021 11.7512C12.9036 11.6904 13.2148 11.8112 13.3389 12.1069C13.419 12.2978 13.6387 12.3876 13.8296 12.3076C14.0205 12.2275 14.1103 12.0078 14.0303 11.8168C13.8479 11.3825 13.5011 11.1312 13.1195 11.0336V10.9112C13.1195 10.7041 12.9515 10.5362 12.7445 10.5362C12.5374 10.5362 12.3695 10.7041 12.3695 10.9112V11.0388C11.8293 11.1814 11.4247 11.6152 11.453 12.1984C11.4868 12.8951 12.0771 13.1894 12.6873 13.2896C12.9383 13.3308 13.3538 13.415 13.3912 13.7234C13.3926 13.7351 13.3951 13.75 13.3951 13.7616C13.4009 14.0039 13.0755 14.0955 12.8854 14.1185C12.8415 14.1238 12.8054 14.1268 12.7774 14.1275C12.487 14.1344 12.1601 14.0097 12.0833 13.7016C12.034 13.501 11.8313 13.3783 11.6307 13.4277C11.43 13.477 11.3074 13.6797 11.3567 13.8803C11.4821 14.383 11.8772 14.7164 12.3695 14.8312V14.9527C12.3695 15.1598 12.5374 15.3277 12.7445 15.3277C12.9515 15.3277 13.1195 15.1598 13.1195 14.9527Z" fill="#ACE8BC"/>
<path fill-rule="evenodd" clip-rule="evenodd" d="M16.6518 28.8928H14.0189C13.2076 28.8928 12.5438 29.4232 12.5438 30.0714V30.9688C12.5438 31.1237 12.6702 31.25 12.8251 31.25H27.5499C27.7048 31.25 27.8312 31.1237 27.8312 30.9688V30.0714C27.8312 29.4232 27.1674 28.8929 26.3561 28.8929H23.7232V26.1448H29.7078C30.6591 26.1448 31.4375 25.3664 31.4375 24.415V12.5154C31.4375 11.5641 30.6592 10.7857 29.7078 10.7857H17.1861C17.4033 11.2341 17.5544 11.7205 17.6271 12.2321H29.7512C29.8831 12.2321 29.9911 12.3401 29.9911 12.472V23.231H10.3839V17.2634C9.82827 16.9599 9.33744 16.5526 8.9375 16.0677V24.415C8.9375 25.3664 9.71586 26.1448 10.6672 26.1448H16.6518V28.8928ZM22.7126 18.6533H23.6493C23.7784 18.6533 23.8836 18.7586 23.8836 18.8877V22.5279C23.8836 22.657 23.7784 22.7623 23.6493 22.7623H22.7126C22.5835 22.7623 22.4782 22.657 22.4782 22.5279V18.8877C22.4782 18.7587 22.5835 18.6533 22.7126 18.6533ZM16.7257 20.066H17.6624C17.7915 20.066 17.8968 20.1713 17.8968 20.3004V22.5279C17.8968 22.657 17.7915 22.7623 17.6624 22.7623H16.7257C16.5966 22.7623 16.4913 22.657 16.4913 22.5279V20.3004C16.4913 20.1713 16.5966 20.066 16.7257 20.066ZM25.7061 15.8512H26.6428C26.7719 15.8512 26.8772 15.9565 26.8772 16.0856V22.5279C26.8772 22.657 26.7719 22.7623 26.6428 22.7623H25.7061C25.577 22.7623 25.4717 22.657 25.4717 22.5279V16.0856C25.4717 15.9565 25.577 15.8512 25.7061 15.8512ZM14.6689 18.5554C14.798 18.5554 14.9033 18.6607 14.9033 18.7898V22.5279C14.9033 22.657 14.798 22.7623 14.6689 22.7623H13.7322C13.6031 22.7623 13.4978 22.657 13.4978 22.5279V18.7898C13.4978 18.6607 13.6031 18.5554 13.7322 18.5554H14.6689ZM19.7191 17.6948H20.6558C20.7849 17.6948 20.8902 17.8001 20.8902 17.9292V22.5279C20.8902 22.657 20.7849 22.7623 20.6558 22.7623H19.7191C19.59 22.7623 19.4847 22.657 19.4847 22.5279V17.9292C19.4847 17.8001 19.59 17.6948 19.7191 17.6948ZM25.2921 14.2901L23.1077 16.2774L20.3354 15.0853C20.1959 15.0253 20.0402 15.0567 19.9348 15.1527L17.132 17.2809L15.815 16.7913C15.6011 16.9617 15.3727 17.1147 15.1319 17.2482C15.174 17.3178 15.239 17.3743 15.3212 17.4049L17.0637 18.0523C17.1794 18.0952 17.314 18.08 17.4195 17.9998L20.2385 15.8594L23.033 17.0608C23.1637 17.1169 23.3208 17.0956 23.4328 16.9937L25.9461 14.7072L25.9357 14.8349C25.9196 15.0412 26.0737 15.2216 26.28 15.2377C26.4863 15.2539 26.6667 15.0998 26.6828 14.8935L26.7703 13.8204C26.7882 13.5873 26.5891 13.3923 26.3544 13.4191L25.2852 13.5452C25.0797 13.5686 24.9321 13.7542 24.9556 13.9597C24.9761 14.1388 25.1196 14.2738 25.2921 14.2901Z" fill="#68D585"/>
<path fill-rule="evenodd" clip-rule="evenodd" d="M12.7445 8.75C10.4348 8.75 8.5625 10.6223 8.5625 12.932C8.5625 15.2416 10.4348 17.1139 12.7445 17.1139C15.0541 17.1139 16.9264 15.2416 16.9264 12.932C16.9264 10.6223 15.0541 8.75 12.7445 8.75ZM9.17609 12.932C9.17609 14.9026 10.7738 16.5003 12.7445 16.5003C14.7151 16.5003 16.3128 14.9026 16.3128 12.932C16.3128 10.9613 14.7151 9.36359 12.7445 9.36359C10.7738 9.36359 9.17609 10.9613 9.17609 12.932Z" fill="#ACE8BC"/>
</g>
<defs>
<clipPath id="clip0_55_10287">
<rect width="24" height="24" fill="white" transform="translate(8 8)"/>
</clipPath>
</defs>
</svg>
